<svg width="1440" height="209" fill="none" xmlns="http://www.w3.org/2000/svg"><g opacity=".04"><mask id="path-1-inside-1_176_82" fill="#fff"><path d="M177.146.035a9.421 9.421 0 00-7.441 9.609v188.412a9.41 9.41 0 002.118 7.623 9.422 9.422 0 007.183 3.321 9.426 9.426 0 009.082-6.9 9.426 9.426 0 00.219-4.044V9.644a9.423 9.423 0 00-2.971-7.091 9.426 9.426 0 00-7.267-2.518 9.436 9.436 0 00-.923 0zM58.092 9.952a9.426 9.426 0 00-7.44 9.609V188.14a9.415 9.415 0 005.343 10.073 9.422 9.422 0 0011.14-2.451 9.419 9.419 0 002.118-7.622V19.56a9.418 9.418 0 00-6.336-9.124 9.43 9.43 0 00-3.902-.484 9.434 9.434 0 00-.923 0zm89.29 29.749a9.426 9.426 0 00-5.477 3.445 9.416 9.416 0 00-1.963 6.164v109.081a9.416 9.416 0 005.332 10.1 9.437 9.437 0 007.928 0 9.43 9.43 0 005.123-6.048 9.416 9.416 0 00.209-4.052V49.31a9.425 9.425 0 00-10.219-9.609 9.247 9.247 0 00-.933 0zM28.328 49.617a9.425 9.425 0 00-7.44 9.61v89.247a9.416 9.416 0 005.331 10.1 9.423 9.423 0 0011.158-2.459 9.422 9.422 0 002.103-7.641V59.227a9.416 9.416 0 00-6.323-9.12 9.43 9.43 0 00-3.896-.49 9.18 9.18 0 00-.933 0zm59.527 9.917a9.426 9.426 0 00-7.44 9.609v69.415a9.415 9.415 0 005.331 10.1 9.438 9.438 0 007.929 0 9.425 9.425 0 005.332-10.1V69.143a9.418 9.418 0 00-6.323-9.119 9.43 9.43 0 00-3.896-.49 9.239 9.239 0 00-.933 0zm119.055 0a9.426 9.426 0 00-7.441 9.609v69.415a9.422 9.422 0 005.343 10.073 9.437 9.437 0 0011.141-2.451 9.42 9.42 0 002.118-7.622V69.143a9.424 9.424 0 00-10.239-9.61 9.388 9.388 0 00-.922 0zM-1.435 79.367a9.426 9.426 0 00-7.441 9.609v29.749a9.416 9.416 0 005.344 10.073 9.422 9.422 0 0011.14-2.451 9.42 9.42 0 002.118-7.622v-29.75a9.416 9.416 0 00-6.336-9.124 9.43 9.43 0 00-3.902-.484 9.418 9.418 0 00-.933 0h.01zm119.054 0a9.421 9.421 0 00-7.441 9.609v29.749a9.414 9.414 0 002.103 7.641 9.439 9.439 0 007.193 3.333 9.438 9.438 0 007.193-3.333 9.414 9.414 0 002.103-7.641v-29.75a9.423 9.423 0 00-10.218-9.609 9.247 9.247 0 00-.933 0zm119.054 0a9.421 9.421 0 00-7.441 9.609v29.749a9.41 9.41 0 002.118 7.622 9.425 9.425 0 0011.141 2.451 9.422 9.422 0 005.343-10.073v-29.75a9.422 9.422 0 00-2.971-7.09 9.417 9.417 0 00-7.267-2.518 9.409 9.409 0 00-.923 0z"/><path d="M417.354.035a9.426 9.426 0 00-7.441 9.61v188.411a9.41 9.41 0 002.118 7.623 9.422 9.422 0 007.184 3.321 9.425 9.425 0 009.301-10.944V9.644A9.424 9.424 0 00418.277.035a9.436 9.436 0 00-.923 0zM298.3 9.952a9.426 9.426 0 00-7.441 9.609V188.14a9.41 9.41 0 002.118 7.622 9.437 9.437 0 007.183 3.322 9.426 9.426 0 009.302-10.944V19.56a9.423 9.423 0 00-10.239-9.608 9.44 9.44 0 00-.923 0zM387.591 39.7a9.426 9.426 0 00-7.441 9.609V158.39a9.41 9.41 0 005.332 10.1 9.437 9.437 0 007.928 0 9.43 9.43 0 005.124-6.048 9.416 9.416 0 00.208-4.052V49.31a9.416 9.416 0 00-6.322-9.119 9.434 9.434 0 00-3.897-.49 9.227 9.227 0 00-.932 0zm-119.054 9.916a9.425 9.425 0 00-7.441 9.61v89.247a9.415 9.415 0 005.332 10.1 9.422 9.422 0 007.928 0 9.427 9.427 0 005.123-6.048 9.399 9.399 0 00.209-4.052V59.227a9.425 9.425 0 00-10.219-9.609 9.169 9.169 0 00-.932 0zm59.527 9.917a9.426 9.426 0 00-7.441 9.609v69.415a9.41 9.41 0 005.332 10.1 9.438 9.438 0 007.928 0 9.43 9.43 0 005.124-6.048 9.415 9.415 0 00.208-4.052V69.143a9.416 9.416 0 00-6.322-9.119 9.432 9.432 0 00-3.897-.49 9.227 9.227 0 00-.932 0zm119.054 0a9.426 9.426 0 00-7.441 9.609v69.415a9.41 9.41 0 002.118 7.622 9.428 9.428 0 0016.264-3.578 9.41 9.41 0 00.22-4.044V69.143a9.408 9.408 0 00-2.971-7.092 9.426 9.426 0 00-7.267-2.517 9.409 9.409 0 00-.923 0zM238.773 79.367a9.423 9.423 0 00-7.441 9.609v29.749a9.41 9.41 0 002.118 7.622 9.425 9.425 0 0011.141 2.451 9.425 9.425 0 005.344-10.073v-29.75a9.423 9.423 0 00-10.239-9.608 9.427 9.427 0 00-.933 0h.01zm119.054 0a9.426 9.426 0 00-7.441 9.609v29.749a9.43 9.43 0 002.104 7.641 9.426 9.426 0 0016.489-7.641v-29.75a9.416 9.416 0 00-2.965-7.083 9.424 9.424 0 00-7.254-2.525 9.247 9.247 0 00-.933 0zm119.054 0a9.426 9.426 0 00-7.441 9.609v29.749a9.426 9.426 0 002.118 7.622 9.425 9.425 0 0011.141 2.451 9.425 9.425 0 005.344-10.073v-29.75a9.423 9.423 0 00-10.239-9.608 9.409 9.409 0 00-.923 0z"/><path d="M657.563.035a9.426 9.426 0 00-7.441 9.61v188.411a9.426 9.426 0 002.118 7.623 9.413 9.413 0 003.226 2.45 9.419 9.419 0 007.914 0 9.422 9.422 0 005.344-10.073V9.644A9.424 9.424 0 00658.485.035a9.416 9.416 0 00-.922 0zM538.509 9.952a9.426 9.426 0 00-7.441 9.609V188.14a9.422 9.422 0 005.343 10.073 9.426 9.426 0 0013.259-10.073V19.56a9.423 9.423 0 00-10.239-9.608 9.42 9.42 0 00-.922 0zm89.29 29.749a9.423 9.423 0 00-7.441 9.609v109.081a9.431 9.431 0 002.103 7.64 9.43 9.43 0 0011.158 2.46 9.416 9.416 0 003.228-2.46 9.413 9.413 0 002.104-7.64V49.31a9.416 9.416 0 00-2.965-7.084 9.424 9.424 0 00-7.254-2.525 9.247 9.247 0 00-.933 0zm-119.054 9.916a9.423 9.423 0 00-7.441 9.61v89.247a9.414 9.414 0 002.103 7.641 9.427 9.427 0 0016.489-7.641V59.227a9.425 9.425 0 00-10.218-9.609 9.188 9.188 0 00-.933 0zm59.527 9.917a9.423 9.423 0 00-7.441 9.609v69.415a9.415 9.415 0 002.103 7.64 9.43 9.43 0 0011.158 2.46 9.416 9.416 0 003.228-2.46 9.413 9.413 0 002.103-7.64V69.143a9.425 9.425 0 00-10.218-9.609 9.247 9.247 0 00-.933 0zm119.054 0a9.423 9.423 0 00-7.441 9.609v69.415a9.41 9.41 0 002.118 7.622 9.437 9.437 0 007.183 3.322 9.442 9.442 0 007.184-3.322 9.426 9.426 0 002.117-7.622V69.143a9.407 9.407 0 00-2.97-7.092 9.43 9.43 0 00-7.268-2.517 9.409 9.409 0 00-.923 0zM478.982 79.367a9.426 9.426 0 00-7.441 9.609v29.749a9.422 9.422 0 005.343 10.073 9.426 9.426 0 0013.259-10.073v-29.75a9.423 9.423 0 00-10.239-9.608 9.406 9.406 0 00-.932 0h.01zm119.054 0a9.426 9.426 0 00-7.441 9.609v29.749a9.414 9.414 0 005.332 10.1 9.438 9.438 0 007.928 0 9.415 9.415 0 005.332-10.1v-29.75a9.423 9.423 0 00-10.219-9.609 9.227 9.227 0 00-.932 0zm119.054 0a9.426 9.426 0 00-7.441 9.609v29.749a9.422 9.422 0 005.344 10.073 9.419 9.419 0 007.914 0 9.415 9.415 0 005.124-6.029 9.41 9.41 0 00.22-4.044v-29.75a9.423 9.423 0 00-10.239-9.608 9.388 9.388 0 00-.922 0z"/><path d="M897.771.035a9.421 9.421 0 00-7.441 9.609v188.412a9.41 9.41 0 002.118 7.623 9.422 9.422 0 007.183 3.321 9.426 9.426 0 009.082-6.9 9.426 9.426 0 00.219-4.044V9.644a9.407 9.407 0 00-2.971-7.091 9.426 9.426 0 00-7.267-2.518 9.436 9.436 0 00-.923 0zM778.717 9.952a9.426 9.426 0 00-7.441 9.609V188.14a9.41 9.41 0 002.118 7.622 9.428 9.428 0 0016.265-3.578 9.426 9.426 0 00.219-4.044V19.56a9.407 9.407 0 00-2.971-7.09 9.426 9.426 0 00-7.267-2.518 9.44 9.44 0 00-.923 0zM868.008 39.7a9.426 9.426 0 00-7.441 9.609V158.39a9.416 9.416 0 005.331 10.1 9.444 9.444 0 007.929 0 9.43 9.43 0 005.123-6.048 9.416 9.416 0 00.209-4.052V49.31a9.416 9.416 0 00-2.964-7.084 9.437 9.437 0 00-7.255-2.525 9.227 9.227 0 00-.932 0zm-119.055 9.916a9.426 9.426 0 00-7.44 9.61v89.247a9.414 9.414 0 005.331 10.1 9.427 9.427 0 0013.261-10.1V59.227a9.417 9.417 0 00-2.965-7.084 9.425 9.425 0 00-7.254-2.526 9.188 9.188 0 00-.933 0zm59.527 9.917a9.426 9.426 0 00-7.441 9.609v69.415a9.413 9.413 0 002.104 7.64 9.416 9.416 0 007.193 3.334 9.438 9.438 0 007.193-3.334 9.424 9.424 0 002.103-7.64V69.143a9.417 9.417 0 00-2.964-7.084 9.438 9.438 0 00-7.255-2.525 9.247 9.247 0 00-.933 0zm119.054 0a9.416 9.416 0 00-7.44 9.609v69.415a9.426 9.426 0 002.117 7.622 9.437 9.437 0 007.184 3.322 9.437 9.437 0 007.183-3.322 9.42 9.42 0 002.118-7.622V69.143a9.424 9.424 0 00-10.239-9.61 9.409 9.409 0 00-.923 0zM719.19 79.367a9.426 9.426 0 00-7.441 9.609v29.749a9.41 9.41 0 002.118 7.622 9.419 9.419 0 0011.14 2.451 9.415 9.415 0 005.124-6.029 9.41 9.41 0 00.22-4.044v-29.75a9.407 9.407 0 00-2.971-7.09 9.426 9.426 0 00-7.267-2.518 9.427 9.427 0 00-.933 0h.01zm119.054 0a9.426 9.426 0 00-7.441 9.609v29.749a9.414 9.414 0 002.103 7.641 9.439 9.439 0 007.193 3.333 9.438 9.438 0 007.193-3.333 9.414 9.414 0 002.103-7.641v-29.75a9.423 9.423 0 00-10.218-9.609 9.247 9.247 0 00-.933 0zm119.054 0a9.421 9.421 0 00-7.441 9.609v29.749a9.41 9.41 0 002.118 7.622 9.425 9.425 0 0011.141 2.451 9.422 9.422 0 005.343-10.073v-29.75a9.406 9.406 0 00-2.971-7.09 9.426 9.426 0 00-7.267-2.518 9.409 9.409 0 00-.923 0z"/><path d="M1137.98.035a9.412 9.412 0 00-7.44 9.61v188.411a9.364 9.364 0 00.22 4.044 9.278 9.278 0 001.9 3.579 9.353 9.353 0 003.22 2.45c1.24.574 2.59.871 3.96.871s2.72-.297 3.96-.871a9.353 9.353 0 003.22-2.45 9.278 9.278 0 001.9-3.579c.37-1.316.44-2.696.22-4.044V9.644a9.474 9.474 0 00-.73-3.862 9.412 9.412 0 00-5.61-5.263 9.414 9.414 0 00-3.9-.484 9.375 9.375 0 00-.92 0zm-119.05 9.917a9.412 9.412 0 00-5.48 3.445 9.455 9.455 0 00-1.97 6.164V188.14a9.521 9.521 0 00.22 4.044 9.55 9.55 0 001.9 3.578 9.5 9.5 0 003.23 2.451 9.422 9.422 0 0011.14-2.451 9.55 9.55 0 001.9-3.578c.36-1.316.44-2.696.22-4.044V19.56a9.473 9.473 0 00-.73-3.862 9.474 9.474 0 00-2.24-3.229 9.498 9.498 0 00-3.37-2.033 9.414 9.414 0 00-3.9-.484 9.378 9.378 0 00-.92 0zm89.29 29.749a9.412 9.412 0 00-5.48 3.445 9.455 9.455 0 00-1.97 6.164v109.081a9.558 9.558 0 00.21 4.052 9.451 9.451 0 001.9 3.588 9.312 9.312 0 003.23 2.46c1.24.575 2.59.873 3.96.873s2.72-.298 3.97-.873a9.368 9.368 0 003.22-2.46 9.314 9.314 0 001.9-3.588c.36-1.32.43-2.703.21-4.052V49.31a9.451 9.451 0 00-.73-3.857 9.338 9.338 0 00-2.24-3.227 9.398 9.398 0 00-3.36-2.035 9.399 9.399 0 00-3.89-.49 9.187 9.187 0 00-.93 0zm-119.058 9.916a9.425 9.425 0 00-7.441 9.61v89.247a9.415 9.415 0 005.332 10.1 9.422 9.422 0 007.928 0 9.427 9.427 0 003.229-2.459 9.351 9.351 0 001.89-3.589c.37-1.319.44-2.702.21-4.052V59.227a9.38 9.38 0 00-.724-3.858 9.425 9.425 0 00-9.492-5.752 9.169 9.169 0 00-.932 0zm59.528 9.917a9.412 9.412 0 00-7.44 9.609v69.415a9.247 9.247 0 00.21 4.052 9.43 9.43 0 001.89 3.588 9.5 9.5 0 003.23 2.46 9.41 9.41 0 003.96.874c1.37 0 2.73-.299 3.97-.874a9.5 9.5 0 003.23-2.46 9.43 9.43 0 001.89-3.588 9.4 9.4 0 00.21-4.052V69.143a9.451 9.451 0 00-2.96-7.084 9.444 9.444 0 00-7.26-2.525 9.187 9.187 0 00-.93 0zm119.05 0a9.419 9.419 0 00-5.47 3.445 9.4 9.4 0 00-1.97 6.164v69.415a9.521 9.521 0 00.22 4.044 9.55 9.55 0 001.9 3.578 9.405 9.405 0 003.23 2.451 9.426 9.426 0 007.91 0 9.5 9.5 0 003.23-2.451 9.389 9.389 0 001.89-3.578c.37-1.316.44-2.696.22-4.044V69.143a9.303 9.303 0 00-.72-3.863 9.501 9.501 0 00-2.25-3.229 9.412 9.412 0 00-7.26-2.517 9.552 9.552 0 00-.93 0zM959.398 79.367a9.423 9.423 0 00-7.441 9.609v29.749a9.41 9.41 0 002.118 7.622 9.425 9.425 0 0011.141 2.451 9.425 9.425 0 005.344-10.073v-29.75a9.423 9.423 0 00-10.239-9.608 9.427 9.427 0 00-.933 0h.01zm119.052 0a9.474 9.474 0 00-5.48 3.445 9.446 9.446 0 00-1.96 6.164v29.749a9.434 9.434 0 002.1 7.641 9.51 9.51 0 003.23 2.459c1.25.575 2.6.874 3.97.874a9.41 9.41 0 003.96-.874 9.455 9.455 0 005.13-6.048c.36-1.319.43-2.702.2-4.052v-29.75a9.442 9.442 0 00-.72-3.857 9.473 9.473 0 00-2.24-3.226 9.443 9.443 0 00-7.26-2.526 9.187 9.187 0 00-.93 0zm119.06 0a9.412 9.412 0 00-7.44 9.609v29.749a9.212 9.212 0 00.22 4.044 9.389 9.389 0 001.89 3.578 9.487 9.487 0 003.23 2.451 9.422 9.422 0 0011.14-2.451 9.55 9.55 0 001.9-3.578c.36-1.316.44-2.696.22-4.044v-29.75a9.473 9.473 0 00-.73-3.862 9.474 9.474 0 00-2.24-3.229 9.498 9.498 0 00-3.37-2.033 9.414 9.414 0 00-3.9-.484 9.347 9.347 0 00-.92 0z"/><path d="M1378.19.035a9.412 9.412 0 00-7.44 9.61v188.411a9.364 9.364 0 00.22 4.044 9.393 9.393 0 001.89 3.579 9.484 9.484 0 003.23 2.45c1.24.574 2.59.871 3.96.871a9.49 9.49 0 003.96-.871 9.353 9.353 0 003.22-2.45 9.414 9.414 0 001.9-3.579c.36-1.316.44-2.696.22-4.044V9.644a9.474 9.474 0 00-.73-3.862 9.412 9.412 0 00-5.61-5.263 9.414 9.414 0 00-3.9-.484 9.375 9.375 0 00-.92 0zm-119.06 9.917a9.419 9.419 0 00-5.47 3.445 9.4 9.4 0 00-1.97 6.164V188.14a9.521 9.521 0 00.22 4.044 9.55 9.55 0 001.9 3.578 9.5 9.5 0 003.23 2.451 9.41 9.41 0 007.91 0 9.5 9.5 0 003.23-2.451 9.55 9.55 0 001.9-3.578c.36-1.316.44-2.696.21-4.044V19.56a9.302 9.302 0 00-.72-3.862 9.5 9.5 0 00-2.25-3.229 9.414 9.414 0 00-7.26-2.518 9.584 9.584 0 00-.93 0zm89.29 29.749a9.419 9.419 0 00-5.47 3.445 9.4 9.4 0 00-1.97 6.164v109.081a9.558 9.558 0 00.21 4.052 9.451 9.451 0 001.9 3.588 9.312 9.312 0 003.23 2.46 9.409 9.409 0 007.92 0 9.312 9.312 0 003.23-2.46 9.451 9.451 0 001.9-3.588c.36-1.32.43-2.703.21-4.052V49.31a9.451 9.451 0 00-.73-3.857 9.338 9.338 0 00-2.24-3.227 9.398 9.398 0 00-3.36-2.035 9.399 9.399 0 00-3.89-.49 9.386 9.386 0 00-.94 0zm-119.05 9.916a9.411 9.411 0 00-7.44 9.61v89.247a9.246 9.246 0 00.21 4.052 9.434 9.434 0 001.89 3.589 9.44 9.44 0 0011.16 2.459 9.497 9.497 0 003.23-2.459 9.434 9.434 0 001.89-3.589c.37-1.319.44-2.702.21-4.052V59.227a9.451 9.451 0 00-2.96-7.084 9.444 9.444 0 00-7.26-2.525 9.13 9.13 0 00-.93 0zm59.53 9.917a9.412 9.412 0 00-7.44 9.609v69.415a9.397 9.397 0 00.2 4.052 9.451 9.451 0 005.13 6.048 9.41 9.41 0 003.96.874c1.37 0 2.72-.299 3.97-.874a9.5 9.5 0 003.23-2.46 9.43 9.43 0 002.1-7.64V69.143a9.451 9.451 0 00-.73-3.858 9.338 9.338 0 00-2.24-3.226c-.96-.906-2.1-1.6-3.35-2.035a9.444 9.444 0 00-3.9-.49 9.187 9.187 0 00-.93 0zm119.05 0a9.474 9.474 0 00-5.48 3.445 9.446 9.446 0 00-1.96 6.164v69.415a9.41 9.41 0 002.12 7.622 9.368 9.368 0 003.22 2.451 9.437 9.437 0 007.92 0 9.368 9.368 0 003.22-2.451 9.275 9.275 0 001.9-3.578c.37-1.316.44-2.696.22-4.044V69.143a9.311 9.311 0 00-.73-3.863 9.338 9.338 0 00-2.24-3.229 9.371 9.371 0 00-3.36-2.033 9.48 9.48 0 00-3.91-.484 9.41 9.41 0 00-.92 0zm-208.34 19.833a9.412 9.412 0 00-7.44 9.609v29.749a9.212 9.212 0 00.22 4.044 9.389 9.389 0 001.89 3.578 9.487 9.487 0 003.23 2.451 9.422 9.422 0 007.91 0 9.392 9.392 0 003.23-2.451 9.55 9.55 0 001.9-3.578c.36-1.316.44-2.696.22-4.044v-29.75a9.473 9.473 0 00-.73-3.862 9.474 9.474 0 00-2.24-3.229 9.498 9.498 0 00-3.37-2.033 9.414 9.414 0 00-3.9-.484 9.366 9.366 0 00-.93 0h.01zm119.05 0a9.443 9.443 0 00-5.48 3.445 9.446 9.446 0 00-1.96 6.164v29.749a9.399 9.399 0 00.21 4.052 9.434 9.434 0 001.89 3.589 9.51 9.51 0 003.23 2.459c1.24.575 2.6.874 3.97.874a9.41 9.41 0 003.96-.874 9.51 9.51 0 003.23-2.459 9.434 9.434 0 001.89-3.589c.37-1.319.44-2.702.21-4.052v-29.75a9.288 9.288 0 00-.73-3.857 9.446 9.446 0 00-2.23-3.226 9.443 9.443 0 00-7.26-2.526 9.187 9.187 0 00-.93 0zm119.05 0a9.419 9.419 0 00-5.47 3.445 9.455 9.455 0 00-1.97 6.164v29.749a9.521 9.521 0 00.22 4.044 9.55 9.55 0 001.9 3.578 9.487 9.487 0 003.23 2.451 9.41 9.41 0 007.91 0 9.487 9.487 0 003.23-2.451 9.55 9.55 0 001.9-3.578c.36-1.316.44-2.696.22-4.044v-29.75a9.473 9.473 0 00-.73-3.862 9.474 9.474 0 00-2.24-3.229 9.498 9.498 0 00-3.37-2.033 9.414 9.414 0 00-3.9-.484 9.552 9.552 0 00-.93 0z"/></mask><path d="M177.146.035a9.421 9.421 0 00-7.441 9.609v188.412a9.41 9.41 0 002.118 7.623 9.422 9.422 0 007.183 3.321 9.426 9.426 0 009.082-6.9 9.426 9.426 0 00.219-4.044V9.644a9.423 9.423 0 00-2.971-7.091 9.426 9.426 0 00-7.267-2.518 9.436 9.436 0 00-.923 0zM58.092 9.952a9.426 9.426 0 00-7.44 9.609V188.14a9.415 9.415 0 005.343 10.073 9.422 9.422 0 0011.14-2.451 9.419 9.419 0 002.118-7.622V19.56a9.418 9.418 0 00-6.336-9.124 9.43 9.43 0 00-3.902-.484 9.434 9.434 0 00-.923 0zm89.29 29.749a9.426 9.426 0 00-5.477 3.445 9.416 9.416 0 00-1.963 6.164v109.081a9.416 9.416 0 005.332 10.1 9.437 9.437 0 007.928 0 9.43 9.43 0 005.123-6.048 9.416 9.416 0 00.209-4.052V49.31a9.425 9.425 0 00-10.219-9.609 9.247 9.247 0 00-.933 0zM28.328 49.617a9.425 9.425 0 00-7.44 9.61v89.247a9.416 9.416 0 005.331 10.1 9.423 9.423 0 0011.158-2.459 9.422 9.422 0 002.103-7.641V59.227a9.416 9.416 0 00-6.323-9.12 9.43 9.43 0 00-3.896-.49 9.18 9.18 0 00-.933 0zm59.527 9.917a9.426 9.426 0 00-7.44 9.609v69.415a9.415 9.415 0 005.331 10.1 9.438 9.438 0 007.929 0 9.425 9.425 0 005.332-10.1V69.143a9.418 9.418 0 00-6.323-9.119 9.43 9.43 0 00-3.896-.49 9.239 9.239 0 00-.933 0zm119.055 0a9.426 9.426 0 00-7.441 9.609v69.415a9.422 9.422 0 005.343 10.073 9.437 9.437 0 0011.141-2.451 9.42 9.42 0 002.118-7.622V69.143a9.424 9.424 0 00-10.239-9.61 9.388 9.388 0 00-.922 0zM-1.435 79.367a9.426 9.426 0 00-7.441 9.609v29.749a9.416 9.416 0 005.344 10.073 9.422 9.422 0 0011.14-2.451 9.42 9.42 0 002.118-7.622v-29.75a9.416 9.416 0 00-6.336-9.124 9.43 9.43 0 00-3.902-.484 9.418 9.418 0 00-.933 0h.01zm119.054 0a9.421 9.421 0 00-7.441 9.609v29.749a9.414 9.414 0 002.103 7.641 9.439 9.439 0 007.193 3.333 9.438 9.438 0 007.193-3.333 9.414 9.414 0 002.103-7.641v-29.75a9.423 9.423 0 00-10.218-9.609 9.247 9.247 0 00-.933 0zm119.054 0a9.421 9.421 0 00-7.441 9.609v29.749a9.41 9.41 0 002.118 7.622 9.425 9.425 0 0011.141 2.451 9.422 9.422 0 005.343-10.073v-29.75a9.422 9.422 0 00-2.971-7.09 9.417 9.417 0 00-7.267-2.518 9.409 9.409 0 00-.923 0z" stroke="url(#paint0_linear_176_82)" stroke-width="2" mask="url(#path-1-inside-1_176_82)"/><path d="M417.354.035a9.426 9.426 0 00-7.441 9.61v188.411a9.41 9.41 0 002.118 7.623 9.422 9.422 0 007.184 3.321 9.425 9.425 0 009.301-10.944V9.644A9.424 9.424 0 00418.277.035a9.436 9.436 0 00-.923 0zM298.3 9.952a9.426 9.426 0 00-7.441 9.609V188.14a9.41 9.41 0 002.118 7.622 9.437 9.437 0 007.183 3.322 9.426 9.426 0 009.302-10.944V19.56a9.423 9.423 0 00-10.239-9.608 9.44 9.44 0 00-.923 0zM387.591 39.7a9.426 9.426 0 00-7.441 9.609V158.39a9.41 9.41 0 005.332 10.1 9.437 9.437 0 007.928 0 9.43 9.43 0 005.124-6.048 9.416 9.416 0 00.208-4.052V49.31a9.416 9.416 0 00-6.322-9.119 9.434 9.434 0 00-3.897-.49 9.227 9.227 0 00-.932 0zm-119.054 9.916a9.425 9.425 0 00-7.441 9.61v89.247a9.415 9.415 0 005.332 10.1 9.422 9.422 0 007.928 0 9.427 9.427 0 005.123-6.048 9.399 9.399 0 00.209-4.052V59.227a9.425 9.425 0 00-10.219-9.609 9.169 9.169 0 00-.932 0zm59.527 9.917a9.426 9.426 0 00-7.441 9.609v69.415a9.41 9.41 0 005.332 10.1 9.438 9.438 0 007.928 0 9.43 9.43 0 005.124-6.048 9.415 9.415 0 00.208-4.052V69.143a9.416 9.416 0 00-6.322-9.119 9.432 9.432 0 00-3.897-.49 9.227 9.227 0 00-.932 0zm119.054 0a9.426 9.426 0 00-7.441 9.609v69.415a9.41 9.41 0 002.118 7.622 9.428 9.428 0 0016.264-3.578 9.41 9.41 0 00.22-4.044V69.143a9.408 9.408 0 00-2.971-7.092 9.426 9.426 0 00-7.267-2.517 9.409 9.409 0 00-.923 0zM238.773 79.367a9.423 9.423 0 00-7.441 9.609v29.749a9.41 9.41 0 002.118 7.622 9.425 9.425 0 0011.141 2.451 9.425 9.425 0 005.344-10.073v-29.75a9.423 9.423 0 00-10.239-9.608 9.427 9.427 0 00-.933 0h.01zm119.054 0a9.426 9.426 0 00-7.441 9.609v29.749a9.43 9.43 0 002.104 7.641 9.426 9.426 0 0016.489-7.641v-29.75a9.416 9.416 0 00-2.965-7.083 9.424 9.424 0 00-7.254-2.525 9.247 9.247 0 00-.933 0zm119.054 0a9.426 9.426 0 00-7.441 9.609v29.749a9.426 9.426 0 002.118 7.622 9.425 9.425 0 0011.141 2.451 9.425 9.425 0 005.344-10.073v-29.75a9.423 9.423 0 00-10.239-9.608 9.409 9.409 0 00-.923 0z" stroke="url(#paint1_linear_176_82)" stroke-width="2" mask="url(#path-1-inside-1_176_82)"/><path d="M657.563.035a9.426 9.426 0 00-7.441 9.61v188.411a9.426 9.426 0 002.118 7.623 9.413 9.413 0 003.226 2.45 9.419 9.419 0 007.914 0 9.422 9.422 0 005.344-10.073V9.644A9.424 9.424 0 00658.485.035a9.416 9.416 0 00-.922 0zM538.509 9.952a9.426 9.426 0 00-7.441 9.609V188.14a9.422 9.422 0 005.343 10.073 9.426 9.426 0 0013.259-10.073V19.56a9.423 9.423 0 00-10.239-9.608 9.42 9.42 0 00-.922 0zm89.29 29.749a9.423 9.423 0 00-7.441 9.609v109.081a9.431 9.431 0 002.103 7.64 9.43 9.43 0 0011.158 2.46 9.416 9.416 0 003.228-2.46 9.413 9.413 0 002.104-7.64V49.31a9.416 9.416 0 00-2.965-7.084 9.424 9.424 0 00-7.254-2.525 9.247 9.247 0 00-.933 0zm-119.054 9.916a9.423 9.423 0 00-7.441 9.61v89.247a9.414 9.414 0 002.103 7.641 9.427 9.427 0 0016.489-7.641V59.227a9.425 9.425 0 00-10.218-9.609 9.188 9.188 0 00-.933 0zm59.527 9.917a9.423 9.423 0 00-7.441 9.609v69.415a9.415 9.415 0 002.103 7.64 9.43 9.43 0 0011.158 2.46 9.416 9.416 0 003.228-2.46 9.413 9.413 0 002.103-7.64V69.143a9.425 9.425 0 00-10.218-9.609 9.247 9.247 0 00-.933 0zm119.054 0a9.423 9.423 0 00-7.441 9.609v69.415a9.41 9.41 0 002.118 7.622 9.437 9.437 0 007.183 3.322 9.442 9.442 0 007.184-3.322 9.426 9.426 0 002.117-7.622V69.143a9.407 9.407 0 00-2.97-7.092 9.43 9.43 0 00-7.268-2.517 9.409 9.409 0 00-.923 0zM478.982 79.367a9.426 9.426 0 00-7.441 9.609v29.749a9.422 9.422 0 005.343 10.073 9.426 9.426 0 0013.259-10.073v-29.75a9.423 9.423 0 00-10.239-9.608 9.406 9.406 0 00-.932 0h.01zm119.054 0a9.426 9.426 0 00-7.441 9.609v29.749a9.414 9.414 0 005.332 10.1 9.438 9.438 0 007.928 0 9.415 9.415 0 005.332-10.1v-29.75a9.423 9.423 0 00-10.219-9.609 9.227 9.227 0 00-.932 0zm119.054 0a9.426 9.426 0 00-7.441 9.609v29.749a9.422 9.422 0 005.344 10.073 9.419 9.419 0 007.914 0 9.415 9.415 0 005.124-6.029 9.41 9.41 0 00.22-4.044v-29.75a9.423 9.423 0 00-10.239-9.608 9.388 9.388 0 00-.922 0z" stroke="url(#paint2_linear_176_82)" stroke-width="2" mask="url(#path-1-inside-1_176_82)"/><path d="M897.771.035a9.421 9.421 0 00-7.441 9.609v188.412a9.41 9.41 0 002.118 7.623 9.422 9.422 0 007.183 3.321 9.426 9.426 0 009.082-6.9 9.426 9.426 0 00.219-4.044V9.644a9.407 9.407 0 00-2.971-7.091 9.426 9.426 0 00-7.267-2.518 9.436 9.436 0 00-.923 0zM778.717 9.952a9.426 9.426 0 00-7.441 9.609V188.14a9.41 9.41 0 002.118 7.622 9.428 9.428 0 0016.265-3.578 9.426 9.426 0 00.219-4.044V19.56a9.407 9.407 0 00-2.971-7.09 9.426 9.426 0 00-7.267-2.518 9.44 9.44 0 00-.923 0zM868.008 39.7a9.426 9.426 0 00-7.441 9.609V158.39a9.416 9.416 0 005.331 10.1 9.444 9.444 0 007.929 0 9.43 9.43 0 005.123-6.048 9.416 9.416 0 00.209-4.052V49.31a9.416 9.416 0 00-2.964-7.084 9.437 9.437 0 00-7.255-2.525 9.227 9.227 0 00-.932 0zm-119.055 9.916a9.426 9.426 0 00-7.44 9.61v89.247a9.414 9.414 0 005.331 10.1 9.427 9.427 0 0013.261-10.1V59.227a9.417 9.417 0 00-2.965-7.084 9.425 9.425 0 00-7.254-2.526 9.188 9.188 0 00-.933 0zm59.527 9.917a9.426 9.426 0 00-7.441 9.609v69.415a9.413 9.413 0 002.104 7.64 9.416 9.416 0 007.193 3.334 9.438 9.438 0 007.193-3.334 9.424 9.424 0 002.103-7.64V69.143a9.417 9.417 0 00-2.964-7.084 9.438 9.438 0 00-7.255-2.525 9.247 9.247 0 00-.933 0zm119.054 0a9.416 9.416 0 00-7.44 9.609v69.415a9.426 9.426 0 002.117 7.622 9.437 9.437 0 007.184 3.322 9.437 9.437 0 007.183-3.322 9.42 9.42 0 002.118-7.622V69.143a9.424 9.424 0 00-10.239-9.61 9.409 9.409 0 00-.923 0zM719.19 79.367a9.426 9.426 0 00-7.441 9.609v29.749a9.41 9.41 0 002.118 7.622 9.419 9.419 0 0011.14 2.451 9.415 9.415 0 005.124-6.029 9.41 9.41 0 00.22-4.044v-29.75a9.407 9.407 0 00-2.971-7.09 9.426 9.426 0 00-7.267-2.518 9.427 9.427 0 00-.933 0h.01zm119.054 0a9.426 9.426 0 00-7.441 9.609v29.749a9.414 9.414 0 002.103 7.641 9.439 9.439 0 007.193 3.333 9.438 9.438 0 007.193-3.333 9.414 9.414 0 002.103-7.641v-29.75a9.423 9.423 0 00-10.218-9.609 9.247 9.247 0 00-.933 0zm119.054 0a9.421 9.421 0 00-7.441 9.609v29.749a9.41 9.41 0 002.118 7.622 9.425 9.425 0 0011.141 2.451 9.422 9.422 0 005.343-10.073v-29.75a9.406 9.406 0 00-2.971-7.09 9.426 9.426 0 00-7.267-2.518 9.409 9.409 0 00-.923 0z" stroke="url(#paint3_linear_176_82)" stroke-width="2" mask="url(#path-1-inside-1_176_82)"/><path d="M1137.98.035a9.412 9.412 0 00-7.44 9.61v188.411a9.364 9.364 0 00.22 4.044 9.278 9.278 0 001.9 3.579 9.353 9.353 0 003.22 2.45c1.24.574 2.59.871 3.96.871s2.72-.297 3.96-.871a9.353 9.353 0 003.22-2.45 9.278 9.278 0 001.9-3.579c.37-1.316.44-2.696.22-4.044V9.644a9.474 9.474 0 00-.73-3.862 9.412 9.412 0 00-5.61-5.263 9.414 9.414 0 00-3.9-.484 9.375 9.375 0 00-.92 0zm-119.05 9.917a9.412 9.412 0 00-5.48 3.445 9.455 9.455 0 00-1.97 6.164V188.14a9.521 9.521 0 00.22 4.044 9.55 9.55 0 001.9 3.578 9.5 9.5 0 003.23 2.451 9.422 9.422 0 0011.14-2.451 9.55 9.55 0 001.9-3.578c.36-1.316.44-2.696.22-4.044V19.56a9.473 9.473 0 00-.73-3.862 9.474 9.474 0 00-2.24-3.229 9.498 9.498 0 00-3.37-2.033 9.414 9.414 0 00-3.9-.484 9.378 9.378 0 00-.92 0zm89.29 29.749a9.412 9.412 0 00-5.48 3.445 9.455 9.455 0 00-1.97 6.164v109.081a9.558 9.558 0 00.21 4.052 9.451 9.451 0 001.9 3.588 9.312 9.312 0 003.23 2.46c1.24.575 2.59.873 3.96.873s2.72-.298 3.97-.873a9.368 9.368 0 003.22-2.46 9.314 9.314 0 001.9-3.588c.36-1.32.43-2.703.21-4.052V49.31a9.451 9.451 0 00-.73-3.857 9.338 9.338 0 00-2.24-3.227 9.398 9.398 0 00-3.36-2.035 9.399 9.399 0 00-3.89-.49 9.187 9.187 0 00-.93 0zm-119.058 9.916a9.425 9.425 0 00-7.441 9.61v89.247a9.415 9.415 0 005.332 10.1 9.422 9.422 0 007.928 0 9.427 9.427 0 003.229-2.459 9.351 9.351 0 001.89-3.589c.37-1.319.44-2.702.21-4.052V59.227a9.38 9.38 0 00-.724-3.858 9.425 9.425 0 00-9.492-5.752 9.169 9.169 0 00-.932 0zm59.528 9.917a9.412 9.412 0 00-7.44 9.609v69.415a9.247 9.247 0 00.21 4.052 9.43 9.43 0 001.89 3.588 9.5 9.5 0 003.23 2.46 9.41 9.41 0 003.96.874c1.37 0 2.73-.299 3.97-.874a9.5 9.5 0 003.23-2.46 9.43 9.43 0 001.89-3.588 9.4 9.4 0 00.21-4.052V69.143a9.451 9.451 0 00-2.96-7.084 9.444 9.444 0 00-7.26-2.525 9.187 9.187 0 00-.93 0zm119.05 0a9.419 9.419 0 00-5.47 3.445 9.4 9.4 0 00-1.97 6.164v69.415a9.521 9.521 0 00.22 4.044 9.55 9.55 0 001.9 3.578 9.405 9.405 0 003.23 2.451 9.426 9.426 0 007.91 0 9.5 9.5 0 003.23-2.451 9.389 9.389 0 001.89-3.578c.37-1.316.44-2.696.22-4.044V69.143a9.303 9.303 0 00-.72-3.863 9.501 9.501 0 00-2.25-3.229 9.412 9.412 0 00-7.26-2.517 9.552 9.552 0 00-.93 0zM959.398 79.367a9.423 9.423 0 00-7.441 9.609v29.749a9.41 9.41 0 002.118 7.622 9.425 9.425 0 0011.141 2.451 9.425 9.425 0 005.344-10.073v-29.75a9.423 9.423 0 00-10.239-9.608 9.427 9.427 0 00-.933 0h.01zm119.052 0a9.474 9.474 0 00-5.48 3.445 9.446 9.446 0 00-1.96 6.164v29.749a9.434 9.434 0 002.1 7.641 9.51 9.51 0 003.23 2.459c1.25.575 2.6.874 3.97.874a9.41 9.41 0 003.96-.874 9.455 9.455 0 005.13-6.048c.36-1.319.43-2.702.2-4.052v-29.75a9.442 9.442 0 00-.72-3.857 9.473 9.473 0 00-2.24-3.226 9.443 9.443 0 00-7.26-2.526 9.187 9.187 0 00-.93 0zm119.06 0a9.412 9.412 0 00-7.44 9.609v29.749a9.212 9.212 0 00.22 4.044 9.389 9.389 0 001.89 3.578 9.487 9.487 0 003.23 2.451 9.422 9.422 0 0011.14-2.451 9.55 9.55 0 001.9-3.578c.36-1.316.44-2.696.22-4.044v-29.75a9.473 9.473 0 00-.73-3.862 9.474 9.474 0 00-2.24-3.229 9.498 9.498 0 00-3.37-2.033 9.414 9.414 0 00-3.9-.484 9.347 9.347 0 00-.92 0z" stroke="url(#paint4_linear_176_82)" stroke-width="2" mask="url(#path-1-inside-1_176_82)"/><path d="M1378.19.035a9.412 9.412 0 00-7.44 9.61v188.411a9.364 9.364 0 00.22 4.044 9.393 9.393 0 001.89 3.579 9.484 9.484 0 003.23 2.45c1.24.574 2.59.871 3.96.871a9.49 9.49 0 003.96-.871 9.353 9.353 0 003.22-2.45 9.414 9.414 0 001.9-3.579c.36-1.316.44-2.696.22-4.044V9.644a9.474 9.474 0 00-.73-3.862 9.412 9.412 0 00-5.61-5.263 9.414 9.414 0 00-3.9-.484 9.375 9.375 0 00-.92 0zm-119.06 9.917a9.419 9.419 0 00-5.47 3.445 9.4 9.4 0 00-1.97 6.164V188.14a9.521 9.521 0 00.22 4.044 9.55 9.55 0 001.9 3.578 9.5 9.5 0 003.23 2.451 9.41 9.41 0 007.91 0 9.5 9.5 0 003.23-2.451 9.55 9.55 0 001.9-3.578c.36-1.316.44-2.696.21-4.044V19.56a9.302 9.302 0 00-.72-3.862 9.5 9.5 0 00-2.25-3.229 9.414 9.414 0 00-7.26-2.518 9.584 9.584 0 00-.93 0zm89.29 29.749a9.419 9.419 0 00-5.47 3.445 9.4 9.4 0 00-1.97 6.164v109.081a9.558 9.558 0 00.21 4.052 9.451 9.451 0 001.9 3.588 9.312 9.312 0 003.23 2.46 9.409 9.409 0 007.92 0 9.312 9.312 0 003.23-2.46 9.451 9.451 0 001.9-3.588c.36-1.32.43-2.703.21-4.052V49.31a9.451 9.451 0 00-.73-3.857 9.338 9.338 0 00-2.24-3.227 9.398 9.398 0 00-3.36-2.035 9.399 9.399 0 00-3.89-.49 9.386 9.386 0 00-.94 0zm-119.05 9.916a9.411 9.411 0 00-7.44 9.61v89.247a9.246 9.246 0 00.21 4.052 9.434 9.434 0 001.89 3.589 9.44 9.44 0 0011.16 2.459 9.497 9.497 0 003.23-2.459 9.434 9.434 0 001.89-3.589c.37-1.319.44-2.702.21-4.052V59.227a9.451 9.451 0 00-2.96-7.084 9.444 9.444 0 00-7.26-2.525 9.13 9.13 0 00-.93 0zm59.53 9.917a9.412 9.412 0 00-7.44 9.609v69.415a9.397 9.397 0 00.2 4.052 9.451 9.451 0 005.13 6.048 9.41 9.41 0 003.96.874c1.37 0 2.72-.299 3.97-.874a9.5 9.5 0 003.23-2.46 9.43 9.43 0 002.1-7.64V69.143a9.451 9.451 0 00-.73-3.858 9.338 9.338 0 00-2.24-3.226c-.96-.906-2.1-1.6-3.35-2.035a9.444 9.444 0 00-3.9-.49 9.187 9.187 0 00-.93 0zm119.05 0a9.474 9.474 0 00-5.48 3.445 9.446 9.446 0 00-1.96 6.164v69.415a9.41 9.41 0 002.12 7.622 9.368 9.368 0 003.22 2.451 9.437 9.437 0 007.92 0 9.368 9.368 0 003.22-2.451 9.275 9.275 0 001.9-3.578c.37-1.316.44-2.696.22-4.044V69.143a9.311 9.311 0 00-.73-3.863 9.338 9.338 0 00-2.24-3.229 9.371 9.371 0 00-3.36-2.033 9.48 9.48 0 00-3.91-.484 9.41 9.41 0 00-.92 0zm-208.34 19.833a9.412 9.412 0 00-7.44 9.609v29.749a9.212 9.212 0 00.22 4.044 9.389 9.389 0 001.89 3.578 9.487 9.487 0 003.23 2.451 9.422 9.422 0 007.91 0 9.392 9.392 0 003.23-2.451 9.55 9.55 0 001.9-3.578c.36-1.316.44-2.696.22-4.044v-29.75a9.473 9.473 0 00-.73-3.862 9.474 9.474 0 00-2.24-3.229 9.498 9.498 0 00-3.37-2.033 9.414 9.414 0 00-3.9-.484 9.366 9.366 0 00-.93 0h.01zm119.05 0a9.443 9.443 0 00-5.48 3.445 9.446 9.446 0 00-1.96 6.164v29.749a9.399 9.399 0 00.21 4.052 9.434 9.434 0 001.89 3.589 9.51 9.51 0 003.23 2.459c1.24.575 2.6.874 3.97.874a9.41 9.41 0 003.96-.874 9.51 9.51 0 003.23-2.459 9.434 9.434 0 001.89-3.589c.37-1.319.44-2.702.21-4.052v-29.75a9.288 9.288 0 00-.73-3.857 9.446 9.446 0 00-2.23-3.226 9.443 9.443 0 00-7.26-2.526 9.187 9.187 0 00-.93 0zm119.05 0a9.419 9.419 0 00-5.47 3.445 9.455 9.455 0 00-1.97 6.164v29.749a9.521 9.521 0 00.22 4.044 9.55 9.55 0 001.9 3.578 9.487 9.487 0 003.23 2.451 9.41 9.41 0 007.91 0 9.487 9.487 0 003.23-2.451 9.55 9.55 0 001.9-3.578c.36-1.316.44-2.696.22-4.044v-29.75a9.473 9.473 0 00-.73-3.862 9.474 9.474 0 00-2.24-3.229 9.498 9.498 0 00-3.37-2.033 9.414 9.414 0 00-3.9-.484 9.552 9.552 0 00-.93 0z" stroke="url(#paint5_linear_176_82)" stroke-width="2" mask="url(#path-1-inside-1_176_82)"/></g><defs><linearGradient id="paint0_linear_176_82" x1="-9" y1="104.5" x2="1449" y2="104.5" gradientUnits="userSpaceOnUse"><stop stop-color="#19F7CF"/><stop offset=".496" stop-color="#19F7CF" stop-opacity="0"/><stop offset="1" stop-color="#19F7CF"/></linearGradient><linearGradient id="paint1_linear_176_82" x1="-9" y1="104.5" x2="1449" y2="104.5" gradientUnits="userSpaceOnUse"><stop stop-color="#19F7CF"/><stop offset=".496" stop-color="#19F7CF" stop-opacity="0"/><stop offset="1" stop-color="#19F7CF"/></linearGradient><linearGradient id="paint2_linear_176_82" x1="-9" y1="104.5" x2="1449" y2="104.5" gradientUnits="userSpaceOnUse"><stop stop-color="#19F7CF"/><stop offset=".496" stop-color="#19F7CF" stop-opacity="0"/><stop offset="1" stop-color="#19F7CF"/></linearGradient><linearGradient id="paint3_linear_176_82" x1="-9" y1="104.5" x2="1449" y2="104.5" gradientUnits="userSpaceOnUse"><stop stop-color="#19F7CF"/><stop offset=".496" stop-color="#19F7CF" stop-opacity="0"/><stop offset="1" stop-color="#19F7CF"/></linearGradient><linearGradient id="paint4_linear_176_82" x1="-9" y1="104.5" x2="1449" y2="104.5" gradientUnits="userSpaceOnUse"><stop stop-color="#19F7CF"/><stop offset=".496" stop-color="#19F7CF" stop-opacity="0"/><stop offset="1" stop-color="#19F7CF"/></linearGradient><linearGradient id="paint5_linear_176_82" x1="-9" y1="104.5" x2="1449" y2="104.5" gradientUnits="userSpaceOnUse"><stop stop-color="#19F7CF"/><stop offset=".496" stop-color="#19F7CF" stop-opacity="0"/><stop offset="1" stop-color="#19F7CF"/></linearGradient></defs></svg>