<svg width="147" height="16" fill="none" xmlns="http://www.w3.org/2000/svg"><path d="M16.309 2.021c-.183.02-.443.056-.782.108a2.047 2.047 0 00-.918.38c-.24.177-.413.48-.517.909-.098.423-.147 1.048-.147 1.875v9.902h-1.738L3.574 4.482v6.504c0 .808.052 1.423.156 1.846.111.417.287.723.528.918.176.143.456.27.84.38.384.111.69.186.918.225v.762H.059v-.762a6.39 6.39 0 00.869-.136c.332-.078.608-.196.83-.352.254-.189.426-.472.517-.85.098-.383.147-1.025.147-1.923V4.53c0-.325-.052-.631-.156-.918a1.842 1.842 0 00-.47-.752 2.486 2.486 0 00-.79-.517A4.574 4.574 0 000 2.04v-.78h5.215l7.578 9.375V5.39c0-.834-.055-1.452-.166-1.856-.11-.41-.287-.713-.527-.908-.19-.15-.47-.277-.84-.38a8.107 8.107 0 00-.899-.226v-.76h5.948v.761zm9.141 4.561c.483.45.85.986 1.104 1.611.254.625.381 1.302.381 2.032 0 .722-.127 1.406-.38 2.05a4.431 4.431 0 01-1.095 1.641 5.249 5.249 0 01-1.845 1.123c-.71.26-1.524.39-2.442.39a6.79 6.79 0 01-2.197-.341 5.164 5.164 0 01-1.767-1.025 4.66 4.66 0 01-1.172-1.612c-.287-.644-.43-1.364-.43-2.158 0-.781.124-1.475.371-2.08a4.726 4.726 0 011.133-1.631c.482-.456 1.074-.807 1.777-1.055.71-.254 1.5-.38 2.373-.38.912 0 1.713.126 2.403.38a5.14 5.14 0 011.787 1.055zm-2.5 6.768c.144-.365.248-.808.313-1.329a13.5 13.5 0 00.108-1.816c0-.456-.033-.976-.098-1.562-.065-.586-.163-1.049-.293-1.387-.156-.41-.374-.733-.654-.967-.274-.234-.622-.351-1.045-.351-.462 0-.833.126-1.113.38a2.51 2.51 0 00-.635.987 5.421 5.421 0 00-.283 1.308 14.835 14.835 0 00-.078 1.553c0 .71.022 1.299.068 1.768.045.462.156.927.332 1.396.15.404.364.723.644.957.28.234.635.352 1.065.352.39 0 .726-.108 1.006-.323.28-.22.501-.543.664-.966z" fill="#fff"/><path d="M36.322 7.217c0 .495-.154.93-.46 1.308-.306.371-.71.557-1.21.557-.476 0-.88-.12-1.211-.361-.326-.241-.489-.596-.489-1.065 0-.228.017-.403.05-.527l.087-.361c-.3.013-.615.117-.947.312a3.116 3.116 0 00-.88.781v5.362c0 .227.037.416.108.566a.76.76 0 00.362.352c.143.071.374.133.693.185.326.046.56.072.703.078v.713h-6.533v-.713c.163-.013.325-.029.488-.049.17-.026.313-.058.43-.097.208-.072.351-.182.43-.332.078-.15.117-.345.117-.586V7.656a1.18 1.18 0 00-.166-.625 1.417 1.417 0 00-.4-.449 1.606 1.606 0 00-.45-.195 3.03 3.03 0 00-.586-.108v-.713l4.658-.253.147.146v1.416h.039c.45-.52.924-.928 1.426-1.22.508-.3 1.035-.45 1.582-.45.605 0 1.09.189 1.455.566.37.372.556.853.556 1.446z" fill="#fff"/><path d="M42.67 14.668a11.88 11.88 0 01-1.337.488c-.475.15-1.055.225-1.739.225-1.015 0-1.77-.248-2.265-.742-.488-.495-.733-1.201-.733-2.12V6.524H34.84V5.47h1.797V2.51h3.173v2.96h2.735v1.054H39.83v5.352c0 .762.104 1.302.312 1.621.215.32.596.479 1.143.479.176 0 .42-.013.732-.04.313-.026.531-.055.655-.087v.82z" fill="#fff"/><path d="M54.45 15.117h-5.88v-.713c.13-.013.284-.029.46-.049.175-.02.306-.052.39-.097a.577.577 0 00.283-.313c.06-.136.088-.338.088-.605V8.77c0-.671-.127-1.172-.38-1.504-.248-.332-.603-.498-1.065-.498-.26 0-.504.039-.732.117a2.74 2.74 0 00-.655.342 2.38 2.38 0 00-.459.4c-.11.137-.205.257-.283.361v5.244c0 .241.03.433.088.577.059.136.17.25.332.341.098.059.225.111.381.157.163.045.319.078.469.097v.713h-5.938v-.713c.17-.013.332-.029.489-.049.162-.02.306-.052.43-.097.207-.078.347-.189.42-.332.077-.15.116-.345.116-.586V2.45c0-.208-.048-.43-.146-.664a1.136 1.136 0 00-.41-.527c-.13-.085-.32-.15-.567-.196a4.818 4.818 0 00-.664-.097V.254L46.071 0l.146.156v6.719h.04l.663-.596c.202-.182.446-.364.733-.547.24-.156.553-.29.937-.4.39-.11.81-.166 1.26-.166 1.055 0 1.846.303 2.373.908.534.606.8 1.403.8 2.393v4.785c0 .24.037.433.108.576.072.143.205.257.4.342.118.052.248.098.391.137.144.039.32.071.528.097v.713zm9.796-2.334a5.97 5.97 0 01-.83 1.055 4.982 4.982 0 01-1.094.84 5.823 5.823 0 01-1.328.556c-.443.13-.954.196-1.533.196-.964 0-1.797-.137-2.5-.41-.697-.274-1.273-.642-1.729-1.104a4.478 4.478 0 01-1.025-1.63 6.16 6.16 0 01-.332-2.052A5.104 5.104 0 0155.281 6.7c.443-.462 1-.836 1.67-1.123.677-.286 1.432-.43 2.266-.43.911 0 1.66.111 2.246.333a3.97 3.97 0 011.455.917c.371.372.641.811.81 1.319a4.91 4.91 0 01.254 1.582v.635h-6.601c0 1.334.257 2.35.771 3.046.515.697 1.332 1.045 2.451 1.045.612 0 1.163-.166 1.65-.498a4.775 4.775 0 001.25-1.279l.743.537zm-3.73-3.71c0-.391-.02-.792-.059-1.202-.039-.41-.107-.745-.205-1.006-.11-.306-.264-.537-.459-.693-.189-.156-.43-.234-.723-.234-.501 0-.901.253-1.2.761-.3.508-.463 1.312-.49 2.412l3.136-.039z" fill="#fff"/><path d="M73.32 7.217c0 .495-.153.93-.46 1.308-.305.371-.709.557-1.21.557-.475 0-.879-.12-1.21-.361-.326-.241-.49-.596-.49-1.065 0-.228.017-.403.05-.527l.088-.361c-.3.013-.616.117-.948.312a3.116 3.116 0 00-.879.781v5.362c0 .227.036.416.108.566.071.15.192.267.361.352.143.071.374.133.693.185.326.046.56.072.704.078v.713h-6.534v-.713c.163-.013.326-.029.489-.049.169-.026.312-.058.43-.097.208-.072.35-.182.429-.332.078-.15.117-.345.117-.586V7.656a1.18 1.18 0 00-.166-.625 1.419 1.419 0 00-.4-.449 1.605 1.605 0 00-.45-.195 3.03 3.03 0 00-.585-.108v-.713l4.658-.253.146.146v1.416h.04c.449-.52.924-.928 1.425-1.22.508-.3 1.035-.45 1.582-.45.606 0 1.09.189 1.455.566.371.372.557.853.557 1.446z" fill="#fff"/><path d="M85.294 15.117h-5.879v-.713l.45-.049c.175-.02.309-.052.4-.097a.621.621 0 00.293-.313c.058-.136.088-.338.088-.605V8.77c0-.665-.124-1.163-.371-1.495-.241-.338-.6-.507-1.075-.507-.26 0-.504.039-.732.117a2.74 2.74 0 00-.654.342 2.38 2.38 0 00-.46.4c-.11.137-.204.257-.282.361v5.244c0 .228.032.42.097.577.065.15.173.263.322.341a1.9 1.9 0 00.391.157c.156.045.31.078.459.097v.713h-5.938v-.713c.163-.013.326-.029.489-.049.17-.026.312-.058.43-.097.208-.072.351-.182.43-.332.077-.15.116-.345.116-.586V7.656c0-.202-.052-.4-.156-.595a1.397 1.397 0 00-.41-.479 1.606 1.606 0 00-.45-.195 3.03 3.03 0 00-.585-.108v-.713l4.658-.253.147.146v1.416h.038c.183-.163.404-.358.665-.586.26-.228.5-.413.722-.557.241-.156.557-.29.948-.4.39-.11.807-.166 1.25-.166 1.06 0 1.855.303 2.382.908.534.6.801 1.397.801 2.393v4.785c0 .24.036.433.108.576.071.143.205.257.4.342a2.924 2.924 0 00.908.234v.713zm25.13-13.076c-.202.02-.403.065-.605.137a3.63 3.63 0 00-.596.254c-.299.169-.514.354-.644.556a4.032 4.032 0 00-.342.733c-.358.99-.912 2.575-1.66 4.756-.743 2.18-1.517 4.446-2.325 6.796h-1.963L98.627 4.971l-3.3 10.302h-1.963c-1.088-3.164-1.92-5.599-2.5-7.304-.58-1.712-1.068-3.148-1.465-4.307-.124-.351-.264-.605-.42-.762a3.517 3.517 0 00-.606-.488 1.845 1.845 0 00-.566-.254 4.219 4.219 0 00-.684-.137V1.26h7.393v.742a9.072 9.072 0 00-.977.156 2.916 2.916 0 00-.507.147c-.117.052-.19.107-.215.166a.393.393 0 00-.04.156c0 .091.01.179.03.264.026.084.052.182.078.293.156.507.472 1.471.947 2.89.476 1.42 1.062 3.18 1.758 5.283L98.744 1.26h2.071l3.662 10.41c.54-1.673.97-3.04 1.289-4.102.326-1.06.599-1.969.82-2.724.131-.462.235-.85.313-1.162a3.42 3.42 0 00.117-.81c0-.138-.065-.255-.195-.352a1.679 1.679 0 00-.508-.254 3.745 3.745 0 00-.713-.137c-.286-.04-.537-.068-.752-.088V1.26h5.576v.781zM119 6.582c.482.45.85.986 1.104 1.611.253.625.38 1.302.38 2.032 0 .722-.127 1.406-.38 2.05a4.437 4.437 0 01-1.094 1.641 5.258 5.258 0 01-1.846 1.123c-.71.26-1.523.39-2.441.39a6.793 6.793 0 01-2.198-.341 5.16 5.16 0 01-1.767-1.025 4.652 4.652 0 01-1.172-1.612c-.287-.644-.43-1.364-.43-2.158 0-.781.124-1.475.371-2.08a4.732 4.732 0 011.133-1.631c.482-.456 1.074-.807 1.778-1.055.709-.254 1.5-.38 2.373-.38.911 0 1.712.126 2.402.38A5.138 5.138 0 01119 6.582zm-2.5 6.768c.143-.365.247-.808.312-1.329.072-.52.108-1.126.108-1.816 0-.456-.033-.976-.098-1.562-.065-.586-.162-1.049-.293-1.387-.156-.41-.374-.733-.654-.967-.273-.234-.622-.351-1.045-.351-.462 0-.833.126-1.113.38a2.506 2.506 0 00-.635.987 5.403 5.403 0 00-.283 1.308 14.863 14.863 0 00-.078 1.553c0 .71.022 1.299.068 1.768.046.462.156.927.332 1.396.15.404.365.723.645.957.28.234.634.352 1.064.352.391 0 .726-.108 1.006-.323.28-.22.501-.543.664-.966z" fill="#fff"/><path d="M129.871 7.217c0 .495-.153.93-.459 1.308-.306.371-.71.557-1.211.557-.475 0-.879-.12-1.211-.361-.326-.241-.488-.596-.488-1.065 0-.228.016-.403.048-.527.033-.13.062-.25.088-.361-.299.013-.615.117-.947.312a3.118 3.118 0 00-.879.781v5.362c0 .227.036.416.108.566.071.15.192.267.361.352.143.071.374.133.693.185.326.046.56.072.703.078v.713h-6.533v-.713c.163-.013.326-.029.488-.049a2.64 2.64 0 00.43-.097c.208-.072.352-.182.43-.332.078-.15.117-.345.117-.586V7.656a1.18 1.18 0 00-.166-.625 1.424 1.424 0 00-.4-.449 1.612 1.612 0 00-.45-.195 3.018 3.018 0 00-.586-.108v-.713l4.659-.253.146.146v1.416h.039c.449-.52.925-.928 1.426-1.22.508-.3 1.035-.45 1.582-.45.605 0 1.09.189 1.455.566.371.372.557.853.557 1.446z" fill="#fff"/><path d="M134.902 15.117h-6.123v-.713a9.7 9.7 0 00.488-.049c.163-.02.306-.052.429-.097.209-.078.349-.189.42-.332.079-.15.118-.345.118-.586V2.52c0-.248-.052-.476-.157-.684a1.112 1.112 0 00-.4-.488c-.13-.085-.329-.166-.596-.244a3.152 3.152 0 00-.693-.137V.254L133.3 0l.146.156v13.057c0 .24.043.436.127.586.085.15.222.267.411.351.13.059.267.111.41.157.143.045.312.078.508.097v.713z" fill="#fff"/><path d="M146.876 14.912l-4.815.283-.146-.136v-.899l-.069-.02c-.319.346-.751.648-1.298.909a3.829 3.829 0 01-1.641.38c-1.315 0-2.399-.488-3.252-1.464-.853-.977-1.279-2.24-1.279-3.79 0-1.373.475-2.551 1.426-3.534.957-.983 2.112-1.475 3.466-1.475.534 0 1.036.062 1.504.186.469.117.843.257 1.123.42V2.577c0-.24-.049-.465-.146-.674a1.218 1.218 0 00-.391-.498 1.93 1.93 0 00-.762-.302 7.091 7.091 0 00-.908-.137V.254L144.962 0l.146.156V12.96c0 .247.039.456.117.625.085.17.218.303.401.4.136.072.335.124.595.157.267.032.486.052.655.058v.713zm-4.981-1.738V7.656a3.747 3.747 0 00-.195-.498 1.943 1.943 0 00-.332-.517 1.745 1.745 0 00-.527-.362 1.66 1.66 0 00-.733-.156c-.651 0-1.185.368-1.601 1.104-.417.735-.625 1.774-.625 3.115 0 .527.035 1.002.107 1.426.078.416.212.797.4 1.142.189.345.43.615.723.81.3.196.658.294 1.074.294.397 0 .726-.075.987-.225.26-.156.501-.361.722-.615z" fill="#fff"/></svg>