<svg xmlns="http://www.w3.org/2000/svg" width="165.433" height="53.48" viewBox="0 0 38.35 12.4" shape-rendering="geometricPrecision" text-rendering="geometricPrecision" image-rendering="optimizeQuality" fill-rule="evenodd" clip-rule="evenodd"><defs><style>.fil0{fill-rule:nonzero;fill:#19f7ce}</style></defs><g id="Layer_x0020_1"><g id="_2637840115552"><path class="fil0" d="M3.15 6.2c0-.8.3-1.53.84-2.09.52-.53 1.25-.92 2.17-.92.69 0 1.24.2 1.74.55.5.35.85.83 1.09 1.41-.1-.23-.23-.45-.39-.64-.16-.2-.51-.56-.93-.79-.84-.45-1.92-.47-2.83.14-.58.4-.96 1.02-1.08 1.63-.12.63 0 1.23.27 1.72.56.96 1.56 1.27 2.33 1.17.72-.09 1.12-.4 1.38-.56.25-.14.38-.16.5-.11.08.06.15.13.26.11.09-.03.17-.09.22-.17.15-.24.28-.48.36-.76-.18.67-.53 1.23-1.05 1.65-.53.4-1.18.66-1.87.66-.77 0-1.5-.27-2.09-.84a3.26 3.26 0 01-.68-.98c-.17-.39-.24-.76-.24-1.18z"/><path class="fil0" d="M0 6.2c0-1.65.61-3.14 1.73-4.3C2.79.8 4.3 0 6.19 0 7.6 0 8.74.41 9.77 1.13c1.03.72 1.76 1.72 2.24 2.9-.21-.49-.47-.92-.81-1.33-.34-.4-1.05-1.16-1.92-1.62-1.73-.92-3.96-.97-5.82.29-1.19.83-1.98 2.09-2.22 3.37-.25 1.29.01 2.54.57 3.55 1.15 1.99 3.21 2.61 4.81 2.41 1.48-.18 2.3-.83 2.85-1.15.52-.3.78-.34 1.04-.23.17.13.3.25.54.23.18-.01.34-.17.45-.34.32-.49.58-.99.74-1.56-.37 1.37-1.09 2.53-2.16 3.4-1.1.83-2.44 1.35-3.86 1.35-1.58 0-3.09-.56-4.3-1.73-.58-.56-1.1-1.32-1.4-2.02-.34-.81-.5-1.57-.5-2.44z"/><path d="M4.26 6.2c0-1.03.83-1.86 1.86-1.86 1.03 0 1.86.83 1.86 1.86 0 1.03-.83 1.86-1.86 1.86-1.03 0-1.86-.83-1.86-1.86z" fill="#041310" fill-rule="nonzero"/><path d="M10.51 7.54h-.77V3.95h.72l1.67 2.35c-.01-.15-.02-.31-.02-.49V3.96h.77v3.59h-.72L10.49 5.2c.01.15.02.31.02.49v1.85zm3.07-1.09a2.06 2.06 0 01-.12-.7c0-.25.04-.48.12-.7.08-.22.2-.42.35-.6.16-.17.36-.31.6-.42.25-.1.52-.15.83-.15.31 0 .59.05.83.15.25.1.45.24.6.42.16.17.27.37.35.6.08.22.12.46.12.7 0 .25-.04.48-.12.7-.08.22-.2.42-.35.6-.16.17-.36.31-.6.42-.25.1-.52.15-.83.15-.31 0-.59-.05-.83-.15-.25-.1-.45-.24-.6-.42-.16-.17-.27-.37-.35-.6zm2.62.12c.2-.22.29-.49.29-.83 0-.33-.1-.61-.29-.83-.2-.22-.47-.33-.83-.33s-.64.11-.83.33c-.2.22-.29.49-.29.83 0 .33.1.61.29.83.2.22.47.33.83.33s.63-.11.83-.33zm2.42.97h-.77V3.95h1.48c.19 0 .36.02.52.06.16.04.31.1.45.18.14.09.25.21.33.36.08.16.12.35.12.56 0 .54-.26.9-.79 1.07l1.07 1.36h-.89l-.97-1.26h-.56v1.26zm0-2.92v1.02h.74c.17 0 .32-.04.43-.13.11-.08.17-.21.17-.38s-.06-.3-.17-.39a.74.74 0 00-.44-.12h-.74zm2.44-.68h2.97v.69h-1.1v2.9h-.76v-2.9h-1.1v-.69zm5.81 0h.77v3.59h-.77V6.08h-1.61v1.45h-.77V3.94h.77v1.45h1.61V3.94zm1.54 0h2.53v.68h-2.53v-.68zm.77 1.44h1.61v.67h-2.38v-.67h.77zm0 1.47h1.79v.68h-2.56v-.68h.77zm3.17.68h-.77V3.94h1.48c.19 0 .36.02.52.06.16.04.31.1.45.18.14.09.25.21.33.36.08.16.12.35.12.56 0 .54-.26.9-.79 1.07l1.07 1.36h-.89l-.97-1.26h-.56v1.26zm0-2.92v1.02h.74c.17 0 .32-.04.43-.13.11-.08.17-.21.17-.38s-.06-.3-.17-.39a.74.74 0 00-.44-.12h-.74zm3.62 2.92h-.77V3.94h.72l1.67 2.35c-.01-.15-.02-.31-.02-.49V3.95h.77v3.59h-.72l-1.67-2.35c.01.15.02.31.02.49v1.85zm-3.94.74h.34l-.45 1.47h-.34l-.29-1-.29 1h-.34l-.45-1.47h.34l.29 1.11.32-1.11h.28l.32 1.11.29-1.11zm.45 1.02a.93.93 0 01-.05-.29c0-.1.02-.2.05-.29a.652.652 0 01.39-.41c.1-.04.21-.06.34-.06.13 0 .24.02.34.06.1.04.18.1.25.17.06.07.11.15.14.24.03.09.05.19.05.29 0 .1-.02.2-.05.29a.652.652 0 01-.39.41c-.1.04-.21.06-.34.06-.13 0-.24-.02-.34-.06-.1-.04-.18-.1-.25-.17a.722.722 0 01-.14-.24zm1.07.05c.08-.09.12-.2.12-.34s-.04-.25-.12-.34c-.08-.09-.19-.13-.34-.13-.15 0-.26.04-.34.13-.08.09-.12.2-.12.34s.04.25.12.34c.08.09.19.13.34.13.15 0 .26-.04.34-.13zm.99.4h-.31V8.27h.6c.08 0 .15.01.21.02.06.02.13.04.18.08.06.03.1.08.14.15.03.06.05.14.05.23 0 .22-.11.37-.32.44l.44.55h-.36l-.4-.51h-.23v.51zm0-1.19v.41h.3c.07 0 .13-.02.18-.05.05-.03.07-.09.07-.16s-.02-.12-.07-.16a.345.345 0 00-.18-.05h-.3zm1.16-.28h.31v1.18h.72v.28H35.7V8.26zm1.22 0h.55c.25 0 .44.07.57.2.13.13.2.31.2.53 0 .22-.07.4-.2.53s-.32.2-.57.2h-.55V8.26zm.88 1.07c.08-.08.11-.19.11-.34 0-.15-.04-.26-.11-.34a.446.446 0 00-.33-.12h-.23v.91h.23c.15 0 .26-.04.33-.12z" fill="#373435" fill-rule="nonzero"/></g></g></svg>