<svg width="159" height="55" fill="none" xmlns="http://www.w3.org/2000/svg"><path d="M13.645 27.445c0-3.46 1.28-6.58 3.626-9 2.23-2.308 5.375-3.981 9.342-3.981 2.954 0 5.338.862 7.493 2.37 2.155 1.509 3.676 3.588 4.677 6.073a10.612 10.612 0 00-1.698-2.776c-.71-.837-2.194-2.422-4.019-3.398-3.613-1.927-8.29-2.028-12.183.608-2.484 1.737-4.132 4.374-4.652 7.049-.532 2.713.013 5.311 1.18 7.429 2.395 4.158 6.73 5.463 10.064 5.058 3.094-.38 4.818-1.737 5.959-2.396 1.077-.621 1.635-.71 2.168-.495.354.267.659.558 1.14.47.38-.127.71-.38.951-.71.66-1.015 1.205-2.067 1.547-3.259-.773 2.878-2.282 5.3-4.526 7.112-2.294 1.737-5.109 2.827-8.088 2.827-3.309 0-6.465-1.166-9-3.625-1.217-1.167-2.308-2.764-2.929-4.222a12.504 12.504 0 01-1.052-5.109v-.025z" fill="#19F7CE"/><path d="M.055 27.458c0-7.137 2.65-13.564 7.467-18.559C12.11 4.145 18.602.697 26.778.697c6.098 0 10.991 1.775 15.428 4.88 4.437 3.107 7.593 7.404 9.647 12.513a22.435 22.435 0 00-3.486-5.717c-1.458-1.737-4.513-4.995-8.278-6.998C32.635 1.407 23 1.205 14.963 6.63c-5.121 3.588-8.531 9.026-9.596 14.528-1.09 5.59.025 10.953 2.446 15.3 4.957 8.57 13.869 11.258 20.753 10.409 6.389-.786 9.926-3.575 12.284-4.944 2.23-1.293 3.384-1.458 4.474-1.015.736.558 1.294 1.078 2.346.977.786-.038 1.47-.736 1.952-1.47 1.37-2.105 2.485-4.26 3.182-6.72-1.585 5.92-4.716 10.915-9.33 14.642-4.741 3.575-10.535 5.832-16.658 5.832-6.807 0-13.31-2.409-18.559-7.467-2.497-2.409-4.754-5.705-6.034-8.71C.74 34.508.055 31.212.055 27.459z" fill="#19F7CE"/><path d="M18.424 27.433a8.013 8.013 0 1116.025.001 8.013 8.013 0 01-16.025-.001z" fill="#fff"/><path fill-rule="evenodd" clip-rule="evenodd" d="M143.304 36.003h1.331v6.693h-1.432v-4.12l-1.775 2.688h-.836l-1.775-2.7v4.132h-1.433v-6.693h1.331l2.295 3.486 2.282-3.486h.012zm8.633 6.693h-1.432v-3.448c0-.342.013-.647.025-.913l-3.118 4.374h-1.344v-6.694h1.432v3.448c0 .343-.012.647-.025.913l3.119-4.373h1.343v6.693zm1.433-6.693h2.523c1.926 0 2.89.748 2.89 2.243 0 1.496-.964 2.244-2.89 2.244h-1.091v2.206h-1.432v-6.693zm2.599 3.232c.9 0 1.356-.33 1.356-.989s-.456-.988-1.356-.988h-1.154v1.964h1.154v.013zM42.041 25.9c0-1.28.228-2.434.685-3.46.456-1.028 1.052-1.839 1.8-2.46a8.207 8.207 0 012.497-1.395 8.8 8.8 0 012.89-.469c1.534 0 2.929.317 4.184.939v2.991c-.99-.76-2.206-1.153-3.664-1.153-1.42 0-2.637.418-3.65 1.267-1.015.85-1.522 2.092-1.522 3.74 0 .786.152 1.47.444 2.08.291.608.684 1.09 1.179 1.457.494.367 1.04.634 1.648.824a6.31 6.31 0 001.888.279c1.623 0 2.878-.406 3.765-1.217v3.08c-1.293.634-2.712.938-4.246.938a9.193 9.193 0 01-2.89-.456 8.195 8.195 0 01-2.523-1.344c-.76-.583-1.37-1.369-1.826-2.345-.456-.976-.684-2.079-.684-3.309l.025.013zm14.49-7.492h10.306v2.764h-3.74v-.153h-6.579v-2.611h.013zm3.13 5.882h6.542v2.738h-9.672V24.29h3.13zm0 6.009h7.303v2.764H56.53v-2.764h3.13zm9.762-11.878h6.402c1.61 0 2.852.304 3.74.925.887.621 1.33 1.547 1.33 2.776 0 1.636-.734 2.7-2.218 3.195.812.24 1.483.646 2.003 1.242.533.596.799 1.395.799 2.396 0 .799-.177 1.47-.52 2.041-.342.57-.824.989-1.407 1.268a8.132 8.132 0 01-1.825.608c-.622.127-1.28.19-2.003.19h-6.3V18.42zm8.912 10.205c0-1.255-.824-1.877-2.485-1.877h-3.308v3.765h3.13c.825 0 1.471-.126 1.94-.393.47-.266.71-.76.71-1.483l.013-.012zm-.57-5.959c0-1.115-.736-1.673-2.219-1.673h-2.992v3.347h3.157c.608 0 1.103-.14 1.483-.431.38-.292.57-.697.57-1.243zm6.021-4.246h10.306v2.763H83.787V18.42zm3.131 5.882h6.542v2.738h-9.672v-2.738h3.13zm0 6.009h7.303v2.763H83.785v-2.763h3.131zm9.762-11.879h5.527c4.208 0 6.313 1.636 6.313 4.919 0 3.27-2.105 4.919-6.313 4.919h-2.383v4.804H96.69V18.432h-.012zm5.666 7.074c1.978 0 2.967-.723 2.967-2.155s-.989-2.155-2.967-2.155H99.81v4.31h2.535zm17.989-7.074h3.131v14.642h-3.131V27.18h-6.567v5.895h-3.131V18.432h3.131v5.895h6.567v-5.895zm11.802 14.642h-5.527V18.432h3.131v4.805h2.383c4.209.025 6.313 1.66 6.313 4.919 0 3.27-2.104 4.918-6.313 4.918h.013zm-2.383-7.073v4.31h2.535c1.978 0 2.967-.723 2.967-2.155 0-1.433-.989-2.155-2.967-2.155h-2.535zm13.032 7.073h-3.132V18.432h3.132v14.642zm12.841 0h3.132V18.432h-2.954l-6.82 9.559c.038-.609.063-1.28.063-2.003v-7.556h-3.131v14.642h2.954l6.82-9.558a31.47 31.47 0 00-.064 2.003v7.555zm0-16.607c-.887.622-1.99.939-3.283.939-1.28 0-2.371-.317-3.258-.939v-2.281c.964.595 2.054.9 3.258.9 1.23 0 2.32-.305 3.283-.9v2.281z" fill="#FEFEFE"/></svg>