<svg viewBox="0 0 800 800" xmlns="http://www.w3.org/2000/svg" xmlns:xlink="http://www.w3.org/1999/xlink"><style>:root&gt;svg{display:none}:root&gt;svg:target{display:block}</style><svg viewBox="0 0 846.66 846.66" id="job" xmlns="http://www.w3.org/2000/svg"><path d="M30.88 111.05h784.9c11.4 0 20.64 9.24 20.64 20.64v583.28c0 11.4-9.24 20.64-20.64 20.64H30.88c-11.4 0-20.64-9.24-20.64-20.64V131.69c0-11.4 9.24-20.64 20.64-20.64zm146.05 288.17c0 27.16-41.29 27.16-41.29 0 0-32.49 15.12-63.05 40.68-82.92a82.067 82.067 0 01-4.48-7.04 78.471 78.471 0 01-10.12-38.63c0-43.57 35.32-78.89 78.89-78.89 43.56 0 78.89 35.32 78.89 78.89 0 16.39-5.09 32.34-14.61 45.67 25.57 19.87 40.69 50.43 40.69 82.92 0 27.16-41.29 27.16-41.29 0 0-23.44-12.59-44.7-33.14-55.92-9.59 4.06-20.13 6.22-30.54 6.22s-20.96-2.16-30.55-6.22c-20.54 11.22-33.13 32.48-33.13 55.92zm-55.14 91.99h237.63c11.4 0 20.65 9.25 20.65 20.65v122.41c0 11.4-9.25 20.65-20.65 20.65H121.79c-11.4 0-20.64-9.25-20.64-20.65V511.86c0-11.4 9.24-20.65 20.64-20.65zm216.99 41.29H142.44v81.13h196.34V532.5zm-98.17-299.47c-20.77 0-37.6 16.83-37.6 37.6 0 21.09 16.9 37.6 37.6 37.6 20.72 0 37.6-16.69 37.6-37.6 0-20.77-16.84-37.6-37.6-37.6zm183.62 29.12c-27.15 0-27.15-41.29 0-41.29h300.64c27.15 0 27.15 41.29 0 41.29H424.23zm46.81 363.65c-27.16 0-27.16-41.3 0-41.3h253.83c27.15 0 27.15 41.3 0 41.3H471.04zm-46.81-272.74c-27.15 0-27.15-41.29 0-41.29h300.64c27.15 0 27.15 41.29 0 41.29H424.23zm46.81 90.91c-27.16 0-27.16-41.29 0-41.29h253.83c27.15 0 27.15 41.29 0 41.29H471.04zm0 90.92c-27.16 0-27.16-41.3 0-41.3h253.83c27.15 0 27.15 41.3 0 41.3H471.04zm324.09-382.55H51.53v541.98h743.6V152.34z" id="aLayer_x0020_1" fill="#000" fill-rule="nonzero"/></svg><svg viewBox="0 0 24 24" id="load" xmlns="http://www.w3.org/2000/svg"><path d="M18.222 6.375h-.598C16.53 4.33 14.34 3 11.95 3 9.66 3 7.57 4.33 6.376 6.375h-.598C3.19 6.375 1 8.625 1 11.386c0 2.762 2.19 4.91 4.878 4.91h2.588c.597 0 .996-.41.996-1.023 0-.614-.399-1.023-.996-1.023H5.878c-1.593 0-2.887-1.33-2.887-2.864 0-1.534 1.294-2.966 2.887-2.966.298 0 .597 0 .796.103.498.204.996-.103 1.195-.614.697-1.739 2.29-2.864 4.18-2.864 1.892 0 3.485 1.125 4.182 2.864.199.511.697.716 1.194.614.299-.103.498-.103.797-.103 1.592 0 2.887 1.33 2.887 2.966 0 1.637-1.295 2.864-2.887 2.864h-5.177v-3.068l.996 1.022c.199.205.498.307.697.307.199 0 .497-.102.696-.306a1.007 1.007 0 000-1.432l-2.787-2.864c-.1-.102-.199-.204-.299-.204-.199-.103-.497-.103-.796 0-.1.102-.2.102-.299.204l-2.687 2.864c-.399.409-.399 1.125 0 1.431.398.307.995.41 1.393 0l.996-1.022v8.795c0 .614.398 1.023.995 1.023.598 0 .996-.41.996-1.023v-3.681h5.176c2.688 0 4.878-2.25 4.878-5.012 0-2.761-2.09-4.909-4.778-4.909z"/></svg><svg viewBox="0 0 64 108" id="main-title" xmlns="http://www.w3.org/2000/svg"><rect width="64" height="108" rx="32" fill-opacity=".12"/><path d="M32 30v28.133c-1.573-.906-3.387-1.466-5.333-1.466C20.773 56.667 16 61.44 16 67.333A10.663 10.663 0 0026.667 78c5.893 0 10.666-4.773 10.666-10.667V40.667H48V30H32zm-5.333 42.667c-2.934 0-5.334-2.4-5.334-5.334 0-2.933 2.4-5.333 5.334-5.333C29.6 62 32 64.4 32 67.333c0 2.934-2.4 5.334-5.333 5.334z"/></svg></svg>