<svg width="192" height="192" viewBox="0 0 192 192" fill="none" xmlns="http://www.w3.org/2000/svg">
<g clip-path="url(#clip0_2050_268)">
<path d="M192 0H0V192H192V0Z" fill="#CBF84D"/>
<path d="M40.8925 145.156L45.239 141.262H46.3756L41.3253 145.81V148.224H40.4601V145.81L35.3994 141.262H36.5463L40.8925 145.156ZM46.7658 144.753V144.743C46.7658 143.59 47.101 142.718 47.7719 142.127C48.4423 141.53 49.4215 141.232 50.7095 141.232H54.8544C56.1423 141.232 57.1215 141.53 57.7923 142.127C58.4628 142.718 58.7984 143.59 58.7984 144.743V144.753C58.7984 145.9 58.4628 146.772 57.7923 147.369C57.1215 147.959 56.1423 148.255 54.8544 148.255H50.7095C49.4215 148.255 48.4423 147.959 47.7719 147.369C47.101 146.772 46.7658 145.9 46.7658 144.753ZM47.6006 144.753C47.6006 145.659 47.8556 146.343 48.3651 146.806C48.8751 147.262 49.6565 147.49 50.7095 147.49H54.8544C55.9008 147.49 56.6787 147.262 57.1887 146.806C57.6983 146.343 57.9532 145.659 57.9532 144.753V144.743C57.9532 143.838 57.6983 143.153 57.1887 142.691C56.6787 142.228 55.9008 141.996 54.8544 141.996H50.7095C49.6565 141.996 48.8751 142.228 48.3651 142.691C47.8556 143.153 47.6006 143.838 47.6006 144.743V144.753ZM60.0787 144.753V144.743C60.0787 143.59 60.4105 142.718 61.0744 142.127C61.7452 141.53 62.7244 141.232 64.0124 141.232H67.9964C68.7409 141.232 69.3646 141.296 69.8676 141.423C70.3776 141.544 70.8134 141.775 71.1755 142.117L70.6625 142.721C70.3607 142.433 69.9916 142.241 69.5558 142.147C69.1265 142.047 68.6065 141.996 67.9964 141.996H64.0124C62.9859 141.996 62.2114 142.228 61.6884 142.691C61.1719 143.147 60.9135 143.831 60.9135 144.743V144.753C60.9135 145.665 61.1719 146.35 61.6884 146.806C62.2114 147.262 62.9859 147.49 64.0124 147.49H67.9964C68.6135 147.49 69.1365 147.439 69.5658 147.339C70.0016 147.238 70.3672 147.047 70.6625 146.765L71.1755 147.369C70.8268 147.704 70.3941 147.936 69.8776 148.063C69.368 148.191 68.7409 148.255 67.9964 148.255H64.0124C62.7244 148.255 61.7452 147.959 61.0744 147.369C60.4105 146.772 60.0787 145.9 60.0787 144.753ZM72.713 141.262H73.5782V144.391H82.5423V141.262H83.4078V148.224H82.5423V145.146H73.5782V148.224H72.713V141.262ZM85.314 147.721C85.314 147.547 85.3847 147.402 85.5252 147.288C85.673 147.174 85.8743 147.118 86.1289 147.118C86.3838 147.118 86.585 147.174 86.7325 147.288C86.8803 147.402 86.9541 147.547 86.9541 147.721C86.9541 147.902 86.8803 148.05 86.7325 148.164C86.585 148.278 86.3838 148.335 86.1289 148.335C85.8743 148.335 85.673 148.278 85.5252 148.164C85.3847 148.05 85.314 147.902 85.314 147.721ZM93.5139 141.262H94.3388L99.641 148.224H98.6953L97.3674 146.464H90.4957L89.1678 148.224H88.222L93.5139 141.262ZM96.854 145.779L93.9363 141.967L91.0087 145.779H96.854ZM104.256 141.232H108.331C108.726 141.232 109.089 141.245 109.417 141.272C109.746 141.299 110.044 141.349 110.313 141.423C110.581 141.49 110.822 141.581 111.037 141.695C111.252 141.802 111.45 141.943 111.631 142.117L111.118 142.721C110.822 142.433 110.45 142.241 110.001 142.147C109.558 142.047 109.001 141.996 108.331 141.996H104.256C103.216 141.996 102.435 142.228 101.912 142.691C101.389 143.147 101.127 143.831 101.127 144.743V144.753C101.127 145.659 101.386 146.343 101.902 146.806C102.425 147.262 103.2 147.49 104.226 147.49H108.21C108.572 147.49 108.918 147.47 109.246 147.429C109.575 147.389 109.867 147.315 110.122 147.208C110.383 147.094 110.598 146.943 110.766 146.755C110.933 146.568 111.03 146.33 111.057 146.041V145.438H107.818V144.763H111.812V148.224H111.289L111.228 147.057C111.121 147.299 110.967 147.497 110.766 147.651C110.564 147.805 110.33 147.929 110.061 148.023C109.8 148.11 109.511 148.17 109.196 148.204C108.881 148.238 108.549 148.255 108.2 148.255H104.216C102.928 148.255 101.952 147.959 101.288 147.369C100.624 146.772 100.292 145.9 100.292 144.753V144.743C100.292 143.596 100.628 142.724 101.298 142.127C101.969 141.53 102.955 141.232 104.256 141.232ZM123.001 141.262V141.996H114.45V144.411H122.498V145.125H114.45V147.49H123.001V148.224H113.614V141.262H123.001ZM134.266 141.262H135.131V148.224H134.246L125.523 142.258V148.224H124.667V141.262H125.543L134.266 147.218V141.262ZM136.812 144.753V144.743C136.812 143.59 137.144 142.718 137.808 142.127C138.478 141.53 139.458 141.232 140.746 141.232H144.73C145.474 141.232 146.098 141.296 146.601 141.423C147.111 141.544 147.547 141.775 147.909 142.117L147.396 142.721C147.094 142.433 146.725 142.241 146.289 142.147C145.86 142.047 145.34 141.996 144.73 141.996H140.746C139.719 141.996 138.945 142.228 138.422 142.691C137.905 143.147 137.647 143.831 137.647 144.743V144.753C137.647 145.665 137.905 146.35 138.422 146.806C138.945 147.262 139.719 147.49 140.746 147.49H144.73C145.347 147.49 145.87 147.439 146.299 147.339C146.735 147.238 147.101 147.047 147.396 146.765L147.909 147.369C147.56 147.704 147.127 147.936 146.611 148.063C146.101 148.191 145.474 148.255 144.73 148.255H140.746C139.458 148.255 138.478 147.959 137.808 147.369C137.144 146.772 136.812 145.9 136.812 144.753ZM154.175 145.156L158.521 141.262H159.658L154.608 145.81V148.224H153.742V145.81L148.682 141.262H149.829L154.175 145.156Z" fill="black"/>
<mask id="mask0_2050_268" style="mask-type:luminance" maskUnits="userSpaceOnUse" x="32" y="51" width="128" height="79">
<path d="M159.744 51.0718H32.2559V129.578H159.744V51.0718Z" fill="white"/>
</mask>
<g mask="url(#mask0_2050_268)">
<path d="M116.831 51.0952C112.94 51.2484 109.825 51.9412 107.136 53.2502C105.443 54.0762 104.117 55.0255 102.868 56.3111C101.392 57.8233 100.339 59.562 99.6231 61.6468C98.8766 63.8287 98.5502 66.15 98.6002 68.8913C98.6366 70.7864 98.8267 72.292 99.2265 73.8707C100.499 78.8634 103.834 82.4642 108.885 84.3059C111.171 85.1388 113.719 85.5919 116.781 85.7117C117.914 85.7551 140.323 85.7551 141.453 85.7117C144.321 85.5984 146.64 85.2152 148.816 84.4959C149.749 84.1895 150.252 83.9864 151.081 83.5832C152.724 82.7837 154.026 81.8748 155.216 80.692C157.755 78.1642 159.147 74.9766 159.581 70.7234C159.65 70.0272 159.68 67.679 159.63 66.8596C159.307 61.6836 157.448 57.7699 154.013 55.0489C150.961 52.6305 146.937 51.3448 141.686 51.1052C141.049 51.0753 117.551 51.0653 116.831 51.0952ZM142.335 58.3763C144.001 58.5594 145.194 58.8259 146.284 59.2556C148.333 60.0616 149.785 61.3738 150.698 63.2458C150.995 63.8486 151.151 64.2549 151.315 64.8378C151.931 67.0228 151.914 70.0138 151.278 72.1154C150.611 74.3172 149.309 75.9727 147.417 77.0248C145.92 77.8577 144.011 78.3339 141.569 78.484C140.803 78.5305 117.481 78.5305 116.705 78.484C113.983 78.3174 111.867 77.7145 110.285 76.652C109.581 76.1789 108.932 75.566 108.429 74.8932C107.433 73.5742 106.866 72.052 106.63 70.0671C106.546 69.3644 106.546 67.4824 106.63 66.7763C106.799 65.3574 107.079 64.3448 107.602 63.2792C109.095 60.2248 111.914 58.6627 116.515 58.3363C116.725 58.3194 122.505 58.3094 129.359 58.3129C140.88 58.3194 141.859 58.3229 142.335 58.3763Z" fill="black"/>
<path d="M32.3459 51.3316C32.4059 51.3815 38.3596 56.4941 45.5796 62.6961L58.7063 73.9707L58.7097 79.7726V85.5782H63.1411H67.5721V79.7726V73.9707L80.779 62.6293C88.0454 56.3908 93.9893 51.2782 93.9893 51.2613C93.9924 51.2483 91.3505 51.2383 88.1187 51.2383H82.2482L72.7061 59.4985L63.1641 67.7553L62.9944 67.609C62.9011 67.5287 58.5964 63.815 53.429 59.3518L44.0336 51.2414H38.1364H32.2393L32.3459 51.3316Z" fill="black"/>
<path d="M52.2299 91.2775C46.9192 91.5171 42.6077 92.8062 39.3694 95.1209C35.6745 97.7625 33.4623 101.52 32.7093 106.429C32.4928 107.838 32.4395 108.644 32.4395 110.443C32.4395 111.948 32.4561 112.321 32.576 113.407C32.8359 115.819 33.4623 118.037 34.4185 119.948C36.4741 124.052 40.1623 126.97 45.1332 128.429C47.3654 129.082 49.7178 129.438 52.5629 129.544C53.8923 129.598 78.5305 129.571 79.3668 129.518C82.0921 129.345 83.4944 129.171 85.1971 128.792C87.536 128.272 89.415 127.479 91.1142 126.294C91.5642 125.984 92.3472 125.351 92.707 125.011L93 124.732L90.378 121.65C88.9353 119.955 87.7357 118.55 87.7127 118.523C87.6727 118.483 87.6159 118.523 87.3229 118.806C86.2665 119.822 84.9072 120.558 83.3981 120.931C82.3186 121.198 81.1559 121.364 79.2666 121.524C78.5904 121.58 53.3428 121.607 52.463 121.55C48.6514 121.311 45.8263 120.211 43.9006 118.217C42.8576 117.137 42.0846 115.728 41.655 114.123C41.1319 112.168 41.0751 109.44 41.5183 107.318C41.7183 106.349 41.9783 105.59 42.388 104.764C43.2843 102.962 44.6701 101.613 46.5993 100.667C47.8185 100.067 49.0546 99.6974 50.6471 99.4544C51.4704 99.3276 52.1831 99.2712 53.3458 99.2313C54.8185 99.1813 77.9107 99.2113 78.6668 99.2612C80.576 99.391 81.7722 99.5377 82.9315 99.7873C84.6775 100.161 86.1767 100.927 87.3629 102.053C87.6194 102.299 87.6727 102.336 87.7092 102.296C87.7357 102.269 88.9353 100.863 90.3746 99.1679L92.9934 96.0901L92.8533 95.9438C92.6367 95.7207 92.0273 95.2043 91.5972 94.8748C89.2218 93.0661 86.1298 91.9437 82.382 91.524C81.6789 91.4472 80.9024 91.3838 79.5665 91.3005C78.8369 91.254 53.2095 91.2341 52.2299 91.2775Z" fill="black"/>
<path d="M99.9565 110.409V129.411L104.498 129.404L109.035 129.394L109.045 121.91L109.052 114.423H129.842H150.632L150.638 121.907L150.648 129.394L155.19 129.404L159.727 129.411V110.409V91.4072H155.18H150.632V99.0012V106.596H129.842H109.052V99.0012V91.4072H104.504H99.9565V110.409Z" fill="black"/>
</g>
</g>
<defs>
<clipPath id="clip0_2050_268">
<rect width="192" height="192" fill="white"/>
</clipPath>
</defs>
</svg>
