<svg width="51" height="22" viewBox="0 0 51 22" fill="none" xmlns="http://www.w3.org/2000/svg">
<path fill-rule="evenodd" clip-rule="evenodd" d="M3.51806 8.63333C3.51806 8.06369 3.9701 7.84457 4.70713 7.84457C5.76844 7.84457 7.09509 8.18056 8.1564 8.77954V5.3466C7.00664 4.86457 5.85689 4.67466 4.70713 4.67466C1.87696 4.67466 0 6.22314 0 8.80878C0 12.8404 5.28692 12.1978 5.28692 13.9361C5.28692 14.6079 4.73661 14.8271 3.95045 14.8271C2.80069 14.8271 1.32664 14.3304 0.157232 13.6585V17.1351C1.44457 17.7195 2.75156 17.9677 3.95045 17.9677C6.84941 17.9677 8.84429 16.4632 8.84429 13.8484C8.82464 9.49529 3.51806 10.2694 3.51806 8.63333ZM12.9325 1.75307L9.53235 2.51263L9.52252 14.2135C9.52252 16.3755 11.0654 17.9677 13.129 17.9677C14.269 17.9677 15.1042 17.7485 15.5661 17.4857V14.5202C15.1239 14.7102 12.9227 15.3821 12.9227 13.2201V8.03437H15.5661V4.92294H12.9227L12.9325 1.75307ZM19.8897 6.0039L19.6735 4.92297H16.6665V17.7047H20.1452V9.04238C20.9609 7.91763 22.3563 8.12213 22.7887 8.28276V4.92297C22.3465 4.74764 20.7152 4.42626 19.8897 6.0039ZM23.634 4.923H27.1324V17.7047H23.634V4.923ZM23.634 3.81278L27.1324 3.02396V0.0585938L23.634 0.832831V3.81278ZM34.4042 4.67466C33.0382 4.67466 32.1538 5.3466 31.6722 5.81413L31.4855 4.90843H28.4293V21.941L31.9081 21.1668L31.9179 17.0329C32.4191 17.4126 33.1561 17.9531 34.3845 17.9531C36.8806 17.9531 39.1506 15.8496 39.1506 11.219C39.1309 6.98268 36.8412 4.67466 34.4042 4.67466ZM33.5685 14.7394C32.743 14.7394 32.2517 14.4327 31.9175 14.0529L31.9077 8.6333C32.2713 8.20977 32.7725 7.91765 33.5685 7.91765C34.8263 7.91765 35.7108 9.40754 35.7108 11.3211C35.7108 13.2786 34.846 14.7394 33.5685 14.7394ZM50.1178 11.365C50.1178 7.62545 48.3883 4.67466 45.0962 4.67466C41.7747 4.67466 39.77 7.62555 39.77 11.3359C39.77 15.7328 42.1383 17.9531 45.5384 17.9531C47.1894 17.9531 48.4472 17.5587 49.3906 17.0036V14.082C48.4472 14.5788 47.3564 14.8856 45.9806 14.8856C44.6343 14.8856 43.4355 14.3889 43.2782 12.6652H50.0883C50.0883 12.4752 50.1178 11.7156 50.1178 11.365ZM43.2387 9.97726C43.2387 8.32663 44.2018 7.64002 45.0764 7.64002C45.9313 7.64002 46.8354 8.32663 46.8354 9.97726H43.2387Z" fill="#00241F"/>
</svg>
