<svg width="61" height="20" viewBox="0 0 61 20" fill="none" xmlns="http://www.w3.org/2000/svg">
<path fill-rule="evenodd" clip-rule="evenodd" d="M8.52759 7.13812V9.23351L13.5322 9.23134C13.3787 10.387 12.9892 11.2332 12.3971 11.8255C11.6673 12.5558 10.5282 13.3597 8.52759 13.3597C5.44398 13.3597 3.03119 10.8725 3.03119 7.78619C3.03119 4.69987 5.44398 2.21257 8.52759 2.21257C10.1918 2.21257 11.4066 2.86724 12.3037 3.70895L13.781 2.23039C12.5309 1.03462 10.8666 0.117188 8.52955 0.117188C4.30693 0.117188 0.755127 3.55976 0.755127 7.78619C0.755127 12.0126 4.30693 15.4551 8.52955 15.4551C10.8086 15.4551 12.5289 14.7069 13.8745 13.3041C15.2584 11.919 15.6882 9.97508 15.6882 8.40295C15.6882 7.93531 15.6528 7.5034 15.584 7.13812H8.52759ZM50.7419 15.1545V0.680492H48.6281V15.1545H50.7419ZM21.4806 15.4572C24.2081 15.4572 26.431 13.3618 26.431 10.5183C26.431 7.65466 24.2081 5.57936 21.4806 5.57936C18.752 5.57936 16.5291 7.65466 16.5291 10.5183C16.5291 13.3618 18.752 15.4572 21.4806 15.4572ZM21.4807 7.52545C22.9757 7.52545 24.2643 8.74126 24.2643 10.5182C24.2643 12.2752 22.9757 13.511 21.4807 13.511C19.9856 13.511 18.6971 12.2774 18.6971 10.5182C18.6971 8.74126 19.9856 7.52545 21.4807 7.52545ZM32.1615 15.4572C34.889 15.4572 37.112 13.3618 37.112 10.5183C37.112 7.65466 34.889 5.57936 32.1615 5.57936C29.433 5.57936 27.21 7.65693 27.21 10.5183C27.21 13.3618 29.433 15.4572 32.1615 15.4572ZM32.1616 7.52545C33.6567 7.52545 34.9452 8.74126 34.9452 10.5182C34.9452 12.2752 33.6567 13.511 32.1616 13.511C30.6665 13.511 29.378 12.2774 29.378 10.5182C29.378 8.74126 30.6665 7.52545 32.1616 7.52545ZM47.3481 5.87996V14.7447C47.3481 18.3921 45.1979 19.8819 42.6573 19.8819C40.2652 19.8819 38.8252 18.2808 38.2822 16.9715L40.1688 16.1854C40.5052 16.9893 41.3284 17.9379 42.6543 17.9379C44.2812 17.9379 45.2894 16.9336 45.2894 15.0431V14.3328H45.2137C44.7288 14.9317 43.7943 15.4551 42.615 15.4551C40.1471 15.4551 37.8858 13.304 37.8858 10.5361C37.8858 7.74826 40.1471 5.57935 42.615 5.57935C43.7914 5.57935 44.7268 6.1026 45.2137 6.68383H45.2894V5.87996H47.3481ZM45.4429 10.536C45.4429 8.79691 44.2832 7.52539 42.8078 7.52539C41.3128 7.52539 40.0606 8.79691 40.0606 10.536C40.0606 12.2573 41.3128 13.5109 42.8078 13.5109C44.2832 13.5109 45.4429 12.2573 45.4429 10.536ZM58.9794 12.1438L60.6614 13.2661C60.1184 14.07 58.8102 15.455 56.5489 15.455C53.7457 15.455 51.6516 13.2862 51.6516 10.5161C51.6516 7.579 53.7634 5.57712 56.307 5.57712C58.8683 5.57712 60.1204 7.6168 60.5306 8.71912L60.7548 9.28027L54.1568 12.0147C54.6624 13.0056 55.4473 13.5111 56.5489 13.5111C57.6525 13.5111 58.4188 12.9678 58.9794 12.1438ZM53.801 10.3669L58.2115 8.53432C57.9695 7.91745 57.2397 7.48771 56.38 7.48771C55.2793 7.48771 53.7459 8.46079 53.801 10.3669Z" fill="#00241F"/>
</svg>
