<svg width="88" height="16" viewBox="0 0 88 16" fill="none" xmlns="http://www.w3.org/2000/svg">
<path fill-rule="evenodd" clip-rule="evenodd" d="M11.5765 0.766602L8.57476 8.60792L5.55516 0.766602H0.392334V14.9781H4.1078V5.58279L7.7561 14.9781H9.39553L13.0239 5.58279V14.9781H16.7394V0.766602H11.5765Z" fill="#00241F"/>
<path fill-rule="evenodd" clip-rule="evenodd" d="M24.274 12.3371V11.4188C23.9297 10.9291 23.151 10.6941 22.4205 10.6941C21.5556 10.6941 20.7558 11.0792 20.7558 11.8878C20.7558 12.6964 21.5556 13.0815 22.4205 13.0815C23.151 13.0815 23.9297 12.8258 24.274 12.3361V12.3371ZM24.2739 13.9542C23.6263 14.7193 22.3753 15.2328 21.035 15.2328C19.4365 15.2328 17.4517 14.1447 17.4517 11.8432C17.4517 9.35233 19.4354 8.52306 21.035 8.52306C22.4204 8.52306 23.6505 8.96824 24.2739 9.73642V8.71355C24.2739 7.81906 23.4993 7.20099 22.158 7.20099C21.121 7.20099 20.084 7.60475 19.2433 8.30875L18.0133 6.028C19.3535 4.89953 21.1452 4.43054 22.7405 4.43054C25.2458 4.43054 27.6032 5.34885 27.6032 8.54377V14.9781H24.2739V13.9542Z" fill="#00241F"/>
<path fill-rule="evenodd" clip-rule="evenodd" d="M28.0533 13.6353L29.4356 11.2935C30.2144 11.9727 31.8748 12.6767 33.1091 12.6767C34.1009 12.6767 34.5113 12.3971 34.5113 11.952C34.5113 10.6744 28.4437 11.9934 28.4437 7.81906C28.4437 6.00729 30.0422 4.43054 32.9117 4.43054C34.6834 4.43054 36.1507 4.98442 37.2748 5.79299L36.0038 8.1193C35.3761 7.51986 34.188 6.98668 32.9369 6.98668C32.1582 6.98668 31.6407 7.28588 31.6407 7.69068C31.6407 8.81915 37.6841 7.64927 37.6841 11.8681C37.6841 13.8248 35.9376 15.2328 32.9569 15.2328C31.0792 15.2328 29.1574 14.6137 28.0533 13.6353Z" fill="#00241F"/>
<path fill-rule="evenodd" clip-rule="evenodd" d="M45.3967 14.9782V8.98691C45.3967 7.7342 44.7281 7.3294 43.666 7.3294C42.6951 7.3294 42.0475 7.85947 41.6613 8.32846V14.9771H38.3321V0.766673H41.6613V5.94314C42.2847 5.21844 43.519 4.43161 45.2655 4.43161C47.6438 4.43161 48.7217 5.75265 48.7217 7.64931V14.9782H45.3967Z" fill="#00241F"/>
<path fill-rule="evenodd" clip-rule="evenodd" d="M56.2168 12.3372V11.4188C55.8715 10.9292 55.0938 10.6941 54.3591 10.6941C53.4943 10.6941 52.6945 11.0793 52.6945 11.8878C52.6945 12.6964 53.4943 13.0815 54.3591 13.0815C55.0938 13.0815 55.8715 12.8258 56.2168 12.3361V12.3372ZM56.2168 13.9543C55.5682 14.7193 54.314 15.2329 52.9779 15.2329C51.3783 15.2329 49.3904 14.1448 49.3904 11.8433C49.3904 9.35238 51.3783 8.52311 52.9779 8.52311C54.3591 8.52311 55.5892 8.96829 56.2168 9.73647V8.7136C56.2168 7.81911 55.437 7.20104 54.1009 7.20104C53.0639 7.20104 52.0259 7.6048 51.182 8.3088L49.952 6.02805C51.2923 4.89958 53.0839 4.43059 54.6834 4.43059C57.1877 4.43059 59.5408 5.3489 59.5408 8.54382V14.9782H56.2168V13.9543Z" fill="#00241F"/>
<path fill-rule="evenodd" clip-rule="evenodd" d="M65.9322 12.3371C67.2483 12.3371 68.2444 11.3742 68.2444 9.8213C68.2444 8.28907 67.2483 7.32624 65.9322 7.32624C65.2185 7.32624 64.3578 7.71034 63.9443 8.26422V11.4188C64.3578 11.9726 65.2195 12.3371 65.9322 12.3371ZM60.6198 0.766673H63.9448V5.90173C64.6852 4.9617 65.829 4.41769 67.0358 4.43161C69.6471 4.43161 71.636 6.45665 71.636 9.82135C71.636 13.3155 69.6062 15.2328 67.0358 15.2328C65.8676 15.2328 64.8096 14.7638 63.9448 13.7845V14.9782H60.6198V0.766673Z" fill="#00241F"/>
<path fill-rule="evenodd" clip-rule="evenodd" d="M72.3044 0.766673H75.6294V14.9782H72.3044V0.766673Z" fill="#00241F"/>
<path fill-rule="evenodd" clip-rule="evenodd" d="M81.8282 7.07167C80.3798 7.07167 79.8194 7.92475 79.6871 8.66913H83.9882C83.899 7.94442 83.3616 7.07167 81.8282 7.07167ZM76.297 9.82137C76.297 6.84076 78.5641 4.43059 81.8283 4.43059C84.915 4.43059 87.1622 6.66683 87.1622 10.1609V10.9095H79.7333C79.9705 11.8236 80.8354 12.5918 82.3446 12.5918C83.0793 12.5918 84.2884 12.2719 84.8951 11.718L86.3382 13.8694C85.3044 14.7835 83.5747 15.2329 81.9794 15.2329C78.7614 15.2329 76.297 13.1664 76.297 9.82137Z" fill="#00241F"/>
</svg>
