<svg width="69" height="16" viewBox="0 0 69 16" fill="none" xmlns="http://www.w3.org/2000/svg">
<path fill-rule="evenodd" clip-rule="evenodd" d="M11.4135 1.3251V9.05883C11.4135 11.6414 10.2664 12.7138 7.57319 12.7138C4.881 12.7138 3.73288 11.6414 3.73288 9.05883V0.986328H1.13993C0.912686 0.986328 0.799561 1.0994 0.799561 1.3251V9.18572C0.799561 13.5045 3.56319 15.0145 7.57319 15.0145C11.5842 15.0145 14.3468 13.5045 14.3468 9.18572V0.986328H11.7539C11.5276 0.986328 11.4135 1.0994 11.4135 1.3251Z" fill="#00241F"/>
<path fill-rule="evenodd" clip-rule="evenodd" d="M49.0066 3.23032C49.219 3.23032 49.3182 3.15985 49.3887 3.0044L50.1399 1.15559C50.1825 1.04298 50.1399 0.986328 50.0267 0.986328H39.5825C38.605 0.986328 38.2369 1.28272 38.2369 1.94596V13.9558C38.2369 14.5205 38.5197 14.7745 39.2709 14.7745H49.0066C49.219 14.7745 49.3182 14.7038 49.3887 14.5489L50.1399 12.6998C50.1825 12.5869 50.1399 12.5305 50.0267 12.5305H41.1136V10.089C41.1136 9.24214 41.581 8.86098 42.8413 8.86098H46.7104C46.9237 8.86098 47.022 8.79082 47.0934 8.63557L47.8158 6.85724C47.8585 6.74418 47.8158 6.68795 47.7027 6.68795H41.1136V3.23032H49.0066Z" fill="#00241F"/>
<path fill-rule="evenodd" clip-rule="evenodd" d="M27.9021 12.559H22.7846V10.0326C22.7846 9.18581 23.252 8.80495 24.5143 8.80495H27.9021C29.5315 8.80495 29.985 9.42576 29.985 10.6961C29.985 11.9662 29.5315 12.559 27.9021 12.559ZM22.7846 3.20209H27.3632C28.8944 3.20209 29.3191 3.77622 29.3191 4.96615C29.3191 6.15628 28.8944 6.73045 27.3632 6.73045H22.7846V3.20209ZM30.623 7.50644C31.7562 6.91369 32.2236 5.79887 32.2236 4.48639C32.2236 1.43796 29.7299 0.986357 27.1508 0.986357H21.2554C20.278 0.986357 19.9098 1.28275 19.9098 1.94599V13.9559C19.9098 14.5205 20.1926 14.7745 20.9438 14.7745H28.1997C30.9346 14.7745 32.8905 13.7161 32.8905 10.9641C32.8905 9.31293 32.1819 7.91567 30.623 7.50644Z" fill="#00241F"/>
<path fill-rule="evenodd" clip-rule="evenodd" d="M62.8315 7.37939H58.0137V3.2023H62.8315C64.6315 3.2023 65.0285 3.89364 65.0285 5.29086C65.0285 6.70206 64.6315 7.37939 62.8315 7.37939ZM68.2451 14.5346L65.1421 9.22814C66.6871 8.83314 67.9335 7.81714 67.9335 5.23439C67.9335 1.8898 65.8506 0.986357 62.4072 0.986357H56.484C55.5056 0.986357 55.1374 1.28275 55.1374 1.94599V14.4358C55.1374 14.6615 55.2505 14.7745 55.4778 14.7745H58.0142V10.7525C58.0142 9.90567 58.4816 9.52451 59.7428 9.52451H62.2941L65.0994 14.5489C65.1847 14.6898 65.2701 14.7745 65.4824 14.7745H68.1181C68.3026 14.7745 68.3026 14.6191 68.2451 14.5346Z" fill="#00241F"/>
</svg>
