<svg width="88" height="16" viewBox="0 0 88 16" fill="none" xmlns="http://www.w3.org/2000/svg">
<path fill-rule="evenodd" clip-rule="evenodd" d="M12.1005 0.766602L9.09869 8.60792L6.07908 0.766602H0.91626V14.9781H4.63173V5.58279L8.28003 14.9781H9.91945L13.5478 5.58279V14.9781H17.2633V0.766602H12.1005Z" fill="#00241F"/>
<path fill-rule="evenodd" clip-rule="evenodd" d="M24.7979 12.3371V11.4188C24.4537 10.9291 23.6749 10.6941 22.9444 10.6941C22.0795 10.6941 21.2798 11.0792 21.2798 11.8878C21.2798 12.6964 22.0795 13.0815 22.9444 13.0815C23.6749 13.0815 24.4537 12.8258 24.7979 12.3361V12.3371ZM24.7978 13.9542C24.1503 14.7193 22.8992 15.2328 21.5589 15.2328C19.9604 15.2328 17.9757 14.1447 17.9757 11.8432C17.9757 9.35233 19.9593 8.52306 21.5589 8.52306C22.9443 8.52306 24.1744 8.96824 24.7978 9.73642V8.71355C24.7978 7.81906 24.0233 7.20099 22.6819 7.20099C21.6449 7.20099 20.608 7.60475 19.7673 8.30875L18.5372 6.028C19.8775 4.89953 21.6691 4.43054 23.2644 4.43054C25.7697 4.43054 28.1271 5.34885 28.1271 8.54377V14.9781H24.7978V13.9542Z" fill="#00241F"/>
<path fill-rule="evenodd" clip-rule="evenodd" d="M28.5772 13.6353L29.9595 11.2935C30.7383 11.9727 32.3987 12.6767 33.633 12.6767C34.6248 12.6767 35.0352 12.3971 35.0352 11.952C35.0352 10.6744 28.9677 11.9934 28.9677 7.81906C28.9677 6.00729 30.5662 4.43054 33.4357 4.43054C35.2073 4.43054 36.6746 4.98442 37.7987 5.79299L36.5277 8.1193C35.9001 7.51986 34.7119 6.98668 33.4609 6.98668C32.6821 6.98668 32.1646 7.28588 32.1646 7.69068C32.1646 8.81915 38.2081 7.64927 38.2081 11.8681C38.2081 13.8248 36.4616 15.2328 33.4808 15.2328C31.6031 15.2328 29.6814 14.6137 28.5772 13.6353Z" fill="#00241F"/>
<path fill-rule="evenodd" clip-rule="evenodd" d="M45.9206 14.9782V8.98691C45.9206 7.7342 45.2521 7.3294 44.1899 7.3294C43.2191 7.3294 42.5715 7.85947 42.1852 8.32846V14.9771H38.856V0.766673H42.1852V5.94314C42.8087 5.21844 44.043 4.43161 45.7894 4.43161C48.1678 4.43161 49.2457 5.75265 49.2457 7.64931V14.9782H45.9206Z" fill="#00241F"/>
<path fill-rule="evenodd" clip-rule="evenodd" d="M56.7408 12.3372V11.4188C56.3955 10.9292 55.6177 10.6941 54.883 10.6941C54.0182 10.6941 53.2184 11.0793 53.2184 11.8878C53.2184 12.6964 54.0182 13.0815 54.883 13.0815C55.6177 13.0815 56.3955 12.8258 56.7408 12.3361V12.3372ZM56.7408 13.9543C56.0921 14.7193 54.8379 15.2329 53.5018 15.2329C51.9022 15.2329 49.9144 14.1448 49.9144 11.8433C49.9144 9.35238 51.9022 8.52311 53.5018 8.52311C54.883 8.52311 56.1131 8.96829 56.7408 9.73647V8.7136C56.7408 7.81911 55.9609 7.20104 54.6248 7.20104C53.5879 7.20104 52.5498 7.6048 51.706 8.3088L50.4759 6.02805C51.8162 4.89958 53.6078 4.43059 55.2073 4.43059C57.7116 4.43059 60.0647 5.3489 60.0647 8.54382V14.9782H56.7408V13.9543Z" fill="#00241F"/>
<path fill-rule="evenodd" clip-rule="evenodd" d="M66.4561 12.3371C67.7723 12.3371 68.7683 11.3742 68.7683 9.8213C68.7683 8.28907 67.7723 7.32624 66.4561 7.32624C65.7424 7.32624 64.8817 7.71034 64.4682 8.26422V11.4188C64.8817 11.9726 65.7434 12.3371 66.4561 12.3371ZM61.1437 0.766673H64.4687V5.90173C65.2092 4.9617 66.3529 4.41769 67.5597 4.43161C70.171 4.43161 72.1599 6.45665 72.1599 9.82135C72.1599 13.3155 70.1301 15.2328 67.5597 15.2328C66.3915 15.2328 65.3336 14.7638 64.4687 13.7845V14.9782H61.1437V0.766673Z" fill="#00241F"/>
<path fill-rule="evenodd" clip-rule="evenodd" d="M72.8283 0.766673H76.1533V14.9782H72.8283V0.766673Z" fill="#00241F"/>
<path fill-rule="evenodd" clip-rule="evenodd" d="M82.3522 7.07167C80.9038 7.07167 80.3433 7.92475 80.211 8.66913H84.5122C84.423 7.94442 83.8856 7.07167 82.3522 7.07167ZM76.821 9.82137C76.821 6.84076 79.088 4.43059 82.3522 4.43059C85.439 4.43059 87.6861 6.66683 87.6861 10.1609V10.9095H80.2572C80.4945 11.8236 81.3593 12.5918 82.8686 12.5918C83.6033 12.5918 84.8124 12.2719 85.419 11.718L86.8622 13.8694C85.8284 14.7835 84.0987 15.2329 82.5033 15.2329C79.2853 15.2329 76.821 13.1664 76.821 9.82137Z" fill="#00241F"/>
</svg>
