<svg width="88" height="24" viewBox="0 0 88 24" fill="none" xmlns="http://www.w3.org/2000/svg">
<path fill-rule="evenodd" clip-rule="evenodd" d="M45.4529 4.79911C45.4529 5.79115 44.6408 6.59031 43.6326 6.59031C42.6244 6.59031 41.8123 5.79115 41.8123 4.79911C41.8123 3.80706 42.5965 3.0079 43.6326 3.0079C44.6688 3.03546 45.4529 3.83461 45.4529 4.79911ZM37.9477 8.4091C37.9477 8.57447 37.9477 8.85006 37.9477 8.85006C37.9477 8.85006 37.0796 7.7477 35.2312 7.7477C32.1786 7.7477 29.7982 10.035 29.7982 13.204C29.7982 16.3455 32.1507 18.6603 35.2312 18.6603C37.1075 18.6603 37.9477 17.5305 37.9477 17.5305V17.999C37.9477 18.2194 38.1157 18.3848 38.3397 18.3848H40.6082V8.02329C40.6082 8.02329 38.5358 8.02329 38.3397 8.02329C38.1157 8.02329 37.9477 8.21619 37.9477 8.4091ZM37.9472 15.0504C37.5272 15.6566 36.6871 16.1802 35.6789 16.1802C33.8865 16.1802 32.5142 15.0779 32.5142 13.204C32.5142 11.3302 33.8865 10.2279 35.6789 10.2279C36.659 10.2279 37.5552 10.779 37.9472 11.3577V15.0504ZM42.2883 8.02326H44.9768V18.3847H42.2883V8.02326ZM82.4477 7.74768C80.5994 7.74768 79.7312 8.85004 79.7312 8.85004V3.03547H77.0426V18.3848C77.0426 18.3848 79.1151 18.3848 79.3111 18.3848C79.5351 18.3848 79.7032 18.1918 79.7032 17.9989V17.5305C79.7032 17.5305 80.5713 18.6602 82.4197 18.6602C85.4722 18.6602 87.8527 16.3455 87.8527 13.204C87.8527 10.0625 85.4722 7.74768 82.4477 7.74768ZM81.9995 16.1527C80.9632 16.1527 80.1511 15.629 79.731 15.0228V11.3302C80.1511 10.779 81.0473 10.2003 81.9995 10.2003C83.7918 10.2003 85.164 11.3026 85.164 13.1765C85.164 15.0504 83.7918 16.1527 81.9995 16.1527ZM75.6421 12.2395V18.4123H72.9537V12.5426C72.9537 10.8341 72.3935 10.1452 70.8812 10.1452C70.0691 10.1452 69.229 10.5585 68.6968 11.1648V18.3848H66.0084V8.02327H68.1368C68.3608 8.02327 68.5288 8.21617 68.5288 8.40907V8.85004C69.3129 8.0508 70.3492 7.74768 71.3853 7.74768C72.5616 7.74768 73.5418 8.07843 74.3259 8.73972C75.2781 9.51133 75.6421 10.5034 75.6421 12.2395ZM59.4837 7.74768C57.6353 7.74768 56.7672 8.85004 56.7672 8.85004V3.03547H54.0787V18.3848C54.0787 18.3848 56.151 18.3848 56.3471 18.3848C56.5712 18.3848 56.7392 18.1918 56.7392 17.9989V17.5305C56.7392 17.5305 57.6074 18.6602 59.4557 18.6602C62.5083 18.6602 64.8887 16.3455 64.8887 13.204C64.9167 10.0625 62.5363 7.74768 59.4837 7.74768ZM59.0355 16.1526C57.9993 16.1526 57.1872 15.629 56.7671 15.0227V11.3302C57.1872 10.779 58.0834 10.2003 59.0355 10.2003C60.8278 10.2003 62.2001 11.3025 62.2001 13.1765C62.2001 15.0504 60.8278 16.1526 59.0355 16.1526ZM51.7543 7.7477C52.5664 7.7477 52.9865 7.88555 52.9865 7.88555V10.3381C52.9865 10.3381 50.7461 9.59404 49.3458 11.1648V18.4123H46.6573V8.02329C46.6573 8.02329 48.7297 8.02329 48.9258 8.02329C49.1498 8.02329 49.3177 8.21619 49.3177 8.4091V8.85006C49.8218 8.27135 50.9141 7.7477 51.7543 7.7477ZM22.5925 17.0571C22.4708 16.7688 22.3492 16.4565 22.2275 16.1922C22.0328 15.7598 21.8381 15.3513 21.6677 14.967L21.6434 14.9429C19.9643 11.3393 18.1634 7.68769 16.2652 4.08408L16.1922 3.93994C15.9976 3.57958 15.8029 3.1952 15.6082 2.81081C15.3649 2.37837 15.1215 1.92192 14.7322 1.48949C13.9534 0.528529 12.834 0 11.6415 0C10.4247 0 9.32967 0.528529 8.52658 1.44144C8.16155 1.87388 7.89386 2.33033 7.6505 2.76276C7.45582 3.14715 7.26113 3.53153 7.06645 3.89189L6.99345 4.03604C5.11961 7.63964 3.29445 11.2913 1.6153 14.8949L1.59096 14.9429C1.42061 15.3273 1.22593 15.7358 1.03124 16.1682C0.909566 16.4325 0.787889 16.7207 0.666211 17.0331C0.34985 17.9219 0.252508 18.7628 0.374185 19.6276C0.641876 21.4294 1.85866 22.943 3.5378 23.6157C4.17052 23.8799 4.82759 24 5.50898 24C5.70366 24 5.94702 23.976 6.1417 23.9519C6.94477 23.8558 7.77218 23.5916 8.57525 23.1351C9.57304 22.5825 10.522 21.7898 11.5929 20.6367C12.6636 21.7898 13.637 22.5825 14.6104 23.1351C15.4136 23.5916 16.2409 23.8558 17.044 23.9519C17.2387 23.976 17.482 24 17.6767 24C18.3581 24 19.0395 23.8799 19.6479 23.6157C21.3514 22.943 22.5438 21.4054 22.8115 19.6276C23.0062 18.7868 22.9088 17.9459 22.5925 17.0571ZM11.6396 18.054C10.3773 16.4684 9.55911 14.9761 9.27862 13.7169C9.16169 13.1807 9.13834 12.7143 9.20848 12.2946C9.25527 11.9215 9.39547 11.5951 9.58254 11.3153C10.0267 10.6857 10.7747 10.2893 11.6396 10.2893C12.5045 10.2893 13.276 10.6624 13.6967 11.3153C13.8837 11.5951 14.0239 11.9215 14.0707 12.2946C14.1409 12.7143 14.1175 13.2039 14.0006 13.7169C13.7201 14.9527 12.9019 16.4451 11.6396 18.054ZM21.1268 19.2613C20.9602 20.482 20.1276 21.5385 18.9617 22.008C18.3906 22.2427 17.7721 22.3131 17.1535 22.2427C16.5587 22.1723 15.9638 21.9845 15.3453 21.6323C14.4886 21.1628 13.6321 20.4351 12.6329 19.3552C14.2032 17.4536 15.1548 15.7164 15.5117 14.167C15.6783 13.4393 15.7021 12.7819 15.6307 12.1716C15.5356 11.5847 15.3214 11.0448 14.9883 10.5752C14.2508 9.51877 13.0135 8.90842 11.6336 8.90842C10.2536 8.90842 9.01636 9.54231 8.27882 10.5752C7.94573 11.0448 7.7316 11.5847 7.63643 12.1716C7.54126 12.7819 7.56505 13.4628 7.75539 14.167C8.11228 15.7164 9.08776 17.4771 10.6343 19.3787C9.6588 20.4586 8.77847 21.1863 7.92193 21.6558C7.30333 22.008 6.70852 22.1958 6.11371 22.2662C5.4713 22.3366 4.8527 22.2427 4.30547 22.0315C3.13964 21.5619 2.3069 20.5055 2.14035 19.2848C2.06897 18.6979 2.11655 18.111 2.35448 17.4536C2.42586 17.2189 2.54482 16.9842 2.66378 16.7024C2.83033 16.3268 3.02067 15.9277 3.21102 15.5286L3.2348 15.4817C4.8765 11.9838 6.63714 8.41544 8.46917 4.94102L8.54054 4.80016C8.73088 4.44802 8.92123 4.07241 9.11152 3.72027C9.30193 3.34465 9.51602 2.99252 9.77773 2.68733C10.2774 2.12391 10.9436 1.81873 11.6812 1.81873C12.4187 1.81873 13.0849 2.12391 13.5846 2.68733C13.8463 2.99252 14.0604 3.34465 14.2508 3.72027C14.4411 4.07241 14.6314 4.44802 14.8217 4.80016L14.8931 4.94102C16.7014 8.43891 18.462 12.0072 20.1037 15.5052V15.5286C20.294 15.9043 20.4606 16.3268 20.651 16.7024C20.7699 16.9842 20.8888 17.2189 20.9602 17.4536C21.1506 18.064 21.2219 18.6509 21.1268 19.2613Z" fill="#00241F"/>
</svg>
