<svg width="52" height="20" viewBox="0 0 52 20" fill="none" xmlns="http://www.w3.org/2000/svg">
<path fill-rule="evenodd" clip-rule="evenodd" d="M5.92962 19.5218C4.39464 19.4585 3.13812 19.0224 2.15609 18.2126C1.9688 18.058 1.52189 17.5941 1.37225 17.3985C0.973892 16.8787 0.702372 16.3729 0.52202 15.8116C-0.033901 14.0841 0.252483 11.817 1.34054 9.32903C2.27203 7.19896 3.7089 5.08633 6.21699 2.16041C6.58562 1.72986 7.68557 0.470703 7.6935 0.470703C7.6935 0.470703 7.63603 0.578476 7.56071 0.70971C6.90867 1.84309 6.35077 3.1781 6.04655 4.33384C5.55801 6.18834 5.61747 7.77985 6.21897 9.01386C6.63418 9.86408 7.34568 10.6005 8.14636 11.0075C9.54756 11.7199 11.5988 11.7788 14.1029 11.1799C14.2754 11.1385 22.8213 8.78415 33.0944 5.94796C43.3676 3.11152 51.7738 0.792656 51.7748 0.794562C51.7777 0.79702 27.9088 11.3968 15.517 16.896C13.555 17.7666 13.0307 17.9864 12.1082 18.3226C9.74971 19.182 7.63702 19.5922 5.92962 19.5218Z" fill="#00241F"/>
</svg>
