<svg width="119" height="16" viewBox="0 0 119 16" fill="none" xmlns="http://www.w3.org/2000/svg">
<path fill-rule="evenodd" clip-rule="evenodd" d="M17.5527 15.4852V8.6691C17.5527 6.09717 15.9222 4.36589 13.298 4.34317C11.7759 4.24416 10.3207 4.98576 9.49954 6.27893C8.75112 5.02388 7.38035 4.28116 5.9269 4.34317C4.66279 4.28175 3.4605 4.89691 2.76527 5.96085V4.59764H0.412109V15.4852H2.78785V9.45522C2.78785 7.5649 3.82667 6.56521 5.43459 6.56521C7.0425 6.56521 7.78774 7.58762 7.78774 9.4325V15.4852H10.1499V9.45522C10.1499 7.5649 11.2339 6.56521 12.7967 6.56521C14.3594 6.56521 15.1724 7.58762 15.1724 9.4325V15.4852H17.5527ZM52.7054 4.60671H48.8617V1.30774H46.486V4.60671H44.2909V6.76968H46.486V11.7272C46.486 14.2537 47.457 15.7578 50.2393 15.7578C51.2784 15.7612 52.2975 15.4698 53.1796 14.9171L52.5021 12.8905C51.8708 13.2688 51.1544 13.4799 50.4199 13.5039C49.2456 13.5039 48.8572 12.7769 48.8572 11.6863V6.76968H52.7008L52.7054 4.60671ZM72.7728 4.3341C71.604 4.29982 70.5103 4.9119 69.9228 5.92905V4.60674H67.5923V15.4852H69.9454V9.38707C69.9454 7.56945 70.7132 6.58794 72.2534 6.58794C72.7572 6.58061 73.2576 6.67325 73.7258 6.86058L74.4485 4.62946C73.9107 4.43594 73.344 4.33606 72.7728 4.3341ZM42.4347 5.47012C41.1024 4.67379 39.5707 4.27947 38.0219 4.33411C35.2849 4.33411 33.5053 5.65642 33.5053 7.81484C33.5053 9.59156 34.8152 10.6821 37.2361 11.0229L38.3426 11.182C39.6299 11.3637 40.2441 11.7045 40.2441 12.318C40.2441 13.1586 39.386 13.6403 37.7781 13.6403C36.4808 13.6818 35.2077 13.2815 34.1648 12.5043L33.0943 14.3446C34.4647 15.3086 36.1066 15.804 37.7781 15.7578C40.899 15.7578 42.7102 14.2765 42.7102 12.2089C42.7102 10.2959 41.2829 9.2962 38.9343 8.9554L37.8277 8.79636C36.8115 8.66003 35.994 8.45555 35.994 7.72851C35.994 6.9333 36.7618 6.45617 38.0536 6.45617C39.2371 6.47377 40.3967 6.79436 41.423 7.3877L42.4347 5.47012ZM105.451 4.3341C104.282 4.29982 103.188 4.9119 102.601 5.92905V4.60674H100.27V15.4852H102.623V9.38707C102.623 7.56945 103.391 6.58794 104.931 6.58794C105.435 6.58061 105.935 6.67325 106.404 6.86058L107.126 4.62946C106.588 4.43594 106.022 4.33606 105.451 4.3341ZM75.1484 10.046C75.1484 13.345 77.4338 15.7579 80.9162 15.7579C82.3282 15.8281 83.7153 15.3646 84.805 14.4583L83.6758 12.5452C82.8624 13.1684 81.8708 13.5111 80.8484 13.5222C78.9695 13.5222 77.5919 12.1317 77.5919 10.0414C77.5919 7.95119 78.974 6.58343 80.8484 6.56071C81.8708 6.57183 82.8624 6.91445 83.6758 7.53768L84.805 5.62464C83.7153 4.71832 82.3282 4.25476 80.9162 4.32505C77.4338 4.32505 75.1484 6.73793 75.1484 10.0369V10.046ZM97.1804 4.59311H94.8273V5.91542C94.0132 4.85855 92.7405 4.26409 91.4127 4.32047C88.3821 4.32047 85.9928 6.71063 85.9928 10.0323C85.9928 13.354 88.3685 15.7442 91.4127 15.7442C92.7405 15.8006 94.0132 15.2061 94.8273 14.1492V15.467H97.1804V4.59311ZM88.4271 10.0459C88.4271 8.13288 89.6692 6.56519 91.7062 6.56519C93.6528 6.56519 94.9626 8.06926 94.9626 10.0459C94.9626 12.0226 93.6528 13.5267 91.7062 13.5267C89.6692 13.5267 88.4271 11.9544 88.4271 10.0459ZM60.0355 4.33413C56.8739 4.33413 54.6517 6.65614 54.6517 10.046C54.6517 13.504 56.9597 15.7579 60.1936 15.7579C61.8083 15.8148 63.3873 15.2712 64.6289 14.2311L63.4772 12.4771C62.5789 13.2001 61.4659 13.6 60.3155 13.6131C58.798 13.6131 57.4204 12.9087 57.0816 10.9503H65.1122C65.1348 10.6549 65.1574 10.3595 65.1574 10.0414C65.1574 6.6516 63.0526 4.32959 60.022 4.32959L60.0355 4.33413ZM59.9906 6.45167C61.5082 6.45167 62.4793 7.40592 62.7277 9.09176H57.1226C57.371 7.51952 58.3195 6.45167 59.9952 6.45167H59.9906ZM119 0.235352H116.647V5.92449C115.833 4.86762 114.56 4.27316 113.232 4.32953C110.202 4.32953 107.812 6.7197 107.812 10.0414C107.812 13.3631 110.188 15.7533 113.232 15.7533C114.56 15.8096 115.833 15.2152 116.647 14.1583V15.4761H119V0.235352ZM110.256 10.0459C110.256 8.13288 111.498 6.56519 113.535 6.56519C115.481 6.56519 116.791 8.06926 116.791 10.0459C116.791 12.0226 115.481 13.5267 113.535 13.5267C111.498 13.5267 110.256 11.9544 110.256 10.0459ZM30.8088 10.046V4.59314H28.4556V5.91546C27.6415 4.86771 26.3753 4.279 25.0546 4.33413C22.0239 4.33413 19.6347 6.72429 19.6347 10.046C19.6347 13.3677 22.0104 15.7578 25.0546 15.7578C26.3824 15.8142 27.6551 15.2198 28.4692 14.1629V15.4807H30.8223L30.8088 10.046ZM22.0556 10.046C22.0556 8.13293 23.2977 6.56524 25.3347 6.56524C27.2813 6.56524 28.5911 8.06931 28.5911 10.046C28.5911 12.0226 27.2813 13.5267 25.3347 13.5267C23.2977 13.5267 22.0556 11.959 22.0556 10.046Z" fill="#00241F"/>
</svg>
