<svg width="159" height="61" viewBox="0 0 159 61" fill="none" xmlns="http://www.w3.org/2000/svg">
<path d="M157.219 31.6296V32.098H155.745V28.9295H153.909V31.1061H152.434V29.1775H150.793V9.8636H149.151V3.08582H147.51V0.523487H145.673V9.83604H142.335V31.1888H140.666V32.3184H137.55V23.5018H139.191V7.60434H140.833V0H138.996V3.03071H137.355V18.0741H135.713V29.3979H134.267V13.1423H132.43V31.2163H130.789V32.346H129.314V1.04697H127.478V22.2895H125.837V27.056H124.362V18.5425H122.721V13.1423H120.885V22.4824H122.526V28.3234H124.167V32.346H121.024V29.9214H119.187V31.1612H117.546V32.3184H116.044V31.1612H114.43V30.0041H116.071V22.7028H117.713V9.8636H115.877V10.5799H114.402V3.71951H112.566V6.28184H110.924V9.8636H109.227V30.8582H107.558V32.098H105.889V33.5307H104.414V30.4449H106.056V14.3546H104.414V9.31256H102.773V3.52665H100.936V11.4341H99.295V12.8392H97.6535V22.7028H99.4898V16.0077H101.131V11.9024H102.606V17.9639H104.247V26.0641H102.606V30.8306H100.964V32.346H99.4898V31.1888H97.6535V32.346H96.179V31.2163H94.5375V26.7805H92.7013V30.748H91.0598V32.098H89.5853V30.5551H87.9438V10.3044H86.3024V9.03704H84.6609V6.47471H83.0194V4.9318H81.1832V10.3044H79.4583V29.3153H77.9837V25.5131H76.3423V24.1079H74.7008V17.6608H73.0593V14.9332H71.4179V12.8117H69.5816V16.1454H67.9402V21.0497H66.2987V30.2796H64.8241V27.1387H62.9879V30.8582H61.5134V10.3044H59.8719V8.62376H58.2304V7.43902H56.3942V10.332H54.7528V19.5068H53.1113V30.3347H51.4698V30.7204H49.9953V14.3821H48.3538V12.481H46.7123V10.883H45.0709V8.95438H43.2346V12.481H41.5932V24.3835H39.9517V26.3121H38.4772V6.00632H36.6409V14.9056H34.9995V23.5294H33.358V33.145H31.8835V10.5524H30.0472V30.7204H28.5727V29.5908H26.9312V14.9056H25.2898V12.2882H23.6483V3.52665H21.5895V5.84101H19.9202V12.3157H18.2787V31.2163H16.8042V27.8275H15.1349V8.87172H13.2987V11.1861H11.8241V10.0014H9.98793V14.0515H8.59685V12.4535H6.76063V31.6021H5.20263V29.2051H3.33858V31.2163H1.86404V30.6653H0V35.3216H1.66929V36.6441H3.53333V33.8613H5.00787V34.3848H6.73281V46.2046H8.56903V22.3997H10.2105V19.0384H11.7963V16.1454H13.2709V48.7945H15.1071V35.8451H16.7764V33.4205H18.2509V59.6775H20.0871V39.785H21.7286V35.0736H23.2032V35.3767H25.0394V32.3735H26.5139V34.0818H28.1554V36.589H29.7969V50.117H31.6331V42.1545H33.2745V36.3961H34.916V23.7222H36.3906V52.266H38.2268V32.346H39.8682V29.3704H41.3428V49.7313H43.179V35.9828H44.6535V37.2227H46.4898V32.4011H47.9643V33.4205H49.6058V35.7624H51.2472V36.1481H52.8887V46.4526H54.5302V53.3406H56.3664V50.0343H58.0079V48.6292H59.4824V49.869H61.3186V36.8921H62.7932V42.4851H64.6294V37.4982H66.1039V52.6518H64.4625V59.6775H66.2987V56.2335H69.7207V49.6486H71.1953V51.8528H74.506V58.5754H76.3423V50.916H74.7008V32.9797H76.1753V39.6472H78.0115V35.542H79.4861V50.0619H81.3223V35.3491H82.7969V39.8126H84.6331V37.4155H86.1076V51.0262H87.9438V36.9747H89.5853V34.3573H91.0598V35.7073H92.7013V37.6911H94.5375V35.2114H96.179V34.0818H97.6535V35.2389H99.4898V34.0818H102.606V38.738H104.247V48.5465H102.606V50.9711H101.131V47.8302H99.4898V42.8984H97.6535V52.0456H100.964V59.0989H102.801V56.2611H104.442V52.514H106.083V34.3573H107.725V33.1174H109.227V54.6906H110.869V55.1314H112.705V53.2579H114.346V51.0262H115.988V48.7669H117.629V41.8789H115.988V36.6441H114.346V35.2389H115.96V34.0818H117.462V35.2389H119.104V36.4788H120.94V34.0542H125.753V38.4625H127.395V47.2791H125.753V51.9905H124.279V42.3749H122.637V39.7023H120.801V48.3812H122.443V54.8559H124.084V59.0989H125.92V54.6079H127.562V52.762H129.203V34.0542H130.678V35.1838H132.319V61H134.155V37.388H135.63V40.3636H137.271V50.5854H138.913V53.7263H140.749V43.8627H139.108V38.435H137.466V34.0818H140.666V35.2114H142.307V52.2109H144.143V35.3216H145.618V38.4901H147.454V34.9083H148.929V45.9015H150.765V37.4982H152.406V34.3297H154.048V32.5388H155.522V35.2665H157.359V34.3297H159V31.6021H157.219V31.6296ZM144.171 29.4806V15.7873H145.813V12.7841H147.287V16.0077H148.929V29.4806H147.287V31.8225H145.813V29.4806H144.171ZM112.538 44.6617V48.8496H111.064V35.0185H112.538V38.5452H114.18V44.0005H115.821V46.3975H114.346V44.6617H112.538ZM115.849 16.6414V22.2895H114.207V27.7173H112.566V29.4255H111.091V14.1341H112.733V12.3984H114.207V16.6689H115.849V16.6414ZM81.2945 29.4806V10.8555H82.769V13.2249H84.4105V16.421H86.052V30.0592H84.4105V33.1174H82.936V29.4806H81.2945ZM69.526 45.874V49.0976H68.0514V22.7028H71.3622V19.9752H72.8368V47.2791H71.3622V45.874H69.526ZM43.2625 28.902V17.523H44.9039V16.5587H46.3785V18.2945H48.02V25.7335H46.3785V29.701H44.9039V28.902H43.2625ZM54.8362 40.6116V23.6671H56.4777V12.6463H57.9522V13.7484H59.5937V40.6116H57.9522V45.1852H56.4777V40.6116H54.8362ZM20.115 30.6929V17.4679H21.7564V16.3383H23.231V19.0659H24.8724V26.257H23.231V32.1256H21.7564V30.6653H20.115V30.6929Z" fill="black"/>
</svg>
