<svg width="51" height="22" fill="none" xmlns="http://www.w3.org/2000/svg"><path fill-rule="evenodd" clip-rule="evenodd" d="M3.518 8.633c0-.57.452-.788 1.19-.788 1.06 0 2.387.336 3.448.935V5.347a8.788 8.788 0 00-3.449-.672C1.877 4.675 0 6.223 0 8.809c0 4.031 5.287 3.389 5.287 5.127 0 .672-.55.891-1.337.891-1.15 0-2.623-.497-3.793-1.168v3.476a9.198 9.198 0 003.793.833c2.9 0 4.894-1.505 4.894-4.12-.02-4.353-5.326-3.579-5.326-5.215zm9.415-6.88l-3.4.76-.01 11.7c0 2.162 1.542 3.755 3.606 3.755 1.14 0 1.975-.22 2.437-.482V14.52c-.442.19-2.643.862-2.643-1.3V8.034h2.643V4.923h-2.643l.01-3.17zm6.957 4.25l-.216-1.08h-3.008v12.782h3.48V9.042c.815-1.124 2.21-.92 2.643-.76V4.924c-.443-.175-2.074-.497-2.9 1.08zm3.744-1.08h3.498v12.782h-3.498V4.923zm0-1.11l3.498-.789V.059l-3.498.774v2.98zm10.77.862c-1.366 0-2.25.672-2.732 1.14l-.187-.907H28.43v17.033l3.48-.774.009-4.134c.501.38 1.238.92 2.467.92 2.496 0 4.766-2.103 4.766-6.734-.02-4.236-2.31-6.544-4.747-6.544zm-.836 10.064c-.825 0-1.316-.306-1.65-.686l-.01-5.42c.363-.423.864-.715 1.66-.715 1.258 0 2.143 1.49 2.143 3.403 0 1.958-.865 3.418-2.142 3.418zm16.55-3.374c0-3.74-1.73-6.69-5.022-6.69-3.321 0-5.326 2.95-5.326 6.66 0 4.398 2.368 6.618 5.768 6.618 1.651 0 2.91-.394 3.853-.95v-2.921c-.944.497-2.035.804-3.41.804-1.347 0-2.546-.497-2.703-2.22h6.81c0-.19.03-.95.03-1.301zm-6.88-1.388c0-1.65.964-2.337 1.838-2.337.855 0 1.76.687 1.76 2.337h-3.597z" fill="#00241F"/></svg>