<svg width="61" height="20" fill="none" xmlns="http://www.w3.org/2000/svg"><path fill-rule="evenodd" clip-rule="evenodd" d="M8.528 7.138v2.096l5.004-.003c-.153 1.156-.543 2.002-1.135 2.595-.73.73-1.869 1.534-3.87 1.534-3.083 0-5.496-2.487-5.496-5.574 0-3.086 2.413-5.573 5.497-5.573 1.664 0 2.879.654 3.776 1.496L13.78 2.23C12.531 1.035 10.867.117 8.53.117 4.307.117.755 3.56.755 7.787c0 4.226 3.552 7.668 7.775 7.668 2.279 0 3.999-.748 5.345-2.15 1.383-1.386 1.813-3.33 1.813-4.902 0-.468-.035-.9-.104-1.265H8.528zm42.214 8.017V.68h-2.114v14.475h2.114zm-29.261.302c2.727 0 4.95-2.095 4.95-4.939 0-2.863-2.223-4.939-4.95-4.939-2.729 0-4.952 2.076-4.952 4.94 0 2.843 2.223 4.938 4.952 4.938zm0-7.932c1.495 0 2.783 1.216 2.783 2.993 0 1.757-1.288 2.993-2.783 2.993-1.495 0-2.784-1.234-2.784-2.993 0-1.777 1.289-2.993 2.784-2.993zm10.68 7.932c2.728 0 4.951-2.095 4.951-4.939 0-2.863-2.223-4.939-4.95-4.939-2.729 0-4.952 2.078-4.952 4.94 0 2.843 2.223 4.938 4.951 4.938zm0-7.932c1.496 0 2.784 1.216 2.784 2.993 0 1.757-1.288 2.993-2.783 2.993-1.495 0-2.784-1.234-2.784-2.993 0-1.777 1.288-2.993 2.784-2.993zM47.349 5.88v8.865c0 3.647-2.15 5.137-4.69 5.137-2.393 0-3.833-1.601-4.376-2.91l1.887-.787c.336.804 1.16 1.753 2.485 1.753 1.627 0 2.635-1.004 2.635-2.895v-.71h-.075c-.485.599-1.42 1.122-2.599 1.122-2.468 0-4.73-2.151-4.73-4.919 0-2.788 2.262-4.957 4.73-4.957 1.176 0 2.112.524 2.599 1.105h.075V5.88h2.06zm-1.905 4.656c0-1.74-1.16-3.01-2.635-3.01-1.495 0-2.747 1.27-2.747 3.01 0 1.721 1.252 2.975 2.747 2.975 1.475 0 2.635-1.254 2.635-2.975zm13.536 1.608l1.682 1.122c-.543.804-1.85 2.189-4.112 2.189-2.803 0-4.897-2.169-4.897-4.939 0-2.937 2.111-4.939 4.655-4.939 2.561 0 3.813 2.04 4.224 3.142l.224.561-6.598 2.735c.505.99 1.29 1.496 2.392 1.496 1.104 0 1.87-.543 2.43-1.367zm-5.178-1.777l4.41-1.833c-.242-.617-.971-1.046-1.831-1.046-1.1 0-2.634.973-2.579 2.879z" fill="#00241F"/></svg>