<svg width="88" height="16" fill="none" xmlns="http://www.w3.org/2000/svg"><path fill-rule="evenodd" clip-rule="evenodd" d="M11.576.767l-3.001 7.84-3.02-7.84H.392v14.211h3.716V5.583l3.648 9.395h1.64l3.628-9.395v9.395h3.715V.767h-5.163zm12.698 11.57v-.918c-.344-.49-1.123-.725-1.854-.725-.864 0-1.664.385-1.664 1.194 0 .808.8 1.194 1.665 1.194.73 0 1.509-.256 1.853-.746v.001zm0 1.617c-.648.765-1.899 1.279-3.239 1.279-1.599 0-3.583-1.088-3.583-3.39 0-2.49 1.983-3.32 3.583-3.32 1.385 0 2.616.445 3.239 1.213V8.714c0-.895-.775-1.513-2.116-1.513-1.037 0-2.074.404-2.915 1.108l-1.23-2.281c1.34-1.128 3.132-1.597 4.727-1.597 2.506 0 4.863.918 4.863 4.113v6.434h-3.33v-1.024zm3.779-.319l1.383-2.341c.778.679 2.439 1.383 3.673 1.383.992 0 1.402-.28 1.402-.725 0-1.278-6.067.041-6.067-4.133 0-1.812 1.598-3.388 4.468-3.388 1.771 0 3.239.553 4.363 1.362l-1.271 2.326c-.628-.6-1.816-1.132-3.067-1.132-.779 0-1.296.299-1.296.704 0 1.128 6.043-.042 6.043 4.177 0 1.957-1.746 3.365-4.727 3.365-1.878 0-3.8-.62-4.904-1.598zm17.344 1.343V8.987c0-1.253-.669-1.658-1.731-1.658-.97 0-1.618.53-2.005 1v6.648h-3.329V.767h3.33v5.176c.623-.725 1.857-1.511 3.604-1.511 2.378 0 3.456 1.32 3.456 3.217v7.33h-3.325zm10.82-2.641v-.918c-.346-.49-1.123-.725-1.858-.725-.865 0-1.665.385-1.665 1.194 0 .808.8 1.194 1.665 1.194.735 0 1.512-.256 1.858-.746v.001zm0 1.617c-.649.765-1.903 1.279-3.24 1.279-1.599 0-3.587-1.088-3.587-3.39 0-2.49 1.988-3.32 3.588-3.32 1.381 0 2.611.445 3.239 1.213V8.714c0-.895-.78-1.513-2.116-1.513-1.037 0-2.075.404-2.919 1.108l-1.23-2.28c1.34-1.13 3.132-1.598 4.731-1.598 2.505 0 4.858.918 4.858 4.113v6.434h-3.324v-1.024zm9.715-1.617c1.316 0 2.312-.963 2.312-2.516 0-1.532-.996-2.495-2.312-2.495-.713 0-1.574.384-1.988.938v3.155c.414.554 1.275.918 1.988.918zM60.62.767h3.325v5.135a3.877 3.877 0 013.09-1.47c2.612 0 4.601 2.025 4.601 5.39 0 3.494-2.03 5.41-4.6 5.41-1.168 0-2.226-.468-3.091-1.447v1.193H60.62V.767zm11.684 0h3.325v14.211h-3.325V.767zm9.524 6.305c-1.448 0-2.009.853-2.14 1.597h4.3c-.089-.725-.626-1.597-2.16-1.597zm-5.531 2.75c0-2.981 2.267-5.391 5.531-5.391 3.087 0 5.334 2.236 5.334 5.73v.748h-7.429c.237.915 1.102 1.683 2.612 1.683.734 0 1.943-.32 2.55-.874l1.443 2.151c-1.034.915-2.763 1.364-4.359 1.364-3.218 0-5.682-2.067-5.682-5.412z" fill="#00241F"/></svg>