<svg width="69" height="16" fill="none" xmlns="http://www.w3.org/2000/svg"><path fill-rule="evenodd" clip-rule="evenodd" d="M11.414 1.325V9.06c0 2.582-1.148 3.655-3.84 3.655-2.693 0-3.841-1.073-3.841-3.655V.986H1.14c-.227 0-.34.113-.34.34v7.86c0 4.319 2.763 5.829 6.773 5.829 4.011 0 6.774-1.51 6.774-5.83V.987h-2.593c-.226 0-.34.113-.34.34zM49.007 3.23c.212 0 .311-.07.382-.226l.75-1.848c.043-.113 0-.17-.112-.17H39.583c-.978 0-1.346.297-1.346.96v12.01c0 .565.283.819 1.034.819h9.736c.212 0 .311-.071.382-.226l.75-1.85c.043-.112 0-.168-.112-.168h-8.913v-2.442c0-.847.467-1.228 1.727-1.228h3.87c.213 0 .311-.07.382-.225l.723-1.779c.042-.113 0-.17-.113-.17h-6.59V3.231h7.894zm-21.105 9.329h-5.117v-2.526c0-.847.467-1.228 1.73-1.228h3.387c1.63 0 2.083.62 2.083 1.891 0 1.27-.453 1.863-2.083 1.863zm-5.117-9.357h4.578c1.531 0 1.956.574 1.956 1.764s-.425 1.764-1.956 1.764h-4.578V3.202zm7.838 4.304c1.133-.592 1.6-1.707 1.6-3.02 0-3.048-2.493-3.5-5.072-3.5h-5.896c-.977 0-1.345.297-1.345.96v12.01c0 .565.283.819 1.034.819H28.2c2.735 0 4.69-1.059 4.69-3.81 0-1.652-.708-3.05-2.267-3.459zm32.208-.126h-4.817V3.201h4.817c1.8 0 2.197.692 2.197 2.089 0 1.411-.397 2.088-2.197 2.088zm5.414 7.155l-3.103-5.307c1.545-.395 2.791-1.41 2.791-3.994 0-3.344-2.082-4.248-5.526-4.248h-5.923c-.978 0-1.347.297-1.347.96v12.49c0 .226.114.338.34.338h2.537v-4.021c0-.847.468-1.228 1.729-1.228h2.551l2.805 5.024c.086.14.171.226.383.226h2.636c.185 0 .185-.156.127-.24z" fill="#00241F"/></svg>