<svg width="88" height="24" fill="none" xmlns="http://www.w3.org/2000/svg"><path fill-rule="evenodd" clip-rule="evenodd" d="M45.453 4.8c0 .991-.812 1.79-1.82 1.79-1.009 0-1.82-.799-1.82-1.79 0-.993.783-1.792 1.82-1.792 1.036.027 1.82.827 1.82 1.791zm-7.505 3.61v.44s-.868-1.102-2.717-1.102c-3.052 0-5.433 2.287-5.433 5.456 0 3.142 2.353 5.456 5.433 5.456 1.877 0 2.717-1.13 2.717-1.13V18c0 .22.168.386.392.386h2.268V8.023H38.34a.397.397 0 00-.392.386zm0 6.64c-.42.607-1.26 1.13-2.27 1.13-1.791 0-3.164-1.102-3.164-2.976 0-1.874 1.372-2.976 3.165-2.976.98 0 1.876.551 2.268 1.13v3.692zm4.34-7.027h2.689v10.362h-2.689V8.023zm40.16-.275c-1.849 0-2.717 1.102-2.717 1.102V3.035h-2.688v15.35h2.268a.397.397 0 00.392-.386v-.468s.868 1.13 2.717 1.13c3.052 0 5.433-2.316 5.433-5.457 0-3.142-2.38-5.456-5.405-5.456zM82 16.153c-1.037 0-1.849-.524-2.269-1.13V11.33c.42-.551 1.316-1.13 2.269-1.13 1.792 0 3.164 1.103 3.164 2.977 0 1.873-1.372 2.976-3.165 2.976zm-6.358-3.913v6.172h-2.688v-5.87c0-1.708-.56-2.397-2.073-2.397-.812 0-1.652.414-2.184 1.02v7.22h-2.689V8.023h2.129c.224 0 .392.193.392.386v.441c.784-.8 1.82-1.102 2.856-1.102 1.177 0 2.157.33 2.94.992.953.771 1.317 1.763 1.317 3.5zM59.484 7.747c-1.849 0-2.717 1.102-2.717 1.102V3.035H54.08v15.35h2.268a.397.397 0 00.392-.386v-.468s.868 1.13 2.717 1.13c3.052 0 5.433-2.316 5.433-5.457.028-3.142-2.353-5.456-5.405-5.456zm-.449 8.405c-1.036 0-1.848-.524-2.268-1.13V11.33c.42-.551 1.316-1.13 2.268-1.13 1.793 0 3.165 1.103 3.165 2.977 0 1.873-1.372 2.976-3.165 2.976zm-7.28-8.405c.811 0 1.231.138 1.231.138v2.452s-2.24-.744-3.64.827v7.247h-2.689V8.023h2.269c.224 0 .392.193.392.386v.441c.504-.579 1.596-1.102 2.436-1.102zm-29.163 9.31c-.121-.29-.243-.602-.364-.866-.195-.432-.39-.84-.56-1.225l-.025-.024a249.33 249.33 0 00-5.378-10.859l-.073-.144a46.98 46.98 0 01-.584-1.13c-.243-.432-.487-.888-.876-1.32A3.95 3.95 0 0011.642 0C10.425 0 9.33.529 8.527 1.441c-.365.433-.633.89-.876 1.322-.195.384-.39.769-.585 1.129l-.073.144a280.577 280.577 0 00-5.378 10.859l-.024.048c-.17.384-.365.793-.56 1.225-.121.265-.243.553-.365.865-.316.889-.413 1.73-.292 2.595a5.118 5.118 0 003.164 3.988A5.06 5.06 0 005.509 24a6.486 6.486 0 003.066-.865c.998-.553 1.947-1.345 3.018-2.498 1.07 1.153 2.044 1.945 3.017 2.498a6.486 6.486 0 003.067.865 4.97 4.97 0 001.97-.384 5.108 5.108 0 003.165-3.988c.194-.841.097-1.682-.22-2.57zm-10.952.996c-1.263-1.586-2.08-3.078-2.361-4.337-.117-.536-.14-1.003-.07-1.422.046-.373.186-.7.374-.98.444-.63 1.192-1.026 2.057-1.026.864 0 1.636.373 2.057 1.026.187.28.327.607.374.98.07.42.046.909-.07 1.422-.28 1.236-1.1 2.728-2.361 4.337zm9.487 1.207c-.167 1.221-1 2.277-2.165 2.747a3.65 3.65 0 01-1.808.235 4.72 4.72 0 01-1.809-.61c-.856-.47-1.713-1.198-2.712-2.278 1.57-1.901 2.522-3.639 2.879-5.188.166-.728.19-1.385.119-1.995a3.78 3.78 0 00-.643-1.597c-.737-1.056-1.974-1.667-3.354-1.667-1.38 0-2.618.634-3.355 1.667a3.781 3.781 0 00-.643 1.597 4.811 4.811 0 00.12 1.995c.356 1.55 1.332 3.31 2.878 5.212-.975 1.08-1.856 1.807-2.712 2.277a4.72 4.72 0 01-1.808.61 3.854 3.854 0 01-1.809-.234c-1.165-.47-1.998-1.526-2.165-2.747a3.838 3.838 0 01.214-1.831c.072-.235.19-.47.31-.752.166-.375.357-.774.547-1.173l.024-.047A255.227 255.227 0 018.469 4.94l.072-.14c.19-.353.38-.729.57-1.08.19-.376.405-.728.667-1.034a2.501 2.501 0 011.903-.868c.738 0 1.404.305 1.904.868.261.306.475.658.666 1.033.19.352.38.728.57 1.08l.072.141a309.468 309.468 0 015.21 10.564v.024c.191.375.358.798.548 1.173.119.282.238.517.31.752.19.61.26 1.197.166 1.807z" fill="#00241F"/></svg>