<svg width="52" height="20" fill="none" xmlns="http://www.w3.org/2000/svg"><path fill-rule="evenodd" clip-rule="evenodd" d="M5.93 19.522c-1.535-.063-2.792-.5-3.774-1.31a7.673 7.673 0 01-.784-.814 5.138 5.138 0 01-.85-1.586c-.556-1.728-.27-3.995.819-6.483.931-2.13 2.368-4.243 4.876-7.169C6.586 1.73 7.686.47 7.694.47c0 0-.058.108-.133.24-.652 1.133-1.21 2.468-1.514 3.624-.489 1.854-.43 3.446.172 4.68.415.85 1.127 1.587 1.927 1.994 1.402.712 3.453.77 5.957.172.172-.041 8.718-2.396 18.991-5.232C43.368 3.112 51.774.793 51.774.795c.004.002-23.865 10.602-36.257 16.101-1.962.87-2.486 1.09-3.409 1.427-2.358.859-4.471 1.27-6.178 1.199z" fill="#00241F"/></svg>