<svg width="119" height="16" fill="none" xmlns="http://www.w3.org/2000/svg"><path fill-rule="evenodd" clip-rule="evenodd" d="M17.553 15.485V8.67c0-2.572-1.63-4.303-4.255-4.326A4.18 4.18 0 009.5 6.28a3.964 3.964 0 00-3.573-1.936 3.57 3.57 0 00-3.162 1.618V4.598H.412v10.887h2.376v-6.03c0-1.89 1.039-2.89 2.647-2.89 1.608 0 2.353 1.023 2.353 2.867v6.053h2.362v-6.03c0-1.89 1.084-2.89 2.647-2.89 1.562 0 2.375 1.023 2.375 2.867v6.053h2.38zM52.705 4.607h-3.843v-3.3h-2.376v3.3h-2.195V6.77h2.195v4.957c0 2.527.971 4.03 3.753 4.03a5.503 5.503 0 002.94-.84l-.677-2.027a4.325 4.325 0 01-2.082.614c-1.174 0-1.563-.727-1.563-1.818V6.77h3.844l.004-2.163zm20.068-.273a3.185 3.185 0 00-2.85 1.595V4.607h-2.33v10.878h2.352V9.387c0-1.818.768-2.8 2.308-2.8a3.814 3.814 0 011.473.274l.722-2.232a5 5 0 00-1.675-.295zM42.435 5.47a8.047 8.047 0 00-4.413-1.136c-2.737 0-4.517 1.322-4.517 3.48 0 1.778 1.31 2.868 3.731 3.209l1.107.159c1.287.182 1.901.522 1.901 1.136 0 .84-.858 1.322-2.466 1.322a5.739 5.739 0 01-3.613-1.136l-1.07 1.84a7.766 7.766 0 004.683 1.414c3.121 0 4.932-1.481 4.932-3.55 0-1.912-1.427-2.912-3.776-3.253l-1.106-.159c-1.017-.136-1.834-.34-1.834-1.067 0-.796.768-1.273 2.06-1.273a6.937 6.937 0 013.369.932l1.012-1.918zm63.016-1.136a3.184 3.184 0 00-2.85 1.595V4.607h-2.331v10.878h2.353V9.387c0-1.818.768-2.8 2.308-2.8a3.82 3.82 0 011.473.274l.722-2.232a4.997 4.997 0 00-1.675-.295zm-30.303 5.712c0 3.299 2.286 5.712 5.768 5.712a5.64 5.64 0 003.889-1.3l-1.13-1.913a4.733 4.733 0 01-2.827.977c-1.879 0-3.256-1.39-3.256-3.48s1.382-3.459 3.256-3.481a4.733 4.733 0 012.828.977l1.129-1.913a5.642 5.642 0 00-3.889-1.3c-3.482 0-5.768 2.413-5.768 5.712v.009zM97.18 4.593h-2.353v1.322a4.091 4.091 0 00-3.414-1.595c-3.03 0-5.42 2.39-5.42 5.712 0 3.322 2.376 5.712 5.42 5.712a4.091 4.091 0 003.414-1.595v1.318h2.353V4.593zm-8.753 5.453c0-1.913 1.242-3.48 3.28-3.48 1.946 0 3.256 1.503 3.256 3.48s-1.31 3.48-3.257 3.48c-2.037 0-3.279-1.572-3.279-3.48zM60.035 4.334c-3.161 0-5.383 2.322-5.383 5.712 0 3.458 2.308 5.712 5.542 5.712a6.547 6.547 0 004.435-1.527l-1.152-1.754a5.135 5.135 0 01-3.161 1.136c-1.518 0-2.896-.704-3.234-2.663h8.03c.023-.295.045-.59.045-.909 0-3.39-2.104-5.711-5.135-5.711l.014.004zm-.044 2.118c1.517 0 2.488.954 2.737 2.64h-5.605c.248-1.572 1.197-2.64 2.872-2.64h-.004zM119 .235h-2.353v5.69a4.092 4.092 0 00-3.415-1.595c-3.03 0-5.42 2.39-5.42 5.711 0 3.322 2.376 5.712 5.42 5.712a4.092 4.092 0 003.415-1.595v1.318H119V.236zm-8.744 9.81c0-1.912 1.242-3.48 3.279-3.48 1.946 0 3.256 1.504 3.256 3.48 0 1.978-1.31 3.482-3.256 3.482-2.037 0-3.279-1.573-3.279-3.481zm-79.447.001V4.593h-2.353v1.322a4.091 4.091 0 00-3.401-1.58c-3.031 0-5.42 2.39-5.42 5.711 0 3.322 2.375 5.712 5.42 5.712a4.091 4.091 0 003.414-1.595v1.318h2.353l-.013-5.435zm-8.753 0c0-1.913 1.242-3.48 3.279-3.48 1.946 0 3.256 1.503 3.256 3.48s-1.31 3.48-3.256 3.48c-2.037 0-3.28-1.567-3.28-3.48z" fill="#00241F"/></svg>