<svg width="64" height="64" viewBox="0 0 64 64" fill="none" xmlns="http://www.w3.org/2000/svg">
<path d="M16.4102 32.3737C16.4102 28.1659 17.8872 24.4435 20.841 21.5303C23.4666 18.779 27.4051 16.8369 32.1641 16.8369C35.7743 16.8369 38.5641 17.808 41.1897 19.7501C43.8154 21.5303 45.6205 24.1198 46.9333 27.033C46.441 25.9001 45.7846 24.7672 44.8 23.6343C43.9795 22.6632 42.1743 20.7211 39.8769 19.5882C35.4461 17.3224 29.8666 17.1606 25.1077 20.2356C22.1538 22.3395 20.0205 25.4145 19.5282 28.6514C18.8718 31.8882 19.5282 34.9632 21.0051 37.5527C23.959 42.5698 29.2102 44.0264 33.1487 43.5408C36.9231 43.0553 39.0564 41.4369 40.3692 40.6277C41.682 39.8185 42.3384 39.8185 42.9949 39.9803C43.4872 40.304 43.8154 40.6277 44.3077 40.6277C44.8 40.4658 45.1282 40.1422 45.4564 39.8185C46.2769 38.5237 46.9333 37.3908 47.2615 35.9343C46.2769 39.333 44.4718 42.2461 41.8461 44.5119C39.0564 46.6158 35.6102 47.9106 32 47.9106C28.0615 47.9106 24.1231 46.454 21.0051 43.5408C19.5282 42.0843 18.2154 40.304 17.3949 38.5237C16.5743 36.4198 16.082 34.6395 16.082 32.3737H16.4102Z" fill="#19F7CE"/>
<path d="M8.01013e-05 32.3738C8.01013e-05 23.7962 3.28213 16.1896 9.02572 10.2015C14.6052 4.53699 22.4821 0.329102 32.3283 0.329102C39.7129 0.329102 45.6206 2.43305 51.036 6.15541C56.4514 9.87778 60.2257 15.0567 62.6873 21.0449C61.5385 18.4554 60.2257 16.3515 58.4206 14.2475C56.6155 12.1436 53.0052 8.25936 48.4103 5.83173C39.3847 1.13831 27.7334 0.814628 17.8873 7.28831C11.6514 11.4962 7.5488 18.1317 6.23598 24.6054C4.92316 31.2409 6.23598 37.7146 9.18982 42.8936C15.2616 53.0896 25.9283 56.3264 34.2975 55.3554C42.0103 54.3843 46.277 51.1475 49.2308 49.3672C51.8565 47.7488 53.3334 47.587 54.6462 48.2343C55.4667 48.8817 56.2873 49.5291 57.436 49.3672C58.4206 49.3672 59.2411 48.558 59.7334 47.587C61.3744 44.9975 62.6873 42.5699 63.6719 39.4949C61.7026 46.6159 57.9283 52.6041 52.3488 56.9738C46.6052 61.1817 39.5488 63.933 32.1642 63.933C23.9591 63.933 16.0821 61.0199 9.68213 55.0317C6.72828 52.1186 3.93854 48.2343 2.29752 44.6738C0.492388 40.4659 -0.328125 36.5817 -0.328125 32.0501L8.01013e-05 32.3738Z" fill="#19F7CE"/>
<path d="M22.3174 32.3739C22.3174 27.0331 26.7482 22.8252 31.9994 22.8252C37.4148 22.8252 41.6815 27.1949 41.6815 32.3739C41.6815 37.7147 37.2507 41.9226 31.9994 41.9226C26.584 41.9226 22.3174 37.5528 22.3174 32.3739Z" fill="#041310"/>
</svg>
