<svg width="1440" height="209" viewBox="0 0 1440 209" fill="none" xmlns="http://www.w3.org/2000/svg">
<g opacity="0.04">
<mask id="path-1-inside-1_176_82" fill="white">
<path d="M177.146 0.0353908C174.971 0.50158 173.03 1.72196 171.668 3.48055C170.307 5.23915 169.611 7.42256 169.705 9.64439V198.056C169.484 199.404 169.559 200.784 169.925 202.1C170.291 203.417 170.938 204.637 171.823 205.679C172.708 206.72 173.809 207.556 175.049 208.129C176.289 208.703 177.64 209 179.006 209C180.373 209 181.723 208.703 182.964 208.129C184.204 207.556 185.305 206.72 186.189 205.679C187.074 204.637 187.722 203.417 188.088 202.1C188.453 200.784 188.528 199.404 188.307 198.056V9.64439C188.339 8.32002 188.09 7.00389 187.579 5.78194C187.067 4.55999 186.303 3.4597 185.336 2.5529C184.37 1.6461 183.223 0.953187 181.971 0.51939C180.719 0.0855927 179.389 -0.0793302 178.069 0.0353908C177.761 0.0203349 177.453 0.0203349 177.146 0.0353908ZM58.0919 9.9518C55.9165 10.418 53.9762 11.6384 52.6144 13.397C51.2526 15.1556 50.5571 17.339 50.6511 19.5608V188.14C50.4301 189.488 50.5051 190.868 50.8708 192.184C51.2365 193.5 51.8842 194.721 52.769 195.762C53.6538 196.803 54.7545 197.639 55.9949 198.213C57.2352 198.787 58.5855 199.084 59.9521 199.084C61.3188 199.084 62.6691 198.787 63.9094 198.213C65.1498 197.639 66.2505 196.803 67.1353 195.762C68.0201 194.721 68.6678 193.5 69.0335 192.184C69.3992 190.868 69.4742 189.488 69.2533 188.14V19.5608C69.2847 18.2364 69.0364 16.9203 68.5245 15.6984C68.0126 14.4764 67.2486 13.3761 66.2823 12.4693C65.3161 11.5625 64.1694 10.8696 62.9171 10.4358C61.6648 10.002 60.335 9.83708 59.0146 9.9518C58.7072 9.93675 58.3993 9.93675 58.0919 9.9518ZM147.382 39.701C145.207 40.1672 143.267 41.3876 141.905 43.1462C140.543 44.9048 139.848 47.0882 139.942 49.31V158.391C139.716 159.74 139.787 161.123 140.15 162.443C140.513 163.762 141.16 164.987 142.045 166.031C142.93 167.076 144.031 167.915 145.274 168.491C146.516 169.066 147.869 169.364 149.238 169.364C150.607 169.364 151.96 169.066 153.202 168.491C154.444 167.915 155.546 167.076 156.431 166.031C157.315 164.987 157.962 163.762 158.325 162.443C158.688 161.123 158.76 159.74 158.534 158.391V49.31C158.565 47.9875 158.317 46.6732 157.807 45.4527C157.296 44.2323 156.534 43.133 155.57 42.2265C154.606 41.32 153.461 40.6266 152.211 40.1915C150.961 39.7564 149.634 39.5893 148.315 39.701C148.001 39.6853 147.696 39.6853 147.382 39.701ZM28.3284 49.6175C26.153 50.0836 24.2127 51.304 22.8509 53.0626C21.4891 54.8212 20.7936 57.0046 20.8875 59.2265V148.474C20.6618 149.824 20.733 151.207 21.0962 152.526C21.4594 153.846 22.1059 155.07 22.9907 156.115C23.8755 157.159 24.9773 157.999 26.2195 158.574C27.4617 159.15 28.8145 159.448 30.1837 159.448C31.5529 159.448 32.9056 159.15 34.1479 158.574C35.3901 157.999 36.4919 157.159 37.3767 156.115C38.2614 155.07 38.9079 153.846 39.2711 152.526C39.6343 151.207 39.7055 149.824 39.4798 148.474V59.2265C39.511 57.9039 39.2632 56.5896 38.7524 55.3691C38.2417 54.1487 37.4795 53.0494 36.5155 52.1429C35.5515 51.2364 34.4073 50.5431 33.1574 50.1079C31.9074 49.6728 30.5798 49.5057 29.261 49.6175C28.947 49.6017 28.6424 49.6017 28.3284 49.6175ZM87.8554 59.5339C85.68 60.0001 83.7397 61.2204 82.3779 62.979C81.0161 64.7376 80.3206 66.921 80.4146 69.1429V138.558C80.1888 139.908 80.26 141.29 80.6232 142.61C80.9865 143.929 81.6329 145.154 82.5177 146.198C83.4025 147.243 84.5043 148.082 85.7465 148.658C86.9887 149.233 88.3415 149.532 89.7107 149.532C91.0799 149.532 92.4327 149.233 93.6749 148.658C94.9171 148.082 96.0189 147.243 96.9037 146.198C97.7885 145.154 98.435 143.929 98.7982 142.61C99.1614 141.29 99.2326 139.908 99.0068 138.558V69.1429C99.038 67.8203 98.7902 66.506 98.2795 65.2855C97.7687 64.0651 97.0065 62.9658 96.0425 62.0593C95.0785 61.1528 93.9343 60.4595 92.6844 60.0243C91.4345 59.5892 90.1069 59.4221 88.788 59.5339C88.4741 59.5182 88.1694 59.5182 87.8554 59.5339ZM206.91 59.5339C204.734 60.0001 202.794 61.2204 201.432 62.979C200.07 64.7376 199.375 66.921 199.469 69.1429V138.558C199.248 139.906 199.323 141.286 199.688 142.602C200.054 143.918 200.702 145.139 201.587 146.18C202.471 147.221 203.572 148.057 204.812 148.631C206.053 149.204 207.403 149.502 208.77 149.502C210.136 149.502 211.487 149.204 212.727 148.631C213.967 148.057 215.068 147.221 215.953 146.18C216.838 145.139 217.485 143.918 217.851 142.602C218.217 141.286 218.292 139.906 218.071 138.558V69.1429C218.102 67.8185 217.854 66.5024 217.342 65.2804C216.83 64.0585 216.066 62.9582 215.1 62.0514C214.134 61.1446 212.987 60.4517 211.735 60.0179C210.482 59.5841 209.153 59.4191 207.832 59.5339C207.525 59.5188 207.217 59.5188 206.91 59.5339ZM-1.43511 79.3667C-3.61055 79.8329 -5.55086 81.0533 -6.91266 82.8119C-8.27445 84.5704 -8.96992 86.7539 -8.87598 88.9757V118.725C-9.09695 120.073 -9.02198 121.453 -8.65627 122.769C-8.29056 124.085 -7.64286 125.306 -6.75806 126.347C-5.87326 127.388 -4.77253 128.225 -3.53218 128.798C-2.29183 129.372 -0.941534 129.669 0.425114 129.669C1.79176 129.669 3.14206 129.372 4.38241 128.798C5.62276 128.225 6.72348 127.388 7.60828 126.347C8.49308 125.306 9.14079 124.085 9.5065 122.769C9.87221 121.453 9.94718 120.073 9.72621 118.725V88.9757C9.7577 87.6513 9.50937 86.3352 8.99745 85.1133C8.48553 83.8913 7.72152 82.791 6.7553 81.8842C5.78908 80.9774 4.64238 80.2845 3.39006 79.8507C2.13774 79.4169 0.807973 79.252 -0.512437 79.3667C-0.823111 79.3513 -1.13435 79.3513 -1.44503 79.3667H-1.43511ZM117.619 79.3667C115.444 79.8329 113.503 81.0533 112.141 82.8119C110.78 84.5704 110.084 86.7539 110.178 88.9757V118.725C109.952 120.075 110.024 121.458 110.387 122.777C110.75 124.097 111.396 125.321 112.281 126.366C113.166 127.41 114.268 128.249 115.51 128.825C116.752 129.4 118.105 129.699 119.474 129.699C120.843 129.699 122.196 129.4 123.438 128.825C124.681 128.249 125.782 127.41 126.667 126.366C127.552 125.321 128.198 124.097 128.562 122.777C128.925 121.458 128.996 120.075 128.77 118.725V88.9757C128.802 87.6531 128.554 86.3388 128.043 85.1184C127.532 83.8979 126.77 82.7986 125.806 81.8922C124.842 80.9857 123.698 80.2923 122.448 79.8572C121.198 79.422 119.87 79.2549 118.552 79.3667C118.238 79.351 117.933 79.351 117.619 79.3667ZM236.673 79.3667C234.498 79.8329 232.557 81.0533 231.195 82.8119C229.834 84.5704 229.138 86.7539 229.232 88.9757V118.725C229.011 120.073 229.086 121.453 229.452 122.769C229.818 124.085 230.465 125.306 231.35 126.347C232.235 127.388 233.336 128.225 234.576 128.798C235.816 129.372 237.167 129.669 238.533 129.669C239.9 129.669 241.25 129.372 242.491 128.798C243.731 128.225 244.832 127.388 245.716 126.347C246.601 125.306 247.249 124.085 247.615 122.769C247.98 121.453 248.055 120.073 247.834 118.725V88.9757C247.866 87.6513 247.617 86.3352 247.106 85.1133C246.594 83.8913 245.83 82.791 244.863 81.8842C243.897 80.9774 242.751 80.2845 241.498 79.8507C240.246 79.4169 238.916 79.252 237.596 79.3667C237.288 79.3516 236.98 79.3516 236.673 79.3667Z"/>
<path d="M417.354 0.0353908C415.179 0.50158 413.239 1.72196 411.877 3.48055C410.515 5.23915 409.819 7.42256 409.913 9.64439V198.056C409.692 199.404 409.767 200.784 410.133 202.1C410.499 203.417 411.147 204.637 412.031 205.679C412.916 206.72 414.017 207.556 415.257 208.129C416.498 208.703 417.848 209 419.215 209C420.581 209 421.931 208.703 423.172 208.129C424.412 207.556 425.513 206.72 426.398 205.679C427.283 204.637 427.93 203.417 428.296 202.1C428.662 200.784 428.737 199.404 428.516 198.056V9.64439C428.547 8.32002 428.299 7.00389 427.787 5.78194C427.275 4.55999 426.511 3.4597 425.545 2.5529C424.579 1.6461 423.432 0.953187 422.18 0.51939C420.927 0.0855927 419.597 -0.0793302 418.277 0.0353908C417.97 0.0203349 417.662 0.0203349 417.354 0.0353908ZM298.3 9.9518C296.125 10.418 294.185 11.6384 292.823 13.397C291.461 15.1556 290.765 17.339 290.859 19.5608V188.14C290.638 189.488 290.713 190.868 291.079 192.184C291.445 193.5 292.093 194.721 292.977 195.762C293.862 196.803 294.963 197.639 296.203 198.213C297.444 198.787 298.794 199.084 300.16 199.084C301.527 199.084 302.877 198.787 304.118 198.213C305.358 197.639 306.459 196.803 307.344 195.762C308.228 194.721 308.876 193.5 309.242 192.184C309.608 190.868 309.683 189.488 309.462 188.14V19.5608C309.493 18.2364 309.245 16.9203 308.733 15.6984C308.221 14.4764 307.457 13.3761 306.491 12.4693C305.524 11.5625 304.378 10.8696 303.125 10.4358C301.873 10.002 300.543 9.83708 299.223 9.9518C298.916 9.93675 298.608 9.93675 298.3 9.9518ZM387.591 39.701C385.415 40.1672 383.475 41.3876 382.113 43.1462C380.751 44.9048 380.056 47.0882 380.15 49.31V158.391C379.924 159.74 379.995 161.123 380.359 162.443C380.722 163.762 381.368 164.987 382.253 166.031C383.138 167.076 384.24 167.915 385.482 168.491C386.724 169.066 388.077 169.364 389.446 169.364C390.815 169.364 392.168 169.066 393.41 168.491C394.652 167.915 395.754 167.076 396.639 166.031C397.524 164.987 398.17 163.762 398.534 162.443C398.897 161.123 398.968 159.74 398.742 158.391V49.31C398.773 47.9875 398.526 46.6732 398.015 45.4527C397.504 44.2323 396.742 43.133 395.778 42.2265C394.814 41.32 393.67 40.6266 392.42 40.1915C391.17 39.7564 389.842 39.5893 388.523 39.701C388.209 39.6853 387.905 39.6853 387.591 39.701ZM268.537 49.6175C266.361 50.0836 264.421 51.304 263.059 53.0626C261.697 54.8212 261.002 57.0046 261.096 59.2265V148.474C260.87 149.824 260.941 151.207 261.305 152.526C261.668 153.846 262.314 155.07 263.199 156.115C264.084 157.159 265.186 157.999 266.428 158.574C267.67 159.15 269.023 159.448 270.392 159.448C271.761 159.448 273.114 159.15 274.356 158.574C275.598 157.999 276.7 157.159 277.585 156.115C278.47 155.07 279.116 153.846 279.479 152.526C279.843 151.207 279.914 149.824 279.688 148.474V59.2265C279.719 57.9039 279.471 56.5896 278.961 55.3691C278.45 54.1487 277.688 53.0494 276.724 52.1429C275.76 51.2364 274.616 50.5431 273.366 50.1079C272.116 49.6728 270.788 49.5057 269.469 49.6175C269.155 49.6017 268.851 49.6017 268.537 49.6175ZM328.064 59.5339C325.888 60.0001 323.948 61.2204 322.586 62.979C321.224 64.7376 320.529 66.921 320.623 69.1429V138.558C320.397 139.908 320.468 141.29 320.832 142.61C321.195 143.929 321.841 145.154 322.726 146.198C323.611 147.243 324.713 148.082 325.955 148.658C327.197 149.233 328.55 149.532 329.919 149.532C331.288 149.532 332.641 149.233 333.883 148.658C335.125 148.082 336.227 147.243 337.112 146.198C337.997 145.154 338.643 143.929 339.007 142.61C339.37 141.29 339.441 139.908 339.215 138.558V69.1429C339.246 67.8203 338.999 66.506 338.488 65.2855C337.977 64.0651 337.215 62.9658 336.251 62.0593C335.287 61.1528 334.143 60.4595 332.893 60.0243C331.643 59.5892 330.315 59.4221 328.996 59.5339C328.682 59.5182 328.378 59.5182 328.064 59.5339ZM447.118 59.5339C444.942 60.0001 443.002 61.2204 441.64 62.979C440.278 64.7376 439.583 66.921 439.677 69.1429V138.558C439.456 139.906 439.531 141.286 439.897 142.602C440.262 143.918 440.91 145.139 441.795 146.18C442.68 147.221 443.78 148.057 445.021 148.631C446.261 149.204 447.611 149.502 448.978 149.502C450.345 149.502 451.695 149.204 452.935 148.631C454.176 148.057 455.276 147.221 456.161 146.18C457.046 145.139 457.694 143.918 458.059 142.602C458.425 141.286 458.5 139.906 458.279 138.558V69.1429C458.311 67.8185 458.062 66.5024 457.55 65.2804C457.038 64.0585 456.274 62.9582 455.308 62.0514C454.342 61.1446 453.195 60.4517 451.943 60.0179C450.691 59.5841 449.361 59.4191 448.041 59.5339C447.733 59.5188 447.425 59.5188 447.118 59.5339ZM238.773 79.3667C236.598 79.8329 234.657 81.0533 233.296 82.8119C231.934 84.5704 231.238 86.7539 231.332 88.9757V118.725C231.111 120.073 231.186 121.453 231.552 122.769C231.918 124.085 232.565 125.306 233.45 126.347C234.335 127.388 235.436 128.225 236.676 128.798C237.916 129.372 239.267 129.669 240.633 129.669C242 129.669 243.35 129.372 244.591 128.798C245.831 128.225 246.932 127.388 247.817 126.347C248.701 125.306 249.349 124.085 249.715 122.769C250.081 121.453 250.156 120.073 249.935 118.725V88.9757C249.966 87.6513 249.718 86.3352 249.206 85.1133C248.694 83.8913 247.93 82.791 246.964 81.8842C245.997 80.9774 244.851 80.2845 243.598 79.8507C242.346 79.4169 241.016 79.252 239.696 79.3667C239.385 79.3513 239.074 79.3513 238.763 79.3667H238.773ZM357.827 79.3667C355.652 79.8329 353.712 81.0533 352.35 82.8119C350.988 84.5704 350.292 86.7539 350.386 88.9757V118.725C350.161 120.075 350.232 121.458 350.595 122.777C350.958 124.097 351.605 125.321 352.49 126.366C353.374 127.41 354.476 128.249 355.718 128.825C356.961 129.4 358.313 129.699 359.683 129.699C361.052 129.699 362.405 129.4 363.647 128.825C364.889 128.249 365.991 127.41 366.876 126.366C367.76 125.321 368.407 124.097 368.77 122.777C369.133 121.458 369.204 120.075 368.979 118.725V88.9757C369.01 87.6531 368.762 86.3388 368.251 85.1184C367.741 83.8979 366.978 82.7986 366.014 81.8922C365.05 80.9857 363.906 80.2923 362.656 79.8572C361.406 79.422 360.079 79.2549 358.76 79.3667C358.446 79.351 358.141 79.351 357.827 79.3667ZM476.881 79.3667C474.706 79.8329 472.766 81.0533 471.404 82.8119C470.042 84.5704 469.347 86.7539 469.44 88.9757V118.725C469.22 120.073 469.294 121.453 469.66 122.769C470.026 124.085 470.674 125.306 471.558 126.347C472.443 127.388 473.544 128.225 474.784 128.798C476.025 129.372 477.375 129.669 478.742 129.669C480.108 129.669 481.458 129.372 482.699 128.798C483.939 128.225 485.04 127.388 485.925 126.347C486.81 125.306 487.457 124.085 487.823 122.769C488.189 121.453 488.264 120.073 488.043 118.725V88.9757C488.074 87.6513 487.826 86.3352 487.314 85.1133C486.802 83.8913 486.038 82.791 485.072 81.8842C484.106 80.9774 482.959 80.2845 481.707 79.8507C480.454 79.4169 479.124 79.252 477.804 79.3667C477.497 79.3516 477.189 79.3516 476.881 79.3667Z"/>
<path d="M657.563 0.0353908C655.387 0.50158 653.447 1.72196 652.085 3.48055C650.723 5.23915 650.028 7.42256 650.122 9.64439V198.056C649.901 199.404 649.976 200.784 650.341 202.1C650.707 203.417 651.355 204.637 652.24 205.679C653.125 206.72 654.225 207.556 655.466 208.129C656.706 208.703 658.056 209 659.423 209C660.79 209 662.14 208.703 663.38 208.129C664.62 207.556 665.721 206.72 666.606 205.679C667.491 204.637 668.138 203.417 668.504 202.1C668.87 200.784 668.945 199.404 668.724 198.056V9.64439C668.755 8.32002 668.507 7.00389 667.995 5.78194C667.483 4.55999 666.719 3.4597 665.753 2.5529C664.787 1.6461 663.64 0.953187 662.388 0.51939C661.135 0.0855927 659.806 -0.0793302 658.485 0.0353908C658.178 0.0203349 657.87 0.0203349 657.563 0.0353908ZM538.509 9.9518C536.333 10.418 534.393 11.6384 533.031 13.397C531.669 15.1556 530.974 17.339 531.068 19.5608V188.14C530.847 189.488 530.922 190.868 531.287 192.184C531.653 193.5 532.301 194.721 533.186 195.762C534.07 196.803 535.171 197.639 536.411 198.213C537.652 198.787 539.002 199.084 540.369 199.084C541.735 199.084 543.086 198.787 544.326 198.213C545.566 197.639 546.667 196.803 547.552 195.762C548.437 194.721 549.084 193.5 549.45 192.184C549.816 190.868 549.891 189.488 549.67 188.14V19.5608C549.701 18.2364 549.453 16.9203 548.941 15.6984C548.429 14.4764 547.665 13.3761 546.699 12.4693C545.733 11.5625 544.586 10.8696 543.334 10.4358C542.081 10.002 540.752 9.83708 539.431 9.9518C539.124 9.93675 538.816 9.93675 538.509 9.9518ZM627.799 39.701C625.624 40.1672 623.683 41.3876 622.322 43.1462C620.96 44.9048 620.264 47.0882 620.358 49.31V158.391C620.133 159.74 620.204 161.123 620.567 162.443C620.93 163.762 621.577 164.987 622.461 166.031C623.346 167.076 624.448 167.915 625.69 168.491C626.932 169.066 628.285 169.364 629.654 169.364C631.024 169.364 632.376 169.066 633.619 168.491C634.861 167.915 635.963 167.076 636.847 166.031C637.732 164.987 638.379 163.762 638.742 162.443C639.105 161.123 639.176 159.74 638.951 158.391V49.31C638.982 47.9875 638.734 46.6732 638.223 45.4527C637.712 44.2323 636.95 43.133 635.986 42.2265C635.022 41.32 633.878 40.6266 632.628 40.1915C631.378 39.7564 630.051 39.5893 628.732 39.701C628.418 39.6853 628.113 39.6853 627.799 39.701ZM508.745 49.6175C506.57 50.0836 504.629 51.304 503.268 53.0626C501.906 54.8212 501.21 57.0046 501.304 59.2265V148.474C501.078 149.824 501.15 151.207 501.513 152.526C501.876 153.846 502.523 155.07 503.407 156.115C504.292 157.159 505.394 157.999 506.636 158.574C507.878 159.15 509.231 159.448 510.6 159.448C511.97 159.448 513.322 159.15 514.565 158.574C515.807 157.999 516.909 157.159 517.793 156.115C518.678 155.07 519.325 153.846 519.688 152.526C520.051 151.207 520.122 149.824 519.896 148.474V59.2265C519.928 57.9039 519.68 56.5896 519.169 55.3691C518.658 54.1487 517.896 53.0494 516.932 52.1429C515.968 51.2364 514.824 50.5431 513.574 50.1079C512.324 49.6728 510.996 49.5057 509.678 49.6175C509.364 49.6017 509.059 49.6017 508.745 49.6175ZM568.272 59.5339C566.097 60.0001 564.156 61.2204 562.795 62.979C561.433 64.7376 560.737 66.921 560.831 69.1429V138.558C560.605 139.908 560.677 141.29 561.04 142.61C561.403 143.929 562.05 145.154 562.934 146.198C563.819 147.243 564.921 148.082 566.163 148.658C567.405 149.233 568.758 149.532 570.127 149.532C571.497 149.532 572.849 149.233 574.092 148.658C575.334 148.082 576.436 147.243 577.32 146.198C578.205 145.154 578.852 143.929 579.215 142.61C579.578 141.29 579.649 139.908 579.423 138.558V69.1429C579.455 67.8203 579.207 66.506 578.696 65.2855C578.185 64.0651 577.423 62.9658 576.459 62.0593C575.495 61.1528 574.351 60.4595 573.101 60.0243C571.851 59.5892 570.523 59.4221 569.205 59.5339C568.891 59.5182 568.586 59.5182 568.272 59.5339ZM687.326 59.5339C685.151 60.0001 683.21 61.2204 681.849 62.979C680.487 64.7376 679.791 66.921 679.885 69.1429V138.558C679.664 139.906 679.739 141.286 680.105 142.602C680.471 143.918 681.118 145.139 682.003 146.18C682.888 147.221 683.989 148.057 685.229 148.631C686.469 149.204 687.82 149.502 689.186 149.502C690.553 149.502 691.903 149.204 693.144 148.631C694.384 148.057 695.485 147.221 696.37 146.18C697.254 145.139 697.902 143.918 698.268 142.602C698.633 141.286 698.708 139.906 698.487 138.558V69.1429C698.519 67.8185 698.271 66.5024 697.759 65.2804C697.247 64.0585 696.483 62.9582 695.517 62.0514C694.55 61.1446 693.404 60.4517 692.151 60.0179C690.899 59.5841 689.569 59.4191 688.249 59.5339C687.941 59.5188 687.634 59.5188 687.326 59.5339ZM478.982 79.3667C476.806 79.8329 474.866 81.0533 473.504 82.8119C472.142 84.5704 471.447 86.7539 471.541 88.9757V118.725C471.32 120.073 471.395 121.453 471.76 122.769C472.126 124.085 472.774 125.306 473.659 126.347C474.543 127.388 475.644 128.225 476.884 128.798C478.125 129.372 479.475 129.669 480.842 129.669C482.208 129.669 483.559 129.372 484.799 128.798C486.039 128.225 487.14 127.388 488.025 126.347C488.91 125.306 489.557 124.085 489.923 122.769C490.289 121.453 490.364 120.073 490.143 118.725V88.9757C490.174 87.6513 489.926 86.3352 489.414 85.1133C488.902 83.8913 488.138 82.791 487.172 81.8842C486.206 80.9774 485.059 80.2845 483.807 79.8507C482.554 79.4169 481.225 79.252 479.904 79.3667C479.594 79.3513 479.282 79.3513 478.972 79.3667H478.982ZM598.036 79.3667C595.86 79.8329 593.92 81.0533 592.558 82.8119C591.196 84.5704 590.501 86.7539 590.595 88.9757V118.725C590.369 120.075 590.44 121.458 590.803 122.777C591.167 124.097 591.813 125.321 592.698 126.366C593.583 127.41 594.684 128.249 595.927 128.825C597.169 129.4 598.522 129.699 599.891 129.699C601.26 129.699 602.613 129.4 603.855 128.825C605.097 128.249 606.199 127.41 607.084 126.366C607.969 125.321 608.615 124.097 608.978 122.777C609.342 121.458 609.413 120.075 609.187 118.725V88.9757C609.218 87.6531 608.97 86.3388 608.46 85.1184C607.949 83.8979 607.187 82.7986 606.223 81.8922C605.259 80.9857 604.114 80.2923 602.865 79.8572C601.615 79.422 600.287 79.2549 598.968 79.3667C598.654 79.351 598.35 79.351 598.036 79.3667ZM717.09 79.3667C714.914 79.8329 712.974 81.0533 711.612 82.8119C710.25 84.5704 709.555 86.7539 709.649 88.9757V118.725C709.428 120.073 709.503 121.453 709.868 122.769C710.234 124.085 710.882 125.306 711.767 126.347C712.652 127.388 713.752 128.225 714.993 128.798C716.233 129.372 717.583 129.669 718.95 129.669C720.317 129.669 721.667 129.372 722.907 128.798C724.148 128.225 725.248 127.388 726.133 126.347C727.018 125.306 727.666 124.085 728.031 122.769C728.397 121.453 728.472 120.073 728.251 118.725V88.9757C728.282 87.6513 728.034 86.3352 727.522 85.1133C727.01 83.8913 726.246 82.791 725.28 81.8842C724.314 80.9774 723.167 80.2845 721.915 79.8507C720.663 79.4169 719.333 79.252 718.012 79.3667C717.705 79.3516 717.397 79.3516 717.09 79.3667Z"/>
<path d="M897.771 0.0353908C895.596 0.50158 893.655 1.72196 892.293 3.48055C890.932 5.23915 890.236 7.42256 890.33 9.64439V198.056C890.109 199.404 890.184 200.784 890.55 202.1C890.916 203.417 891.563 204.637 892.448 205.679C893.333 206.72 894.434 207.556 895.674 208.129C896.914 208.703 898.265 209 899.631 209C900.998 209 902.348 208.703 903.589 208.129C904.829 207.556 905.93 206.72 906.814 205.679C907.699 204.637 908.347 203.417 908.713 202.1C909.078 200.784 909.153 199.404 908.932 198.056V9.64439C908.964 8.32002 908.715 7.00389 908.203 5.78194C907.692 4.55999 906.928 3.4597 905.961 2.5529C904.995 1.6461 903.848 0.953187 902.596 0.51939C901.344 0.0855927 900.014 -0.0793302 898.694 0.0353908C898.386 0.0203349 898.078 0.0203349 897.771 0.0353908ZM778.717 9.9518C776.541 10.418 774.601 11.6384 773.239 13.397C771.878 15.1556 771.182 17.339 771.276 19.5608V188.14C771.055 189.488 771.13 190.868 771.496 192.184C771.861 193.5 772.509 194.721 773.394 195.762C774.279 196.803 775.379 197.639 776.62 198.213C777.86 198.787 779.21 199.084 780.577 199.084C781.944 199.084 783.294 198.787 784.534 198.213C785.775 197.639 786.875 196.803 787.76 195.762C788.645 194.721 789.293 193.5 789.659 192.184C790.024 190.868 790.099 189.488 789.878 188.14V19.5608C789.91 18.2364 789.661 16.9203 789.149 15.6984C788.638 14.4764 787.874 13.3761 786.907 12.4693C785.941 11.5625 784.794 10.8696 783.542 10.4358C782.29 10.002 780.96 9.83708 779.64 9.9518C779.332 9.93675 779.024 9.93675 778.717 9.9518ZM868.008 39.701C865.832 40.1672 863.892 41.3876 862.53 43.1462C861.168 44.9048 860.473 47.0882 860.567 49.31V158.391C860.341 159.74 860.412 161.123 860.775 162.443C861.138 163.762 861.785 164.987 862.67 166.031C863.555 167.076 864.656 167.915 865.898 168.491C867.141 169.066 868.494 169.364 869.863 169.364C871.232 169.364 872.585 169.066 873.827 168.491C875.069 167.915 876.171 167.076 877.056 166.031C877.94 164.987 878.587 163.762 878.95 162.443C879.313 161.123 879.385 159.74 879.159 158.391V49.31C879.19 47.9875 878.942 46.6732 878.431 45.4527C877.921 44.2323 877.159 43.133 876.195 42.2265C875.23 41.32 874.086 40.6266 872.836 40.1915C871.586 39.7564 870.259 39.5893 868.94 39.701C868.626 39.6853 868.321 39.6853 868.008 39.701ZM748.953 49.6175C746.778 50.0836 744.838 51.304 743.476 53.0626C742.114 54.8212 741.419 57.0046 741.513 59.2265V148.474C741.287 149.824 741.358 151.207 741.721 152.526C742.084 153.846 742.731 155.07 743.616 156.115C744.5 157.159 745.602 157.999 746.844 158.574C748.087 159.15 749.439 159.448 750.809 159.448C752.178 159.448 753.531 159.15 754.773 158.574C756.015 157.999 757.117 157.159 758.002 156.115C758.886 155.07 759.533 153.846 759.896 152.526C760.259 151.207 760.331 149.824 760.105 148.474V59.2265C760.136 57.9039 759.888 56.5896 759.377 55.3691C758.867 54.1487 758.104 53.0494 757.14 52.1429C756.176 51.2364 755.032 50.5431 753.782 50.1079C752.532 49.6728 751.205 49.5057 749.886 49.6175C749.572 49.6017 749.267 49.6017 748.953 49.6175ZM808.48 59.5339C806.305 60.0001 804.365 61.2204 803.003 62.979C801.641 64.7376 800.946 66.921 801.039 69.1429V138.558C800.814 139.908 800.885 141.29 801.248 142.61C801.611 143.929 802.258 145.154 803.143 146.198C804.027 147.243 805.129 148.082 806.371 148.658C807.614 149.233 808.966 149.532 810.336 149.532C811.705 149.532 813.058 149.233 814.3 148.658C815.542 148.082 816.644 147.243 817.529 146.198C818.413 145.154 819.06 143.929 819.423 142.61C819.786 141.29 819.858 139.908 819.632 138.558V69.1429C819.663 67.8203 819.415 66.506 818.904 65.2855C818.394 64.0651 817.632 62.9658 816.668 62.0593C815.703 61.1528 814.559 60.4595 813.309 60.0243C812.059 59.5892 810.732 59.4221 809.413 59.5339C809.099 59.5182 808.794 59.5182 808.48 59.5339ZM927.534 59.5339C925.359 60.0001 923.419 61.2204 922.057 62.979C920.695 64.7376 920 66.921 920.094 69.1429V138.558C919.873 139.906 919.948 141.286 920.313 142.602C920.679 143.918 921.327 145.139 922.211 146.18C923.096 147.221 924.197 148.057 925.437 148.631C926.678 149.204 928.028 149.502 929.395 149.502C930.761 149.502 932.112 149.204 933.352 148.631C934.592 148.057 935.693 147.221 936.578 146.18C937.463 145.139 938.11 143.918 938.476 142.602C938.842 141.286 938.917 139.906 938.696 138.558V69.1429C938.727 67.8185 938.479 66.5024 937.967 65.2804C937.455 64.0585 936.691 62.9582 935.725 62.0514C934.759 61.1446 933.612 60.4517 932.36 60.0179C931.107 59.5841 929.778 59.4191 928.457 59.5339C928.15 59.5188 927.842 59.5188 927.534 59.5339ZM719.19 79.3667C717.014 79.8329 715.074 81.0533 713.712 82.8119C712.351 84.5704 711.655 86.7539 711.749 88.9757V118.725C711.528 120.073 711.603 121.453 711.969 122.769C712.334 124.085 712.982 125.306 713.867 126.347C714.752 127.388 715.852 128.225 717.093 128.798C718.333 129.372 719.683 129.669 721.05 129.669C722.417 129.669 723.767 129.372 725.007 128.798C726.248 128.225 727.348 127.388 728.233 126.347C729.118 125.306 729.766 124.085 730.131 122.769C730.497 121.453 730.572 120.073 730.351 118.725V88.9757C730.383 87.6513 730.134 86.3352 729.622 85.1133C729.11 83.8913 728.346 82.791 727.38 81.8842C726.414 80.9774 725.267 80.2845 724.015 79.8507C722.763 79.4169 721.433 79.252 720.113 79.3667C719.802 79.3513 719.491 79.3513 719.18 79.3667H719.19ZM838.244 79.3667C836.068 79.8329 834.128 81.0533 832.766 82.8119C831.405 84.5704 830.709 86.7539 830.803 88.9757V118.725C830.577 120.075 830.649 121.458 831.012 122.777C831.375 124.097 832.021 125.321 832.906 126.366C833.791 127.41 834.893 128.249 836.135 128.825C837.377 129.4 838.73 129.699 840.099 129.699C841.468 129.699 842.821 129.4 844.063 128.825C845.306 128.249 846.407 127.41 847.292 126.366C848.177 125.321 848.823 124.097 849.187 122.777C849.55 121.458 849.621 120.075 849.395 118.725V88.9757C849.427 87.6531 849.179 86.3388 848.668 85.1184C848.157 83.8979 847.395 82.7986 846.431 81.8922C845.467 80.9857 844.323 80.2923 843.073 79.8572C841.823 79.422 840.495 79.2549 839.177 79.3667C838.863 79.351 838.558 79.351 838.244 79.3667ZM957.298 79.3667C955.123 79.8329 953.182 81.0533 951.82 82.8119C950.459 84.5704 949.763 86.7539 949.857 88.9757V118.725C949.636 120.073 949.711 121.453 950.077 122.769C950.443 124.085 951.09 125.306 951.975 126.347C952.86 127.388 953.961 128.225 955.201 128.798C956.441 129.372 957.792 129.669 959.158 129.669C960.525 129.669 961.875 129.372 963.116 128.798C964.356 128.225 965.457 127.388 966.341 126.347C967.226 125.306 967.874 124.085 968.24 122.769C968.605 121.453 968.68 120.073 968.459 118.725V88.9757C968.491 87.6513 968.243 86.3352 967.731 85.1133C967.219 83.8913 966.455 82.791 965.488 81.8842C964.522 80.9774 963.375 80.2845 962.123 79.8507C960.871 79.4169 959.541 79.252 958.221 79.3667C957.913 79.3516 957.605 79.3516 957.298 79.3667Z"/>
<path d="M1137.98 0.0353908C1135.8 0.50158 1133.86 1.72196 1132.5 3.48055C1131.14 5.23915 1130.44 7.42256 1130.54 9.64439V198.056C1130.32 199.404 1130.39 200.784 1130.76 202.1C1131.12 203.417 1131.77 204.637 1132.66 205.679C1133.54 206.72 1134.64 207.556 1135.88 208.129C1137.12 208.703 1138.47 209 1139.84 209C1141.21 209 1142.56 208.703 1143.8 208.129C1145.04 207.556 1146.14 206.72 1147.02 205.679C1147.91 204.637 1148.56 203.417 1148.92 202.1C1149.29 200.784 1149.36 199.404 1149.14 198.056V9.64439C1149.17 8.32002 1148.92 7.00389 1148.41 5.78194C1147.9 4.55999 1147.14 3.4597 1146.17 2.5529C1145.2 1.6461 1144.06 0.953187 1142.8 0.51939C1141.55 0.0855927 1140.22 -0.0793302 1138.9 0.0353908C1138.59 0.0203349 1138.29 0.0203349 1137.98 0.0353908ZM1018.93 9.9518C1016.75 10.418 1014.81 11.6384 1013.45 13.397C1012.09 15.1556 1011.39 17.339 1011.48 19.5608V188.14C1011.26 189.488 1011.34 190.868 1011.7 192.184C1012.07 193.5 1012.72 194.721 1013.6 195.762C1014.49 196.803 1015.59 197.639 1016.83 198.213C1018.07 198.787 1019.42 199.084 1020.79 199.084C1022.15 199.084 1023.5 198.787 1024.74 198.213C1025.98 197.639 1027.08 196.803 1027.97 195.762C1028.85 194.721 1029.5 193.5 1029.87 192.184C1030.23 190.868 1030.31 189.488 1030.09 188.14V19.5608C1030.12 18.2364 1029.87 16.9203 1029.36 15.6984C1028.85 14.4764 1028.08 13.3761 1027.12 12.4693C1026.15 11.5625 1025 10.8696 1023.75 10.4358C1022.5 10.002 1021.17 9.83708 1019.85 9.9518C1019.54 9.93675 1019.23 9.93675 1018.93 9.9518ZM1108.22 39.701C1106.04 40.1672 1104.1 41.3876 1102.74 43.1462C1101.38 44.9048 1100.68 47.0882 1100.77 49.31V158.391C1100.55 159.74 1100.62 161.123 1100.98 162.443C1101.35 163.762 1101.99 164.987 1102.88 166.031C1103.76 167.076 1104.86 167.915 1106.11 168.491C1107.35 169.066 1108.7 169.364 1110.07 169.364C1111.44 169.364 1112.79 169.066 1114.04 168.491C1115.28 167.915 1116.38 167.076 1117.26 166.031C1118.15 164.987 1118.8 163.762 1119.16 162.443C1119.52 161.123 1119.59 159.74 1119.37 158.391V49.31C1119.4 47.9875 1119.15 46.6732 1118.64 45.4527C1118.13 44.2323 1117.37 43.133 1116.4 42.2265C1115.44 41.32 1114.29 40.6266 1113.04 40.1915C1111.79 39.7564 1110.47 39.5893 1109.15 39.701C1108.83 39.6853 1108.53 39.6853 1108.22 39.701ZM989.162 49.6175C986.986 50.0836 985.046 51.304 983.684 53.0626C982.322 54.8212 981.627 57.0046 981.721 59.2265V148.474C981.495 149.824 981.566 151.207 981.93 152.526C982.293 153.846 982.939 155.07 983.824 156.115C984.709 157.159 985.811 157.999 987.053 158.574C988.295 159.15 989.648 159.448 991.017 159.448C992.386 159.448 993.739 159.15 994.981 158.574C996.223 157.999 997.325 157.159 998.21 156.115C999.095 155.07 999.741 153.846 1000.1 152.526C1000.47 151.207 1000.54 149.824 1000.31 148.474V59.2265C1000.34 57.9039 1000.1 56.5896 999.586 55.3691C999.075 54.1487 998.313 53.0494 997.349 52.1429C996.385 51.2364 995.241 50.5431 993.991 50.1079C992.741 49.6728 991.413 49.5057 990.094 49.6175C989.78 49.6017 989.476 49.6017 989.162 49.6175ZM1048.69 59.5339C1046.51 60.0001 1044.57 61.2204 1043.21 62.979C1041.85 64.7376 1041.15 66.921 1041.25 69.1429V138.558C1041.02 139.908 1041.09 141.29 1041.46 142.61C1041.82 143.929 1042.47 145.154 1043.35 146.198C1044.24 147.243 1045.34 148.082 1046.58 148.658C1047.82 149.233 1049.17 149.532 1050.54 149.532C1051.91 149.532 1053.27 149.233 1054.51 148.658C1055.75 148.082 1056.85 147.243 1057.74 146.198C1058.62 145.154 1059.27 143.929 1059.63 142.61C1059.99 141.29 1060.07 139.908 1059.84 138.558V69.1429C1059.87 67.8203 1059.62 66.506 1059.11 65.2855C1058.6 64.0651 1057.84 62.9658 1056.88 62.0593C1055.91 61.1528 1054.77 60.4595 1053.52 60.0243C1052.27 59.5892 1050.94 59.4221 1049.62 59.5339C1049.31 59.5182 1049 59.5182 1048.69 59.5339ZM1167.74 59.5339C1165.57 60.0001 1163.63 61.2204 1162.27 62.979C1160.9 64.7376 1160.21 66.921 1160.3 69.1429V138.558C1160.08 139.906 1160.16 141.286 1160.52 142.602C1160.89 143.918 1161.54 145.139 1162.42 146.18C1163.3 147.221 1164.41 148.057 1165.65 148.631C1166.89 149.204 1168.24 149.502 1169.6 149.502C1170.97 149.502 1172.32 149.204 1173.56 148.631C1174.8 148.057 1175.9 147.221 1176.79 146.18C1177.67 145.139 1178.32 143.918 1178.68 142.602C1179.05 141.286 1179.12 139.906 1178.9 138.558V69.1429C1178.94 67.8185 1178.69 66.5024 1178.18 65.2804C1177.66 64.0585 1176.9 62.9582 1175.93 62.0514C1174.97 61.1446 1173.82 60.4517 1172.57 60.0179C1171.32 59.5841 1169.99 59.4191 1168.67 59.5339C1168.36 59.5188 1168.05 59.5188 1167.74 59.5339ZM959.398 79.3667C957.223 79.8329 955.282 81.0533 953.921 82.8119C952.559 84.5704 951.863 86.7539 951.957 88.9757V118.725C951.736 120.073 951.811 121.453 952.177 122.769C952.543 124.085 953.19 125.306 954.075 126.347C954.96 127.388 956.061 128.225 957.301 128.798C958.541 129.372 959.892 129.669 961.258 129.669C962.625 129.669 963.975 129.372 965.216 128.798C966.456 128.225 967.557 127.388 968.442 126.347C969.326 125.306 969.974 124.085 970.34 122.769C970.706 121.453 970.781 120.073 970.56 118.725V88.9757C970.591 87.6513 970.343 86.3352 969.831 85.1133C969.319 83.8913 968.555 82.791 967.589 81.8842C966.622 80.9774 965.476 80.2845 964.223 79.8507C962.971 79.4169 961.641 79.252 960.321 79.3667C960.01 79.3513 959.699 79.3513 959.388 79.3667H959.398ZM1078.45 79.3667C1076.28 79.8329 1074.34 81.0533 1072.97 82.8119C1071.61 84.5704 1070.92 86.7539 1071.01 88.9757V118.725C1070.79 120.075 1070.86 121.458 1071.22 122.777C1071.58 124.097 1072.23 125.321 1073.11 126.366C1074 127.41 1075.1 128.249 1076.34 128.825C1077.59 129.4 1078.94 129.699 1080.31 129.699C1081.68 129.699 1083.03 129.4 1084.27 128.825C1085.51 128.249 1086.62 127.41 1087.5 126.366C1088.39 125.321 1089.03 124.097 1089.4 122.777C1089.76 121.458 1089.83 120.075 1089.6 118.725V88.9757C1089.63 87.6531 1089.39 86.3388 1088.88 85.1184C1088.37 83.8979 1087.6 82.7986 1086.64 81.8922C1085.68 80.9857 1084.53 80.2923 1083.28 79.8572C1082.03 79.422 1080.7 79.2549 1079.38 79.3667C1079.07 79.351 1078.77 79.351 1078.45 79.3667ZM1197.51 79.3667C1195.33 79.8329 1193.39 81.0533 1192.03 82.8119C1190.67 84.5704 1189.97 86.7539 1190.07 88.9757V118.725C1189.84 120.073 1189.92 121.453 1190.29 122.769C1190.65 124.085 1191.3 125.306 1192.18 126.347C1193.07 127.388 1194.17 128.225 1195.41 128.798C1196.65 129.372 1198 129.669 1199.37 129.669C1200.73 129.669 1202.08 129.372 1203.32 128.798C1204.56 128.225 1205.66 127.388 1206.55 126.347C1207.43 125.306 1208.08 124.085 1208.45 122.769C1208.81 121.453 1208.89 120.073 1208.67 118.725V88.9757C1208.7 87.6513 1208.45 86.3352 1207.94 85.1133C1207.43 83.8913 1206.66 82.791 1205.7 81.8842C1204.73 80.9774 1203.58 80.2845 1202.33 79.8507C1201.08 79.4169 1199.75 79.252 1198.43 79.3667C1198.12 79.3516 1197.81 79.3516 1197.51 79.3667Z"/>
<path d="M1378.19 0.0353908C1376.01 0.50158 1374.07 1.72196 1372.71 3.48055C1371.35 5.23915 1370.65 7.42256 1370.75 9.64439V198.056C1370.53 199.404 1370.6 200.784 1370.97 202.1C1371.33 203.417 1371.98 204.637 1372.86 205.679C1373.75 206.72 1374.85 207.556 1376.09 208.129C1377.33 208.703 1378.68 209 1380.05 209C1381.41 209 1382.76 208.703 1384.01 208.129C1385.25 207.556 1386.35 206.72 1387.23 205.679C1388.12 204.637 1388.76 203.417 1389.13 202.1C1389.49 200.784 1389.57 199.404 1389.35 198.056V9.64439C1389.38 8.32002 1389.13 7.00389 1388.62 5.78194C1388.11 4.55999 1387.34 3.4597 1386.38 2.5529C1385.41 1.6461 1384.27 0.953187 1383.01 0.51939C1381.76 0.0855927 1380.43 -0.0793302 1379.11 0.0353908C1378.8 0.0203349 1378.49 0.0203349 1378.19 0.0353908ZM1259.13 9.9518C1256.96 10.418 1255.02 11.6384 1253.66 13.397C1252.29 15.1556 1251.6 17.339 1251.69 19.5608V188.14C1251.47 189.488 1251.55 190.868 1251.91 192.184C1252.28 193.5 1252.93 194.721 1253.81 195.762C1254.7 196.803 1255.8 197.639 1257.04 198.213C1258.28 198.787 1259.63 199.084 1260.99 199.084C1262.36 199.084 1263.71 198.787 1264.95 198.213C1266.19 197.639 1267.29 196.803 1268.18 195.762C1269.06 194.721 1269.71 193.5 1270.08 192.184C1270.44 190.868 1270.52 189.488 1270.29 188.14V19.5608C1270.33 18.2364 1270.08 16.9203 1269.57 15.6984C1269.05 14.4764 1268.29 13.3761 1267.32 12.4693C1266.36 11.5625 1265.21 10.8696 1263.96 10.4358C1262.71 10.002 1261.38 9.83708 1260.06 9.9518C1259.75 9.93675 1259.44 9.93675 1259.13 9.9518ZM1348.42 39.701C1346.25 40.1672 1344.31 41.3876 1342.95 43.1462C1341.58 44.9048 1340.89 47.0882 1340.98 49.31V158.391C1340.76 159.74 1340.83 161.123 1341.19 162.443C1341.56 163.762 1342.2 164.987 1343.09 166.031C1343.97 167.076 1345.07 167.915 1346.32 168.491C1347.56 169.066 1348.91 169.364 1350.28 169.364C1351.65 169.364 1353 169.066 1354.24 168.491C1355.49 167.915 1356.59 167.076 1357.47 166.031C1358.36 164.987 1359 163.762 1359.37 162.443C1359.73 161.123 1359.8 159.74 1359.58 158.391V49.31C1359.61 47.9875 1359.36 46.6732 1358.85 45.4527C1358.34 44.2323 1357.58 43.133 1356.61 42.2265C1355.65 41.32 1354.5 40.6266 1353.25 40.1915C1352 39.7564 1350.68 39.5893 1349.36 39.701C1349.04 39.6853 1348.74 39.6853 1348.42 39.701ZM1229.37 49.6175C1227.19 50.0836 1225.25 51.304 1223.89 53.0626C1222.53 54.8212 1221.84 57.0046 1221.93 59.2265V148.474C1221.7 149.824 1221.77 151.207 1222.14 152.526C1222.5 153.846 1223.15 155.07 1224.03 156.115C1224.92 157.159 1226.02 157.999 1227.26 158.574C1228.5 159.15 1229.86 159.448 1231.23 159.448C1232.59 159.448 1233.95 159.15 1235.19 158.574C1236.43 157.999 1237.53 157.159 1238.42 156.115C1239.3 155.07 1239.95 153.846 1240.31 152.526C1240.68 151.207 1240.75 149.824 1240.52 148.474V59.2265C1240.55 57.9039 1240.3 56.5896 1239.79 55.3691C1239.28 54.1487 1238.52 53.0494 1237.56 52.1429C1236.59 51.2364 1235.45 50.5431 1234.2 50.1079C1232.95 49.6728 1231.62 49.5057 1230.3 49.6175C1229.99 49.6017 1229.68 49.6017 1229.37 49.6175ZM1288.9 59.5339C1286.72 60.0001 1284.78 61.2204 1283.42 62.979C1282.06 64.7376 1281.36 66.921 1281.46 69.1429V138.558C1281.23 139.908 1281.3 141.29 1281.66 142.61C1282.03 143.929 1282.67 145.154 1283.56 146.198C1284.44 147.243 1285.55 148.082 1286.79 148.658C1288.03 149.233 1289.38 149.532 1290.75 149.532C1292.12 149.532 1293.47 149.233 1294.72 148.658C1295.96 148.082 1297.06 147.243 1297.95 146.198C1298.83 145.154 1299.48 143.929 1299.84 142.61C1300.2 141.29 1300.27 139.908 1300.05 138.558V69.1429C1300.08 67.8203 1299.83 66.506 1299.32 65.2855C1298.81 64.0651 1298.05 62.9658 1297.08 62.0593C1296.12 61.1528 1294.98 60.4595 1293.73 60.0243C1292.48 59.5892 1291.15 59.4221 1289.83 59.5339C1289.52 59.5182 1289.21 59.5182 1288.9 59.5339ZM1407.95 59.5339C1405.78 60.0001 1403.84 61.2204 1402.47 62.979C1401.11 64.7376 1400.42 66.921 1400.51 69.1429V138.558C1400.29 139.906 1400.36 141.286 1400.73 142.602C1401.1 143.918 1401.74 145.139 1402.63 146.18C1403.51 147.221 1404.61 148.057 1405.85 148.631C1407.09 149.204 1408.44 149.502 1409.81 149.502C1411.18 149.502 1412.53 149.204 1413.77 148.631C1415.01 148.057 1416.11 147.221 1416.99 146.18C1417.88 145.139 1418.53 143.918 1418.89 142.602C1419.26 141.286 1419.33 139.906 1419.11 138.558V69.1429C1419.14 67.8185 1418.9 66.5024 1418.38 65.2804C1417.87 64.0585 1417.11 62.9582 1416.14 62.0514C1415.18 61.1446 1414.03 60.4517 1412.78 60.0179C1411.52 59.5841 1410.19 59.4191 1408.87 59.5339C1408.57 59.5188 1408.26 59.5188 1407.95 59.5339ZM1199.61 79.3667C1197.43 79.8329 1195.49 81.0533 1194.13 82.8119C1192.77 84.5704 1192.07 86.7539 1192.17 88.9757V118.725C1191.94 120.073 1192.02 121.453 1192.39 122.769C1192.75 124.085 1193.4 125.306 1194.28 126.347C1195.17 127.388 1196.27 128.225 1197.51 128.798C1198.75 129.372 1200.1 129.669 1201.47 129.669C1202.83 129.669 1204.18 129.372 1205.42 128.798C1206.66 128.225 1207.77 127.388 1208.65 126.347C1209.53 125.306 1210.18 124.085 1210.55 122.769C1210.91 121.453 1210.99 120.073 1210.77 118.725V88.9757C1210.8 87.6513 1210.55 86.3352 1210.04 85.1133C1209.53 83.8913 1208.76 82.791 1207.8 81.8842C1206.83 80.9774 1205.68 80.2845 1204.43 79.8507C1203.18 79.4169 1201.85 79.252 1200.53 79.3667C1200.22 79.3513 1199.91 79.3513 1199.6 79.3667H1199.61ZM1318.66 79.3667C1316.49 79.8329 1314.54 81.0533 1313.18 82.8119C1311.82 84.5704 1311.13 86.7539 1311.22 88.9757V118.725C1310.99 120.075 1311.07 121.458 1311.43 122.777C1311.79 124.097 1312.44 125.321 1313.32 126.366C1314.21 127.41 1315.31 128.249 1316.55 128.825C1317.79 129.4 1319.15 129.699 1320.52 129.699C1321.89 129.699 1323.24 129.4 1324.48 128.825C1325.72 128.249 1326.82 127.41 1327.71 126.366C1328.59 125.321 1329.24 124.097 1329.6 122.777C1329.97 121.458 1330.04 120.075 1329.81 118.725V88.9757C1329.84 87.6531 1329.6 86.3388 1329.08 85.1184C1328.57 83.8979 1327.81 82.7986 1326.85 81.8922C1325.88 80.9857 1324.74 80.2923 1323.49 79.8572C1322.24 79.422 1320.91 79.2549 1319.59 79.3667C1319.28 79.351 1318.97 79.351 1318.66 79.3667ZM1437.71 79.3667C1435.54 79.8329 1433.6 81.0533 1432.24 82.8119C1430.88 84.5704 1430.18 86.7539 1430.27 88.9757V118.725C1430.05 120.073 1430.13 121.453 1430.49 122.769C1430.86 124.085 1431.51 125.306 1432.39 126.347C1433.28 127.388 1434.38 128.225 1435.62 128.798C1436.86 129.372 1438.21 129.669 1439.57 129.669C1440.94 129.669 1442.29 129.372 1443.53 128.798C1444.77 128.225 1445.87 127.388 1446.76 126.347C1447.64 125.306 1448.29 124.085 1448.66 122.769C1449.02 121.453 1449.1 120.073 1448.88 118.725V88.9757C1448.91 87.6513 1448.66 86.3352 1448.15 85.1133C1447.64 83.8913 1446.87 82.791 1445.91 81.8842C1444.94 80.9774 1443.79 80.2845 1442.54 79.8507C1441.29 79.4169 1439.96 79.252 1438.64 79.3667C1438.33 79.3516 1438.02 79.3516 1437.71 79.3667Z"/>
</mask>
<path d="M177.146 0.0353908C174.971 0.50158 173.03 1.72196 171.668 3.48055C170.307 5.23915 169.611 7.42256 169.705 9.64439V198.056C169.484 199.404 169.559 200.784 169.925 202.1C170.291 203.417 170.938 204.637 171.823 205.679C172.708 206.72 173.809 207.556 175.049 208.129C176.289 208.703 177.64 209 179.006 209C180.373 209 181.723 208.703 182.964 208.129C184.204 207.556 185.305 206.72 186.189 205.679C187.074 204.637 187.722 203.417 188.088 202.1C188.453 200.784 188.528 199.404 188.307 198.056V9.64439C188.339 8.32002 188.09 7.00389 187.579 5.78194C187.067 4.55999 186.303 3.4597 185.336 2.5529C184.37 1.6461 183.223 0.953187 181.971 0.51939C180.719 0.0855927 179.389 -0.0793302 178.069 0.0353908C177.761 0.0203349 177.453 0.0203349 177.146 0.0353908ZM58.0919 9.9518C55.9165 10.418 53.9762 11.6384 52.6144 13.397C51.2526 15.1556 50.5571 17.339 50.6511 19.5608V188.14C50.4301 189.488 50.5051 190.868 50.8708 192.184C51.2365 193.5 51.8842 194.721 52.769 195.762C53.6538 196.803 54.7545 197.639 55.9949 198.213C57.2352 198.787 58.5855 199.084 59.9521 199.084C61.3188 199.084 62.6691 198.787 63.9094 198.213C65.1498 197.639 66.2505 196.803 67.1353 195.762C68.0201 194.721 68.6678 193.5 69.0335 192.184C69.3992 190.868 69.4742 189.488 69.2533 188.14V19.5608C69.2847 18.2364 69.0364 16.9203 68.5245 15.6984C68.0126 14.4764 67.2486 13.3761 66.2823 12.4693C65.3161 11.5625 64.1694 10.8696 62.9171 10.4358C61.6648 10.002 60.335 9.83708 59.0146 9.9518C58.7072 9.93675 58.3993 9.93675 58.0919 9.9518ZM147.382 39.701C145.207 40.1672 143.267 41.3876 141.905 43.1462C140.543 44.9048 139.848 47.0882 139.942 49.31V158.391C139.716 159.74 139.787 161.123 140.15 162.443C140.513 163.762 141.16 164.987 142.045 166.031C142.93 167.076 144.031 167.915 145.274 168.491C146.516 169.066 147.869 169.364 149.238 169.364C150.607 169.364 151.96 169.066 153.202 168.491C154.444 167.915 155.546 167.076 156.431 166.031C157.315 164.987 157.962 163.762 158.325 162.443C158.688 161.123 158.76 159.74 158.534 158.391V49.31C158.565 47.9875 158.317 46.6732 157.807 45.4527C157.296 44.2323 156.534 43.133 155.57 42.2265C154.606 41.32 153.461 40.6266 152.211 40.1915C150.961 39.7564 149.634 39.5893 148.315 39.701C148.001 39.6853 147.696 39.6853 147.382 39.701ZM28.3284 49.6175C26.153 50.0836 24.2127 51.304 22.8509 53.0626C21.4891 54.8212 20.7936 57.0046 20.8875 59.2265V148.474C20.6618 149.824 20.733 151.207 21.0962 152.526C21.4594 153.846 22.1059 155.07 22.9907 156.115C23.8755 157.159 24.9773 157.999 26.2195 158.574C27.4617 159.15 28.8145 159.448 30.1837 159.448C31.5529 159.448 32.9056 159.15 34.1479 158.574C35.3901 157.999 36.4919 157.159 37.3767 156.115C38.2614 155.07 38.9079 153.846 39.2711 152.526C39.6343 151.207 39.7055 149.824 39.4798 148.474V59.2265C39.511 57.9039 39.2632 56.5896 38.7524 55.3691C38.2417 54.1487 37.4795 53.0494 36.5155 52.1429C35.5515 51.2364 34.4073 50.5431 33.1574 50.1079C31.9074 49.6728 30.5798 49.5057 29.261 49.6175C28.947 49.6017 28.6424 49.6017 28.3284 49.6175ZM87.8554 59.5339C85.68 60.0001 83.7397 61.2204 82.3779 62.979C81.0161 64.7376 80.3206 66.921 80.4146 69.1429V138.558C80.1888 139.908 80.26 141.29 80.6232 142.61C80.9865 143.929 81.6329 145.154 82.5177 146.198C83.4025 147.243 84.5043 148.082 85.7465 148.658C86.9887 149.233 88.3415 149.532 89.7107 149.532C91.0799 149.532 92.4327 149.233 93.6749 148.658C94.9171 148.082 96.0189 147.243 96.9037 146.198C97.7885 145.154 98.435 143.929 98.7982 142.61C99.1614 141.29 99.2326 139.908 99.0068 138.558V69.1429C99.038 67.8203 98.7902 66.506 98.2795 65.2855C97.7687 64.0651 97.0065 62.9658 96.0425 62.0593C95.0785 61.1528 93.9343 60.4595 92.6844 60.0243C91.4345 59.5892 90.1069 59.4221 88.788 59.5339C88.4741 59.5182 88.1694 59.5182 87.8554 59.5339ZM206.91 59.5339C204.734 60.0001 202.794 61.2204 201.432 62.979C200.07 64.7376 199.375 66.921 199.469 69.1429V138.558C199.248 139.906 199.323 141.286 199.688 142.602C200.054 143.918 200.702 145.139 201.587 146.18C202.471 147.221 203.572 148.057 204.812 148.631C206.053 149.204 207.403 149.502 208.77 149.502C210.136 149.502 211.487 149.204 212.727 148.631C213.967 148.057 215.068 147.221 215.953 146.18C216.838 145.139 217.485 143.918 217.851 142.602C218.217 141.286 218.292 139.906 218.071 138.558V69.1429C218.102 67.8185 217.854 66.5024 217.342 65.2804C216.83 64.0585 216.066 62.9582 215.1 62.0514C214.134 61.1446 212.987 60.4517 211.735 60.0179C210.482 59.5841 209.153 59.4191 207.832 59.5339C207.525 59.5188 207.217 59.5188 206.91 59.5339ZM-1.43511 79.3667C-3.61055 79.8329 -5.55086 81.0533 -6.91266 82.8119C-8.27445 84.5704 -8.96992 86.7539 -8.87598 88.9757V118.725C-9.09695 120.073 -9.02198 121.453 -8.65627 122.769C-8.29056 124.085 -7.64286 125.306 -6.75806 126.347C-5.87326 127.388 -4.77253 128.225 -3.53218 128.798C-2.29183 129.372 -0.941534 129.669 0.425114 129.669C1.79176 129.669 3.14206 129.372 4.38241 128.798C5.62276 128.225 6.72348 127.388 7.60828 126.347C8.49308 125.306 9.14079 124.085 9.5065 122.769C9.87221 121.453 9.94718 120.073 9.72621 118.725V88.9757C9.7577 87.6513 9.50937 86.3352 8.99745 85.1133C8.48553 83.8913 7.72152 82.791 6.7553 81.8842C5.78908 80.9774 4.64238 80.2845 3.39006 79.8507C2.13774 79.4169 0.807973 79.252 -0.512437 79.3667C-0.823111 79.3513 -1.13435 79.3513 -1.44503 79.3667H-1.43511ZM117.619 79.3667C115.444 79.8329 113.503 81.0533 112.141 82.8119C110.78 84.5704 110.084 86.7539 110.178 88.9757V118.725C109.952 120.075 110.024 121.458 110.387 122.777C110.75 124.097 111.396 125.321 112.281 126.366C113.166 127.41 114.268 128.249 115.51 128.825C116.752 129.4 118.105 129.699 119.474 129.699C120.843 129.699 122.196 129.4 123.438 128.825C124.681 128.249 125.782 127.41 126.667 126.366C127.552 125.321 128.198 124.097 128.562 122.777C128.925 121.458 128.996 120.075 128.77 118.725V88.9757C128.802 87.6531 128.554 86.3388 128.043 85.1184C127.532 83.8979 126.77 82.7986 125.806 81.8922C124.842 80.9857 123.698 80.2923 122.448 79.8572C121.198 79.422 119.87 79.2549 118.552 79.3667C118.238 79.351 117.933 79.351 117.619 79.3667ZM236.673 79.3667C234.498 79.8329 232.557 81.0533 231.195 82.8119C229.834 84.5704 229.138 86.7539 229.232 88.9757V118.725C229.011 120.073 229.086 121.453 229.452 122.769C229.818 124.085 230.465 125.306 231.35 126.347C232.235 127.388 233.336 128.225 234.576 128.798C235.816 129.372 237.167 129.669 238.533 129.669C239.9 129.669 241.25 129.372 242.491 128.798C243.731 128.225 244.832 127.388 245.716 126.347C246.601 125.306 247.249 124.085 247.615 122.769C247.98 121.453 248.055 120.073 247.834 118.725V88.9757C247.866 87.6513 247.617 86.3352 247.106 85.1133C246.594 83.8913 245.83 82.791 244.863 81.8842C243.897 80.9774 242.751 80.2845 241.498 79.8507C240.246 79.4169 238.916 79.252 237.596 79.3667C237.288 79.3516 236.98 79.3516 236.673 79.3667Z" stroke="url(#paint0_linear_176_82)" stroke-width="2" mask="url(#path-1-inside-1_176_82)"/>
<path d="M417.354 0.0353908C415.179 0.50158 413.239 1.72196 411.877 3.48055C410.515 5.23915 409.819 7.42256 409.913 9.64439V198.056C409.692 199.404 409.767 200.784 410.133 202.1C410.499 203.417 411.147 204.637 412.031 205.679C412.916 206.72 414.017 207.556 415.257 208.129C416.498 208.703 417.848 209 419.215 209C420.581 209 421.931 208.703 423.172 208.129C424.412 207.556 425.513 206.72 426.398 205.679C427.283 204.637 427.93 203.417 428.296 202.1C428.662 200.784 428.737 199.404 428.516 198.056V9.64439C428.547 8.32002 428.299 7.00389 427.787 5.78194C427.275 4.55999 426.511 3.4597 425.545 2.5529C424.579 1.6461 423.432 0.953187 422.18 0.51939C420.927 0.0855927 419.597 -0.0793302 418.277 0.0353908C417.97 0.0203349 417.662 0.0203349 417.354 0.0353908ZM298.3 9.9518C296.125 10.418 294.185 11.6384 292.823 13.397C291.461 15.1556 290.765 17.339 290.859 19.5608V188.14C290.638 189.488 290.713 190.868 291.079 192.184C291.445 193.5 292.093 194.721 292.977 195.762C293.862 196.803 294.963 197.639 296.203 198.213C297.444 198.787 298.794 199.084 300.16 199.084C301.527 199.084 302.877 198.787 304.118 198.213C305.358 197.639 306.459 196.803 307.344 195.762C308.228 194.721 308.876 193.5 309.242 192.184C309.608 190.868 309.683 189.488 309.462 188.14V19.5608C309.493 18.2364 309.245 16.9203 308.733 15.6984C308.221 14.4764 307.457 13.3761 306.491 12.4693C305.524 11.5625 304.378 10.8696 303.125 10.4358C301.873 10.002 300.543 9.83708 299.223 9.9518C298.916 9.93675 298.608 9.93675 298.3 9.9518ZM387.591 39.701C385.415 40.1672 383.475 41.3876 382.113 43.1462C380.751 44.9048 380.056 47.0882 380.15 49.31V158.391C379.924 159.74 379.995 161.123 380.359 162.443C380.722 163.762 381.368 164.987 382.253 166.031C383.138 167.076 384.24 167.915 385.482 168.491C386.724 169.066 388.077 169.364 389.446 169.364C390.815 169.364 392.168 169.066 393.41 168.491C394.652 167.915 395.754 167.076 396.639 166.031C397.524 164.987 398.17 163.762 398.534 162.443C398.897 161.123 398.968 159.74 398.742 158.391V49.31C398.773 47.9875 398.526 46.6732 398.015 45.4527C397.504 44.2323 396.742 43.133 395.778 42.2265C394.814 41.32 393.67 40.6266 392.42 40.1915C391.17 39.7564 389.842 39.5893 388.523 39.701C388.209 39.6853 387.905 39.6853 387.591 39.701ZM268.537 49.6175C266.361 50.0836 264.421 51.304 263.059 53.0626C261.697 54.8212 261.002 57.0046 261.096 59.2265V148.474C260.87 149.824 260.941 151.207 261.305 152.526C261.668 153.846 262.314 155.07 263.199 156.115C264.084 157.159 265.186 157.999 266.428 158.574C267.67 159.15 269.023 159.448 270.392 159.448C271.761 159.448 273.114 159.15 274.356 158.574C275.598 157.999 276.7 157.159 277.585 156.115C278.47 155.07 279.116 153.846 279.479 152.526C279.843 151.207 279.914 149.824 279.688 148.474V59.2265C279.719 57.9039 279.471 56.5896 278.961 55.3691C278.45 54.1487 277.688 53.0494 276.724 52.1429C275.76 51.2364 274.616 50.5431 273.366 50.1079C272.116 49.6728 270.788 49.5057 269.469 49.6175C269.155 49.6017 268.851 49.6017 268.537 49.6175ZM328.064 59.5339C325.888 60.0001 323.948 61.2204 322.586 62.979C321.224 64.7376 320.529 66.921 320.623 69.1429V138.558C320.397 139.908 320.468 141.29 320.832 142.61C321.195 143.929 321.841 145.154 322.726 146.198C323.611 147.243 324.713 148.082 325.955 148.658C327.197 149.233 328.55 149.532 329.919 149.532C331.288 149.532 332.641 149.233 333.883 148.658C335.125 148.082 336.227 147.243 337.112 146.198C337.997 145.154 338.643 143.929 339.007 142.61C339.37 141.29 339.441 139.908 339.215 138.558V69.1429C339.246 67.8203 338.999 66.506 338.488 65.2855C337.977 64.0651 337.215 62.9658 336.251 62.0593C335.287 61.1528 334.143 60.4595 332.893 60.0243C331.643 59.5892 330.315 59.4221 328.996 59.5339C328.682 59.5182 328.378 59.5182 328.064 59.5339ZM447.118 59.5339C444.942 60.0001 443.002 61.2204 441.64 62.979C440.278 64.7376 439.583 66.921 439.677 69.1429V138.558C439.456 139.906 439.531 141.286 439.897 142.602C440.262 143.918 440.91 145.139 441.795 146.18C442.68 147.221 443.78 148.057 445.021 148.631C446.261 149.204 447.611 149.502 448.978 149.502C450.345 149.502 451.695 149.204 452.935 148.631C454.176 148.057 455.276 147.221 456.161 146.18C457.046 145.139 457.694 143.918 458.059 142.602C458.425 141.286 458.5 139.906 458.279 138.558V69.1429C458.311 67.8185 458.062 66.5024 457.55 65.2804C457.038 64.0585 456.274 62.9582 455.308 62.0514C454.342 61.1446 453.195 60.4517 451.943 60.0179C450.691 59.5841 449.361 59.4191 448.041 59.5339C447.733 59.5188 447.425 59.5188 447.118 59.5339ZM238.773 79.3667C236.598 79.8329 234.657 81.0533 233.296 82.8119C231.934 84.5704 231.238 86.7539 231.332 88.9757V118.725C231.111 120.073 231.186 121.453 231.552 122.769C231.918 124.085 232.565 125.306 233.45 126.347C234.335 127.388 235.436 128.225 236.676 128.798C237.916 129.372 239.267 129.669 240.633 129.669C242 129.669 243.35 129.372 244.591 128.798C245.831 128.225 246.932 127.388 247.817 126.347C248.701 125.306 249.349 124.085 249.715 122.769C250.081 121.453 250.156 120.073 249.935 118.725V88.9757C249.966 87.6513 249.718 86.3352 249.206 85.1133C248.694 83.8913 247.93 82.791 246.964 81.8842C245.997 80.9774 244.851 80.2845 243.598 79.8507C242.346 79.4169 241.016 79.252 239.696 79.3667C239.385 79.3513 239.074 79.3513 238.763 79.3667H238.773ZM357.827 79.3667C355.652 79.8329 353.712 81.0533 352.35 82.8119C350.988 84.5704 350.292 86.7539 350.386 88.9757V118.725C350.161 120.075 350.232 121.458 350.595 122.777C350.958 124.097 351.605 125.321 352.49 126.366C353.374 127.41 354.476 128.249 355.718 128.825C356.961 129.4 358.313 129.699 359.683 129.699C361.052 129.699 362.405 129.4 363.647 128.825C364.889 128.249 365.991 127.41 366.876 126.366C367.76 125.321 368.407 124.097 368.77 122.777C369.133 121.458 369.204 120.075 368.979 118.725V88.9757C369.01 87.6531 368.762 86.3388 368.251 85.1184C367.741 83.8979 366.978 82.7986 366.014 81.8922C365.05 80.9857 363.906 80.2923 362.656 79.8572C361.406 79.422 360.079 79.2549 358.76 79.3667C358.446 79.351 358.141 79.351 357.827 79.3667ZM476.881 79.3667C474.706 79.8329 472.766 81.0533 471.404 82.8119C470.042 84.5704 469.347 86.7539 469.44 88.9757V118.725C469.22 120.073 469.294 121.453 469.66 122.769C470.026 124.085 470.674 125.306 471.558 126.347C472.443 127.388 473.544 128.225 474.784 128.798C476.025 129.372 477.375 129.669 478.742 129.669C480.108 129.669 481.458 129.372 482.699 128.798C483.939 128.225 485.04 127.388 485.925 126.347C486.81 125.306 487.457 124.085 487.823 122.769C488.189 121.453 488.264 120.073 488.043 118.725V88.9757C488.074 87.6513 487.826 86.3352 487.314 85.1133C486.802 83.8913 486.038 82.791 485.072 81.8842C484.106 80.9774 482.959 80.2845 481.707 79.8507C480.454 79.4169 479.124 79.252 477.804 79.3667C477.497 79.3516 477.189 79.3516 476.881 79.3667Z" stroke="url(#paint1_linear_176_82)" stroke-width="2" mask="url(#path-1-inside-1_176_82)"/>
<path d="M657.563 0.0353908C655.387 0.50158 653.447 1.72196 652.085 3.48055C650.723 5.23915 650.028 7.42256 650.122 9.64439V198.056C649.901 199.404 649.976 200.784 650.341 202.1C650.707 203.417 651.355 204.637 652.24 205.679C653.125 206.72 654.225 207.556 655.466 208.129C656.706 208.703 658.056 209 659.423 209C660.79 209 662.14 208.703 663.38 208.129C664.62 207.556 665.721 206.72 666.606 205.679C667.491 204.637 668.138 203.417 668.504 202.1C668.87 200.784 668.945 199.404 668.724 198.056V9.64439C668.755 8.32002 668.507 7.00389 667.995 5.78194C667.483 4.55999 666.719 3.4597 665.753 2.5529C664.787 1.6461 663.64 0.953187 662.388 0.51939C661.135 0.0855927 659.806 -0.0793302 658.485 0.0353908C658.178 0.0203349 657.87 0.0203349 657.563 0.0353908ZM538.509 9.9518C536.333 10.418 534.393 11.6384 533.031 13.397C531.669 15.1556 530.974 17.339 531.068 19.5608V188.14C530.847 189.488 530.922 190.868 531.287 192.184C531.653 193.5 532.301 194.721 533.186 195.762C534.07 196.803 535.171 197.639 536.411 198.213C537.652 198.787 539.002 199.084 540.369 199.084C541.735 199.084 543.086 198.787 544.326 198.213C545.566 197.639 546.667 196.803 547.552 195.762C548.437 194.721 549.084 193.5 549.45 192.184C549.816 190.868 549.891 189.488 549.67 188.14V19.5608C549.701 18.2364 549.453 16.9203 548.941 15.6984C548.429 14.4764 547.665 13.3761 546.699 12.4693C545.733 11.5625 544.586 10.8696 543.334 10.4358C542.081 10.002 540.752 9.83708 539.431 9.9518C539.124 9.93675 538.816 9.93675 538.509 9.9518ZM627.799 39.701C625.624 40.1672 623.683 41.3876 622.322 43.1462C620.96 44.9048 620.264 47.0882 620.358 49.31V158.391C620.133 159.74 620.204 161.123 620.567 162.443C620.93 163.762 621.577 164.987 622.461 166.031C623.346 167.076 624.448 167.915 625.69 168.491C626.932 169.066 628.285 169.364 629.654 169.364C631.024 169.364 632.376 169.066 633.619 168.491C634.861 167.915 635.963 167.076 636.847 166.031C637.732 164.987 638.379 163.762 638.742 162.443C639.105 161.123 639.176 159.74 638.951 158.391V49.31C638.982 47.9875 638.734 46.6732 638.223 45.4527C637.712 44.2323 636.95 43.133 635.986 42.2265C635.022 41.32 633.878 40.6266 632.628 40.1915C631.378 39.7564 630.051 39.5893 628.732 39.701C628.418 39.6853 628.113 39.6853 627.799 39.701ZM508.745 49.6175C506.57 50.0836 504.629 51.304 503.268 53.0626C501.906 54.8212 501.21 57.0046 501.304 59.2265V148.474C501.078 149.824 501.15 151.207 501.513 152.526C501.876 153.846 502.523 155.07 503.407 156.115C504.292 157.159 505.394 157.999 506.636 158.574C507.878 159.15 509.231 159.448 510.6 159.448C511.97 159.448 513.322 159.15 514.565 158.574C515.807 157.999 516.909 157.159 517.793 156.115C518.678 155.07 519.325 153.846 519.688 152.526C520.051 151.207 520.122 149.824 519.896 148.474V59.2265C519.928 57.9039 519.68 56.5896 519.169 55.3691C518.658 54.1487 517.896 53.0494 516.932 52.1429C515.968 51.2364 514.824 50.5431 513.574 50.1079C512.324 49.6728 510.996 49.5057 509.678 49.6175C509.364 49.6017 509.059 49.6017 508.745 49.6175ZM568.272 59.5339C566.097 60.0001 564.156 61.2204 562.795 62.979C561.433 64.7376 560.737 66.921 560.831 69.1429V138.558C560.605 139.908 560.677 141.29 561.04 142.61C561.403 143.929 562.05 145.154 562.934 146.198C563.819 147.243 564.921 148.082 566.163 148.658C567.405 149.233 568.758 149.532 570.127 149.532C571.497 149.532 572.849 149.233 574.092 148.658C575.334 148.082 576.436 147.243 577.32 146.198C578.205 145.154 578.852 143.929 579.215 142.61C579.578 141.29 579.649 139.908 579.423 138.558V69.1429C579.455 67.8203 579.207 66.506 578.696 65.2855C578.185 64.0651 577.423 62.9658 576.459 62.0593C575.495 61.1528 574.351 60.4595 573.101 60.0243C571.851 59.5892 570.523 59.4221 569.205 59.5339C568.891 59.5182 568.586 59.5182 568.272 59.5339ZM687.326 59.5339C685.151 60.0001 683.21 61.2204 681.849 62.979C680.487 64.7376 679.791 66.921 679.885 69.1429V138.558C679.664 139.906 679.739 141.286 680.105 142.602C680.471 143.918 681.118 145.139 682.003 146.18C682.888 147.221 683.989 148.057 685.229 148.631C686.469 149.204 687.82 149.502 689.186 149.502C690.553 149.502 691.903 149.204 693.144 148.631C694.384 148.057 695.485 147.221 696.37 146.18C697.254 145.139 697.902 143.918 698.268 142.602C698.633 141.286 698.708 139.906 698.487 138.558V69.1429C698.519 67.8185 698.271 66.5024 697.759 65.2804C697.247 64.0585 696.483 62.9582 695.517 62.0514C694.55 61.1446 693.404 60.4517 692.151 60.0179C690.899 59.5841 689.569 59.4191 688.249 59.5339C687.941 59.5188 687.634 59.5188 687.326 59.5339ZM478.982 79.3667C476.806 79.8329 474.866 81.0533 473.504 82.8119C472.142 84.5704 471.447 86.7539 471.541 88.9757V118.725C471.32 120.073 471.395 121.453 471.76 122.769C472.126 124.085 472.774 125.306 473.659 126.347C474.543 127.388 475.644 128.225 476.884 128.798C478.125 129.372 479.475 129.669 480.842 129.669C482.208 129.669 483.559 129.372 484.799 128.798C486.039 128.225 487.14 127.388 488.025 126.347C488.91 125.306 489.557 124.085 489.923 122.769C490.289 121.453 490.364 120.073 490.143 118.725V88.9757C490.174 87.6513 489.926 86.3352 489.414 85.1133C488.902 83.8913 488.138 82.791 487.172 81.8842C486.206 80.9774 485.059 80.2845 483.807 79.8507C482.554 79.4169 481.225 79.252 479.904 79.3667C479.594 79.3513 479.282 79.3513 478.972 79.3667H478.982ZM598.036 79.3667C595.86 79.8329 593.92 81.0533 592.558 82.8119C591.196 84.5704 590.501 86.7539 590.595 88.9757V118.725C590.369 120.075 590.44 121.458 590.803 122.777C591.167 124.097 591.813 125.321 592.698 126.366C593.583 127.41 594.684 128.249 595.927 128.825C597.169 129.4 598.522 129.699 599.891 129.699C601.26 129.699 602.613 129.4 603.855 128.825C605.097 128.249 606.199 127.41 607.084 126.366C607.969 125.321 608.615 124.097 608.978 122.777C609.342 121.458 609.413 120.075 609.187 118.725V88.9757C609.218 87.6531 608.97 86.3388 608.46 85.1184C607.949 83.8979 607.187 82.7986 606.223 81.8922C605.259 80.9857 604.114 80.2923 602.865 79.8572C601.615 79.422 600.287 79.2549 598.968 79.3667C598.654 79.351 598.35 79.351 598.036 79.3667ZM717.09 79.3667C714.914 79.8329 712.974 81.0533 711.612 82.8119C710.25 84.5704 709.555 86.7539 709.649 88.9757V118.725C709.428 120.073 709.503 121.453 709.868 122.769C710.234 124.085 710.882 125.306 711.767 126.347C712.652 127.388 713.752 128.225 714.993 128.798C716.233 129.372 717.583 129.669 718.95 129.669C720.317 129.669 721.667 129.372 722.907 128.798C724.148 128.225 725.248 127.388 726.133 126.347C727.018 125.306 727.666 124.085 728.031 122.769C728.397 121.453 728.472 120.073 728.251 118.725V88.9757C728.282 87.6513 728.034 86.3352 727.522 85.1133C727.01 83.8913 726.246 82.791 725.28 81.8842C724.314 80.9774 723.167 80.2845 721.915 79.8507C720.663 79.4169 719.333 79.252 718.012 79.3667C717.705 79.3516 717.397 79.3516 717.09 79.3667Z" stroke="url(#paint2_linear_176_82)" stroke-width="2" mask="url(#path-1-inside-1_176_82)"/>
<path d="M897.771 0.0353908C895.596 0.50158 893.655 1.72196 892.293 3.48055C890.932 5.23915 890.236 7.42256 890.33 9.64439V198.056C890.109 199.404 890.184 200.784 890.55 202.1C890.916 203.417 891.563 204.637 892.448 205.679C893.333 206.72 894.434 207.556 895.674 208.129C896.914 208.703 898.265 209 899.631 209C900.998 209 902.348 208.703 903.589 208.129C904.829 207.556 905.93 206.72 906.814 205.679C907.699 204.637 908.347 203.417 908.713 202.1C909.078 200.784 909.153 199.404 908.932 198.056V9.64439C908.964 8.32002 908.715 7.00389 908.203 5.78194C907.692 4.55999 906.928 3.4597 905.961 2.5529C904.995 1.6461 903.848 0.953187 902.596 0.51939C901.344 0.0855927 900.014 -0.0793302 898.694 0.0353908C898.386 0.0203349 898.078 0.0203349 897.771 0.0353908ZM778.717 9.9518C776.541 10.418 774.601 11.6384 773.239 13.397C771.878 15.1556 771.182 17.339 771.276 19.5608V188.14C771.055 189.488 771.13 190.868 771.496 192.184C771.861 193.5 772.509 194.721 773.394 195.762C774.279 196.803 775.379 197.639 776.62 198.213C777.86 198.787 779.21 199.084 780.577 199.084C781.944 199.084 783.294 198.787 784.534 198.213C785.775 197.639 786.875 196.803 787.76 195.762C788.645 194.721 789.293 193.5 789.659 192.184C790.024 190.868 790.099 189.488 789.878 188.14V19.5608C789.91 18.2364 789.661 16.9203 789.149 15.6984C788.638 14.4764 787.874 13.3761 786.907 12.4693C785.941 11.5625 784.794 10.8696 783.542 10.4358C782.29 10.002 780.96 9.83708 779.64 9.9518C779.332 9.93675 779.024 9.93675 778.717 9.9518ZM868.008 39.701C865.832 40.1672 863.892 41.3876 862.53 43.1462C861.168 44.9048 860.473 47.0882 860.567 49.31V158.391C860.341 159.74 860.412 161.123 860.775 162.443C861.138 163.762 861.785 164.987 862.67 166.031C863.555 167.076 864.656 167.915 865.898 168.491C867.141 169.066 868.494 169.364 869.863 169.364C871.232 169.364 872.585 169.066 873.827 168.491C875.069 167.915 876.171 167.076 877.056 166.031C877.94 164.987 878.587 163.762 878.95 162.443C879.313 161.123 879.385 159.74 879.159 158.391V49.31C879.19 47.9875 878.942 46.6732 878.431 45.4527C877.921 44.2323 877.159 43.133 876.195 42.2265C875.23 41.32 874.086 40.6266 872.836 40.1915C871.586 39.7564 870.259 39.5893 868.94 39.701C868.626 39.6853 868.321 39.6853 868.008 39.701ZM748.953 49.6175C746.778 50.0836 744.838 51.304 743.476 53.0626C742.114 54.8212 741.419 57.0046 741.513 59.2265V148.474C741.287 149.824 741.358 151.207 741.721 152.526C742.084 153.846 742.731 155.07 743.616 156.115C744.5 157.159 745.602 157.999 746.844 158.574C748.087 159.15 749.439 159.448 750.809 159.448C752.178 159.448 753.531 159.15 754.773 158.574C756.015 157.999 757.117 157.159 758.002 156.115C758.886 155.07 759.533 153.846 759.896 152.526C760.259 151.207 760.331 149.824 760.105 148.474V59.2265C760.136 57.9039 759.888 56.5896 759.377 55.3691C758.867 54.1487 758.104 53.0494 757.14 52.1429C756.176 51.2364 755.032 50.5431 753.782 50.1079C752.532 49.6728 751.205 49.5057 749.886 49.6175C749.572 49.6017 749.267 49.6017 748.953 49.6175ZM808.48 59.5339C806.305 60.0001 804.365 61.2204 803.003 62.979C801.641 64.7376 800.946 66.921 801.039 69.1429V138.558C800.814 139.908 800.885 141.29 801.248 142.61C801.611 143.929 802.258 145.154 803.143 146.198C804.027 147.243 805.129 148.082 806.371 148.658C807.614 149.233 808.966 149.532 810.336 149.532C811.705 149.532 813.058 149.233 814.3 148.658C815.542 148.082 816.644 147.243 817.529 146.198C818.413 145.154 819.06 143.929 819.423 142.61C819.786 141.29 819.858 139.908 819.632 138.558V69.1429C819.663 67.8203 819.415 66.506 818.904 65.2855C818.394 64.0651 817.632 62.9658 816.668 62.0593C815.703 61.1528 814.559 60.4595 813.309 60.0243C812.059 59.5892 810.732 59.4221 809.413 59.5339C809.099 59.5182 808.794 59.5182 808.48 59.5339ZM927.534 59.5339C925.359 60.0001 923.419 61.2204 922.057 62.979C920.695 64.7376 920 66.921 920.094 69.1429V138.558C919.873 139.906 919.948 141.286 920.313 142.602C920.679 143.918 921.327 145.139 922.211 146.18C923.096 147.221 924.197 148.057 925.437 148.631C926.678 149.204 928.028 149.502 929.395 149.502C930.761 149.502 932.112 149.204 933.352 148.631C934.592 148.057 935.693 147.221 936.578 146.18C937.463 145.139 938.11 143.918 938.476 142.602C938.842 141.286 938.917 139.906 938.696 138.558V69.1429C938.727 67.8185 938.479 66.5024 937.967 65.2804C937.455 64.0585 936.691 62.9582 935.725 62.0514C934.759 61.1446 933.612 60.4517 932.36 60.0179C931.107 59.5841 929.778 59.4191 928.457 59.5339C928.15 59.5188 927.842 59.5188 927.534 59.5339ZM719.19 79.3667C717.014 79.8329 715.074 81.0533 713.712 82.8119C712.351 84.5704 711.655 86.7539 711.749 88.9757V118.725C711.528 120.073 711.603 121.453 711.969 122.769C712.334 124.085 712.982 125.306 713.867 126.347C714.752 127.388 715.852 128.225 717.093 128.798C718.333 129.372 719.683 129.669 721.05 129.669C722.417 129.669 723.767 129.372 725.007 128.798C726.248 128.225 727.348 127.388 728.233 126.347C729.118 125.306 729.766 124.085 730.131 122.769C730.497 121.453 730.572 120.073 730.351 118.725V88.9757C730.383 87.6513 730.134 86.3352 729.622 85.1133C729.11 83.8913 728.346 82.791 727.38 81.8842C726.414 80.9774 725.267 80.2845 724.015 79.8507C722.763 79.4169 721.433 79.252 720.113 79.3667C719.802 79.3513 719.491 79.3513 719.18 79.3667H719.19ZM838.244 79.3667C836.068 79.8329 834.128 81.0533 832.766 82.8119C831.405 84.5704 830.709 86.7539 830.803 88.9757V118.725C830.577 120.075 830.649 121.458 831.012 122.777C831.375 124.097 832.021 125.321 832.906 126.366C833.791 127.41 834.893 128.249 836.135 128.825C837.377 129.4 838.73 129.699 840.099 129.699C841.468 129.699 842.821 129.4 844.063 128.825C845.306 128.249 846.407 127.41 847.292 126.366C848.177 125.321 848.823 124.097 849.187 122.777C849.55 121.458 849.621 120.075 849.395 118.725V88.9757C849.427 87.6531 849.179 86.3388 848.668 85.1184C848.157 83.8979 847.395 82.7986 846.431 81.8922C845.467 80.9857 844.323 80.2923 843.073 79.8572C841.823 79.422 840.495 79.2549 839.177 79.3667C838.863 79.351 838.558 79.351 838.244 79.3667ZM957.298 79.3667C955.123 79.8329 953.182 81.0533 951.82 82.8119C950.459 84.5704 949.763 86.7539 949.857 88.9757V118.725C949.636 120.073 949.711 121.453 950.077 122.769C950.443 124.085 951.09 125.306 951.975 126.347C952.86 127.388 953.961 128.225 955.201 128.798C956.441 129.372 957.792 129.669 959.158 129.669C960.525 129.669 961.875 129.372 963.116 128.798C964.356 128.225 965.457 127.388 966.341 126.347C967.226 125.306 967.874 124.085 968.24 122.769C968.605 121.453 968.68 120.073 968.459 118.725V88.9757C968.491 87.6513 968.243 86.3352 967.731 85.1133C967.219 83.8913 966.455 82.791 965.488 81.8842C964.522 80.9774 963.375 80.2845 962.123 79.8507C960.871 79.4169 959.541 79.252 958.221 79.3667C957.913 79.3516 957.605 79.3516 957.298 79.3667Z" stroke="url(#paint3_linear_176_82)" stroke-width="2" mask="url(#path-1-inside-1_176_82)"/>
<path d="M1137.98 0.0353908C1135.8 0.50158 1133.86 1.72196 1132.5 3.48055C1131.14 5.23915 1130.44 7.42256 1130.54 9.64439V198.056C1130.32 199.404 1130.39 200.784 1130.76 202.1C1131.12 203.417 1131.77 204.637 1132.66 205.679C1133.54 206.72 1134.64 207.556 1135.88 208.129C1137.12 208.703 1138.47 209 1139.84 209C1141.21 209 1142.56 208.703 1143.8 208.129C1145.04 207.556 1146.14 206.72 1147.02 205.679C1147.91 204.637 1148.56 203.417 1148.92 202.1C1149.29 200.784 1149.36 199.404 1149.14 198.056V9.64439C1149.17 8.32002 1148.92 7.00389 1148.41 5.78194C1147.9 4.55999 1147.14 3.4597 1146.17 2.5529C1145.2 1.6461 1144.06 0.953187 1142.8 0.51939C1141.55 0.0855927 1140.22 -0.0793302 1138.9 0.0353908C1138.59 0.0203349 1138.29 0.0203349 1137.98 0.0353908ZM1018.93 9.9518C1016.75 10.418 1014.81 11.6384 1013.45 13.397C1012.09 15.1556 1011.39 17.339 1011.48 19.5608V188.14C1011.26 189.488 1011.34 190.868 1011.7 192.184C1012.07 193.5 1012.72 194.721 1013.6 195.762C1014.49 196.803 1015.59 197.639 1016.83 198.213C1018.07 198.787 1019.42 199.084 1020.79 199.084C1022.15 199.084 1023.5 198.787 1024.74 198.213C1025.98 197.639 1027.08 196.803 1027.97 195.762C1028.85 194.721 1029.5 193.5 1029.87 192.184C1030.23 190.868 1030.31 189.488 1030.09 188.14V19.5608C1030.12 18.2364 1029.87 16.9203 1029.36 15.6984C1028.85 14.4764 1028.08 13.3761 1027.12 12.4693C1026.15 11.5625 1025 10.8696 1023.75 10.4358C1022.5 10.002 1021.17 9.83708 1019.85 9.9518C1019.54 9.93675 1019.23 9.93675 1018.93 9.9518ZM1108.22 39.701C1106.04 40.1672 1104.1 41.3876 1102.74 43.1462C1101.38 44.9048 1100.68 47.0882 1100.77 49.31V158.391C1100.55 159.74 1100.62 161.123 1100.98 162.443C1101.35 163.762 1101.99 164.987 1102.88 166.031C1103.76 167.076 1104.86 167.915 1106.11 168.491C1107.35 169.066 1108.7 169.364 1110.07 169.364C1111.44 169.364 1112.79 169.066 1114.04 168.491C1115.28 167.915 1116.38 167.076 1117.26 166.031C1118.15 164.987 1118.8 163.762 1119.16 162.443C1119.52 161.123 1119.59 159.74 1119.37 158.391V49.31C1119.4 47.9875 1119.15 46.6732 1118.64 45.4527C1118.13 44.2323 1117.37 43.133 1116.4 42.2265C1115.44 41.32 1114.29 40.6266 1113.04 40.1915C1111.79 39.7564 1110.47 39.5893 1109.15 39.701C1108.83 39.6853 1108.53 39.6853 1108.22 39.701ZM989.162 49.6175C986.986 50.0836 985.046 51.304 983.684 53.0626C982.322 54.8212 981.627 57.0046 981.721 59.2265V148.474C981.495 149.824 981.566 151.207 981.93 152.526C982.293 153.846 982.939 155.07 983.824 156.115C984.709 157.159 985.811 157.999 987.053 158.574C988.295 159.15 989.648 159.448 991.017 159.448C992.386 159.448 993.739 159.15 994.981 158.574C996.223 157.999 997.325 157.159 998.21 156.115C999.095 155.07 999.741 153.846 1000.1 152.526C1000.47 151.207 1000.54 149.824 1000.31 148.474V59.2265C1000.34 57.9039 1000.1 56.5896 999.586 55.3691C999.075 54.1487 998.313 53.0494 997.349 52.1429C996.385 51.2364 995.241 50.5431 993.991 50.1079C992.741 49.6728 991.413 49.5057 990.094 49.6175C989.78 49.6017 989.476 49.6017 989.162 49.6175ZM1048.69 59.5339C1046.51 60.0001 1044.57 61.2204 1043.21 62.979C1041.85 64.7376 1041.15 66.921 1041.25 69.1429V138.558C1041.02 139.908 1041.09 141.29 1041.46 142.61C1041.82 143.929 1042.47 145.154 1043.35 146.198C1044.24 147.243 1045.34 148.082 1046.58 148.658C1047.82 149.233 1049.17 149.532 1050.54 149.532C1051.91 149.532 1053.27 149.233 1054.51 148.658C1055.75 148.082 1056.85 147.243 1057.74 146.198C1058.62 145.154 1059.27 143.929 1059.63 142.61C1059.99 141.29 1060.07 139.908 1059.84 138.558V69.1429C1059.87 67.8203 1059.62 66.506 1059.11 65.2855C1058.6 64.0651 1057.84 62.9658 1056.88 62.0593C1055.91 61.1528 1054.77 60.4595 1053.52 60.0243C1052.27 59.5892 1050.94 59.4221 1049.62 59.5339C1049.31 59.5182 1049 59.5182 1048.69 59.5339ZM1167.74 59.5339C1165.57 60.0001 1163.63 61.2204 1162.27 62.979C1160.9 64.7376 1160.21 66.921 1160.3 69.1429V138.558C1160.08 139.906 1160.16 141.286 1160.52 142.602C1160.89 143.918 1161.54 145.139 1162.42 146.18C1163.3 147.221 1164.41 148.057 1165.65 148.631C1166.89 149.204 1168.24 149.502 1169.6 149.502C1170.97 149.502 1172.32 149.204 1173.56 148.631C1174.8 148.057 1175.9 147.221 1176.79 146.18C1177.67 145.139 1178.32 143.918 1178.68 142.602C1179.05 141.286 1179.12 139.906 1178.9 138.558V69.1429C1178.94 67.8185 1178.69 66.5024 1178.18 65.2804C1177.66 64.0585 1176.9 62.9582 1175.93 62.0514C1174.97 61.1446 1173.82 60.4517 1172.57 60.0179C1171.32 59.5841 1169.99 59.4191 1168.67 59.5339C1168.36 59.5188 1168.05 59.5188 1167.74 59.5339ZM959.398 79.3667C957.223 79.8329 955.282 81.0533 953.921 82.8119C952.559 84.5704 951.863 86.7539 951.957 88.9757V118.725C951.736 120.073 951.811 121.453 952.177 122.769C952.543 124.085 953.19 125.306 954.075 126.347C954.96 127.388 956.061 128.225 957.301 128.798C958.541 129.372 959.892 129.669 961.258 129.669C962.625 129.669 963.975 129.372 965.216 128.798C966.456 128.225 967.557 127.388 968.442 126.347C969.326 125.306 969.974 124.085 970.34 122.769C970.706 121.453 970.781 120.073 970.56 118.725V88.9757C970.591 87.6513 970.343 86.3352 969.831 85.1133C969.319 83.8913 968.555 82.791 967.589 81.8842C966.622 80.9774 965.476 80.2845 964.223 79.8507C962.971 79.4169 961.641 79.252 960.321 79.3667C960.01 79.3513 959.699 79.3513 959.388 79.3667H959.398ZM1078.45 79.3667C1076.28 79.8329 1074.34 81.0533 1072.97 82.8119C1071.61 84.5704 1070.92 86.7539 1071.01 88.9757V118.725C1070.79 120.075 1070.86 121.458 1071.22 122.777C1071.58 124.097 1072.23 125.321 1073.11 126.366C1074 127.41 1075.1 128.249 1076.34 128.825C1077.59 129.4 1078.94 129.699 1080.31 129.699C1081.68 129.699 1083.03 129.4 1084.27 128.825C1085.51 128.249 1086.62 127.41 1087.5 126.366C1088.39 125.321 1089.03 124.097 1089.4 122.777C1089.76 121.458 1089.83 120.075 1089.6 118.725V88.9757C1089.63 87.6531 1089.39 86.3388 1088.88 85.1184C1088.37 83.8979 1087.6 82.7986 1086.64 81.8922C1085.68 80.9857 1084.53 80.2923 1083.28 79.8572C1082.03 79.422 1080.7 79.2549 1079.38 79.3667C1079.07 79.351 1078.77 79.351 1078.45 79.3667ZM1197.51 79.3667C1195.33 79.8329 1193.39 81.0533 1192.03 82.8119C1190.67 84.5704 1189.97 86.7539 1190.07 88.9757V118.725C1189.84 120.073 1189.92 121.453 1190.29 122.769C1190.65 124.085 1191.3 125.306 1192.18 126.347C1193.07 127.388 1194.17 128.225 1195.41 128.798C1196.65 129.372 1198 129.669 1199.37 129.669C1200.73 129.669 1202.08 129.372 1203.32 128.798C1204.56 128.225 1205.66 127.388 1206.55 126.347C1207.43 125.306 1208.08 124.085 1208.45 122.769C1208.81 121.453 1208.89 120.073 1208.67 118.725V88.9757C1208.7 87.6513 1208.45 86.3352 1207.94 85.1133C1207.43 83.8913 1206.66 82.791 1205.7 81.8842C1204.73 80.9774 1203.58 80.2845 1202.33 79.8507C1201.08 79.4169 1199.75 79.252 1198.43 79.3667C1198.12 79.3516 1197.81 79.3516 1197.51 79.3667Z" stroke="url(#paint4_linear_176_82)" stroke-width="2" mask="url(#path-1-inside-1_176_82)"/>
<path d="M1378.19 0.0353908C1376.01 0.50158 1374.07 1.72196 1372.71 3.48055C1371.35 5.23915 1370.65 7.42256 1370.75 9.64439V198.056C1370.53 199.404 1370.6 200.784 1370.97 202.1C1371.33 203.417 1371.98 204.637 1372.86 205.679C1373.75 206.72 1374.85 207.556 1376.09 208.129C1377.33 208.703 1378.68 209 1380.05 209C1381.41 209 1382.76 208.703 1384.01 208.129C1385.25 207.556 1386.35 206.72 1387.23 205.679C1388.12 204.637 1388.76 203.417 1389.13 202.1C1389.49 200.784 1389.57 199.404 1389.35 198.056V9.64439C1389.38 8.32002 1389.13 7.00389 1388.62 5.78194C1388.11 4.55999 1387.34 3.4597 1386.38 2.5529C1385.41 1.6461 1384.27 0.953187 1383.01 0.51939C1381.76 0.0855927 1380.43 -0.0793302 1379.11 0.0353908C1378.8 0.0203349 1378.49 0.0203349 1378.19 0.0353908ZM1259.13 9.9518C1256.96 10.418 1255.02 11.6384 1253.66 13.397C1252.29 15.1556 1251.6 17.339 1251.69 19.5608V188.14C1251.47 189.488 1251.55 190.868 1251.91 192.184C1252.28 193.5 1252.93 194.721 1253.81 195.762C1254.7 196.803 1255.8 197.639 1257.04 198.213C1258.28 198.787 1259.63 199.084 1260.99 199.084C1262.36 199.084 1263.71 198.787 1264.95 198.213C1266.19 197.639 1267.29 196.803 1268.18 195.762C1269.06 194.721 1269.71 193.5 1270.08 192.184C1270.44 190.868 1270.52 189.488 1270.29 188.14V19.5608C1270.33 18.2364 1270.08 16.9203 1269.57 15.6984C1269.05 14.4764 1268.29 13.3761 1267.32 12.4693C1266.36 11.5625 1265.21 10.8696 1263.96 10.4358C1262.71 10.002 1261.38 9.83708 1260.06 9.9518C1259.75 9.93675 1259.44 9.93675 1259.13 9.9518ZM1348.42 39.701C1346.25 40.1672 1344.31 41.3876 1342.95 43.1462C1341.58 44.9048 1340.89 47.0882 1340.98 49.31V158.391C1340.76 159.74 1340.83 161.123 1341.19 162.443C1341.56 163.762 1342.2 164.987 1343.09 166.031C1343.97 167.076 1345.07 167.915 1346.32 168.491C1347.56 169.066 1348.91 169.364 1350.28 169.364C1351.65 169.364 1353 169.066 1354.24 168.491C1355.49 167.915 1356.59 167.076 1357.47 166.031C1358.36 164.987 1359 163.762 1359.37 162.443C1359.73 161.123 1359.8 159.74 1359.58 158.391V49.31C1359.61 47.9875 1359.36 46.6732 1358.85 45.4527C1358.34 44.2323 1357.58 43.133 1356.61 42.2265C1355.65 41.32 1354.5 40.6266 1353.25 40.1915C1352 39.7564 1350.68 39.5893 1349.36 39.701C1349.04 39.6853 1348.74 39.6853 1348.42 39.701ZM1229.37 49.6175C1227.19 50.0836 1225.25 51.304 1223.89 53.0626C1222.53 54.8212 1221.84 57.0046 1221.93 59.2265V148.474C1221.7 149.824 1221.77 151.207 1222.14 152.526C1222.5 153.846 1223.15 155.07 1224.03 156.115C1224.92 157.159 1226.02 157.999 1227.26 158.574C1228.5 159.15 1229.86 159.448 1231.23 159.448C1232.59 159.448 1233.95 159.15 1235.19 158.574C1236.43 157.999 1237.53 157.159 1238.42 156.115C1239.3 155.07 1239.95 153.846 1240.31 152.526C1240.68 151.207 1240.75 149.824 1240.52 148.474V59.2265C1240.55 57.9039 1240.3 56.5896 1239.79 55.3691C1239.28 54.1487 1238.52 53.0494 1237.56 52.1429C1236.59 51.2364 1235.45 50.5431 1234.2 50.1079C1232.95 49.6728 1231.62 49.5057 1230.3 49.6175C1229.99 49.6017 1229.68 49.6017 1229.37 49.6175ZM1288.9 59.5339C1286.72 60.0001 1284.78 61.2204 1283.42 62.979C1282.06 64.7376 1281.36 66.921 1281.46 69.1429V138.558C1281.23 139.908 1281.3 141.29 1281.66 142.61C1282.03 143.929 1282.67 145.154 1283.56 146.198C1284.44 147.243 1285.55 148.082 1286.79 148.658C1288.03 149.233 1289.38 149.532 1290.75 149.532C1292.12 149.532 1293.47 149.233 1294.72 148.658C1295.96 148.082 1297.06 147.243 1297.95 146.198C1298.83 145.154 1299.48 143.929 1299.84 142.61C1300.2 141.29 1300.27 139.908 1300.05 138.558V69.1429C1300.08 67.8203 1299.83 66.506 1299.32 65.2855C1298.81 64.0651 1298.05 62.9658 1297.08 62.0593C1296.12 61.1528 1294.98 60.4595 1293.73 60.0243C1292.48 59.5892 1291.15 59.4221 1289.83 59.5339C1289.52 59.5182 1289.21 59.5182 1288.9 59.5339ZM1407.95 59.5339C1405.78 60.0001 1403.84 61.2204 1402.47 62.979C1401.11 64.7376 1400.42 66.921 1400.51 69.1429V138.558C1400.29 139.906 1400.36 141.286 1400.73 142.602C1401.1 143.918 1401.74 145.139 1402.63 146.18C1403.51 147.221 1404.61 148.057 1405.85 148.631C1407.09 149.204 1408.44 149.502 1409.81 149.502C1411.18 149.502 1412.53 149.204 1413.77 148.631C1415.01 148.057 1416.11 147.221 1416.99 146.18C1417.88 145.139 1418.53 143.918 1418.89 142.602C1419.26 141.286 1419.33 139.906 1419.11 138.558V69.1429C1419.14 67.8185 1418.9 66.5024 1418.38 65.2804C1417.87 64.0585 1417.11 62.9582 1416.14 62.0514C1415.18 61.1446 1414.03 60.4517 1412.78 60.0179C1411.52 59.5841 1410.19 59.4191 1408.87 59.5339C1408.57 59.5188 1408.26 59.5188 1407.95 59.5339ZM1199.61 79.3667C1197.43 79.8329 1195.49 81.0533 1194.13 82.8119C1192.77 84.5704 1192.07 86.7539 1192.17 88.9757V118.725C1191.94 120.073 1192.02 121.453 1192.39 122.769C1192.75 124.085 1193.4 125.306 1194.28 126.347C1195.17 127.388 1196.27 128.225 1197.51 128.798C1198.75 129.372 1200.1 129.669 1201.47 129.669C1202.83 129.669 1204.18 129.372 1205.42 128.798C1206.66 128.225 1207.77 127.388 1208.65 126.347C1209.53 125.306 1210.18 124.085 1210.55 122.769C1210.91 121.453 1210.99 120.073 1210.77 118.725V88.9757C1210.8 87.6513 1210.55 86.3352 1210.04 85.1133C1209.53 83.8913 1208.76 82.791 1207.8 81.8842C1206.83 80.9774 1205.68 80.2845 1204.43 79.8507C1203.18 79.4169 1201.85 79.252 1200.53 79.3667C1200.22 79.3513 1199.91 79.3513 1199.6 79.3667H1199.61ZM1318.66 79.3667C1316.49 79.8329 1314.54 81.0533 1313.18 82.8119C1311.82 84.5704 1311.13 86.7539 1311.22 88.9757V118.725C1310.99 120.075 1311.07 121.458 1311.43 122.777C1311.79 124.097 1312.44 125.321 1313.32 126.366C1314.21 127.41 1315.31 128.249 1316.55 128.825C1317.79 129.4 1319.15 129.699 1320.52 129.699C1321.89 129.699 1323.24 129.4 1324.48 128.825C1325.72 128.249 1326.82 127.41 1327.71 126.366C1328.59 125.321 1329.24 124.097 1329.6 122.777C1329.97 121.458 1330.04 120.075 1329.81 118.725V88.9757C1329.84 87.6531 1329.6 86.3388 1329.08 85.1184C1328.57 83.8979 1327.81 82.7986 1326.85 81.8922C1325.88 80.9857 1324.74 80.2923 1323.49 79.8572C1322.24 79.422 1320.91 79.2549 1319.59 79.3667C1319.28 79.351 1318.97 79.351 1318.66 79.3667ZM1437.71 79.3667C1435.54 79.8329 1433.6 81.0533 1432.24 82.8119C1430.88 84.5704 1430.18 86.7539 1430.27 88.9757V118.725C1430.05 120.073 1430.13 121.453 1430.49 122.769C1430.86 124.085 1431.51 125.306 1432.39 126.347C1433.28 127.388 1434.38 128.225 1435.62 128.798C1436.86 129.372 1438.21 129.669 1439.57 129.669C1440.94 129.669 1442.29 129.372 1443.53 128.798C1444.77 128.225 1445.87 127.388 1446.76 126.347C1447.64 125.306 1448.29 124.085 1448.66 122.769C1449.02 121.453 1449.1 120.073 1448.88 118.725V88.9757C1448.91 87.6513 1448.66 86.3352 1448.15 85.1133C1447.64 83.8913 1446.87 82.791 1445.91 81.8842C1444.94 80.9774 1443.79 80.2845 1442.54 79.8507C1441.29 79.4169 1439.96 79.252 1438.64 79.3667C1438.33 79.3516 1438.02 79.3516 1437.71 79.3667Z" stroke="url(#paint5_linear_176_82)" stroke-width="2" mask="url(#path-1-inside-1_176_82)"/>
</g>
<defs>
<linearGradient id="paint0_linear_176_82" x1="-9" y1="104.5" x2="1449" y2="104.5" gradientUnits="userSpaceOnUse">
<stop stop-color="#19F7CF"/>
<stop offset="0.495727" stop-color="#19F7CF" stop-opacity="0"/>
<stop offset="1" stop-color="#19F7CF"/>
</linearGradient>
<linearGradient id="paint1_linear_176_82" x1="-9" y1="104.5" x2="1449" y2="104.5" gradientUnits="userSpaceOnUse">
<stop stop-color="#19F7CF"/>
<stop offset="0.495727" stop-color="#19F7CF" stop-opacity="0"/>
<stop offset="1" stop-color="#19F7CF"/>
</linearGradient>
<linearGradient id="paint2_linear_176_82" x1="-9" y1="104.5" x2="1449" y2="104.5" gradientUnits="userSpaceOnUse">
<stop stop-color="#19F7CF"/>
<stop offset="0.495727" stop-color="#19F7CF" stop-opacity="0"/>
<stop offset="1" stop-color="#19F7CF"/>
</linearGradient>
<linearGradient id="paint3_linear_176_82" x1="-9" y1="104.5" x2="1449" y2="104.5" gradientUnits="userSpaceOnUse">
<stop stop-color="#19F7CF"/>
<stop offset="0.495727" stop-color="#19F7CF" stop-opacity="0"/>
<stop offset="1" stop-color="#19F7CF"/>
</linearGradient>
<linearGradient id="paint4_linear_176_82" x1="-9" y1="104.5" x2="1449" y2="104.5" gradientUnits="userSpaceOnUse">
<stop stop-color="#19F7CF"/>
<stop offset="0.495727" stop-color="#19F7CF" stop-opacity="0"/>
<stop offset="1" stop-color="#19F7CF"/>
</linearGradient>
<linearGradient id="paint5_linear_176_82" x1="-9" y1="104.5" x2="1449" y2="104.5" gradientUnits="userSpaceOnUse">
<stop stop-color="#19F7CF"/>
<stop offset="0.495727" stop-color="#19F7CF" stop-opacity="0"/>
<stop offset="1" stop-color="#19F7CF"/>
</linearGradient>
</defs>
</svg>
