<svg width="166" height="54" viewBox="0 0 166 54" fill="none" xmlns="http://www.w3.org/2000/svg">
<path d="M13.6016 26.7397C13.6016 23.2894 14.8954 20.141 17.2244 17.7257C19.4671 15.4399 22.6156 13.7578 26.5835 13.7578C29.5594 13.7578 31.9315 14.6204 34.088 16.1299C36.2445 17.6395 37.754 19.7097 38.7891 22.2112C38.3578 21.2192 37.7971 20.2703 37.107 19.4509C36.417 18.5883 34.9074 17.0356 33.096 16.0437C29.4732 14.1028 24.8152 14.0166 20.8904 16.6475C18.3889 18.3726 16.75 21.0467 16.2325 23.6776C15.7149 26.3947 16.2325 28.9825 17.3969 31.0958C19.8122 35.2362 24.1251 36.5732 27.4461 36.1419C30.5514 35.7538 32.2766 34.4168 33.3979 33.7267C34.4761 33.1229 35.0368 33.0366 35.5544 33.2523C35.8994 33.511 36.2013 33.8129 36.6757 33.7267C37.0639 33.5973 37.4089 33.3385 37.6246 32.9935C38.2715 31.9584 38.8322 30.9233 39.1772 29.7157C38.4009 32.6053 36.8914 35.0206 34.6487 36.832C32.3628 38.5572 29.5594 39.6785 26.5835 39.6785C23.2625 39.6785 20.1141 38.514 17.5695 36.0557C16.3618 34.8912 15.2836 33.2954 14.6367 31.829C13.9035 30.147 13.6016 28.5512 13.6016 26.7397Z" fill="#19F7CE"/>
<path d="M0.015625 26.7402C0.015625 19.6238 2.64651 13.1976 7.477 8.19457C12.0487 3.45035 18.5612 0 26.7127 0C32.7939 0 37.7106 1.7683 42.153 4.87361C46.5953 7.97892 49.7437 12.2919 51.8139 17.3811C50.9082 15.2678 49.7869 13.4132 48.3205 11.6449C46.8541 9.91974 43.7919 6.64191 40.0396 4.65797C32.5783 0.690069 22.9604 0.474423 14.9384 5.90872C9.80598 9.48845 6.39876 14.9227 5.36366 20.4433C4.28543 26.007 5.40679 31.3981 7.82203 35.7542C12.7819 44.3369 21.6665 47.011 28.5672 46.1484C34.9504 45.372 38.487 42.5686 40.8591 41.1885C43.1018 39.8946 44.2232 39.7221 45.3445 40.1965C46.0777 40.7572 46.6384 41.2748 47.6735 41.1885C48.4498 41.1454 49.1399 40.4553 49.6143 39.7221C50.9945 37.6088 52.1158 35.4523 52.8059 32.9939C51.2101 38.9026 48.1048 43.9056 43.49 47.6579C38.7457 51.2376 32.9664 53.4803 26.8421 53.4803C20.0276 53.4803 13.5151 51.0651 8.29645 46.019C5.79495 43.6037 3.55223 40.3259 2.25835 37.3069C0.791953 33.8134 0.101884 30.5356 0.101884 26.7833L0.015625 26.7402Z" fill="#19F7CE"/>
<path d="M18.3887 26.7398C18.3887 22.2975 21.9684 18.7178 26.4107 18.7178C30.853 18.7178 34.4328 22.2975 34.4328 26.7398C34.4328 31.1821 30.853 34.7619 26.4107 34.7619C21.9684 34.7619 18.3887 31.1821 18.3887 26.7398Z" fill="white"/>
<path d="M45.3444 32.5197H42.0234V17.0363H45.1287L52.3313 27.1717C52.2882 26.5247 52.2451 25.8347 52.2451 25.0583V17.0794H55.566V32.5628H52.4607L45.2581 22.4274C45.3013 23.0744 45.3444 23.7645 45.3444 24.5408V32.5197ZM58.5851 27.8186C58.2401 26.8698 58.0675 25.8347 58.0675 24.7996C58.0675 23.7213 58.2401 22.7294 58.5851 21.7805C58.9301 20.8317 59.4477 19.9691 60.0946 19.1927C60.7847 18.4595 61.6473 17.8557 62.6824 17.3813C63.7606 16.95 64.9251 16.7344 66.2621 16.7344C67.5991 16.7344 68.8067 16.95 69.8418 17.3813C70.9201 17.8126 71.7827 18.4164 72.4296 19.1927C73.1197 19.9259 73.5941 20.7885 73.9391 21.7805C74.2842 22.7294 74.4567 23.7645 74.4567 24.7996C74.4567 25.8778 74.2842 26.8698 73.9391 27.8186C73.5941 28.7675 73.0765 29.63 72.4296 30.4064C71.7395 31.1396 70.877 31.7434 69.8418 32.2178C68.7636 32.6491 67.5991 32.8647 66.2621 32.8647C64.9251 32.8647 63.7175 32.6491 62.6824 32.2178C61.6041 31.7865 60.7416 31.1827 60.0946 30.4064C59.4046 29.6732 58.9301 28.8106 58.5851 27.8186ZM69.885 28.3362C70.7476 27.3873 71.1357 26.2228 71.1357 24.7564C71.1357 23.3332 70.7044 22.1255 69.885 21.1767C69.0224 20.2278 67.8579 19.7534 66.3052 19.7534C64.7526 19.7534 63.545 20.2278 62.7255 21.1767C61.8629 22.1255 61.4748 23.29 61.4748 24.7564C61.4748 26.1797 61.9061 27.3873 62.7255 28.3362C63.5881 29.285 64.7526 29.7594 66.3052 29.7594C67.8579 29.7594 69.0224 29.285 69.885 28.3362ZM80.3223 32.5197H77.0013V17.0363H83.3845C84.2039 17.0363 84.9371 17.1225 85.6272 17.2951C86.3172 17.4676 86.9642 17.7263 87.568 18.0714C88.1718 18.4595 88.6462 18.9771 88.9913 19.624C89.3363 20.3141 89.5088 21.1336 89.5088 22.0393C89.5088 24.3683 88.3874 25.9209 86.1016 26.6541L90.7164 32.5197H86.8779L82.6944 27.0854H80.2791V32.5197H80.3223ZM80.3223 19.9259V24.3251H83.5138C84.247 24.3251 84.894 24.1526 85.3684 23.7645C85.8428 23.4194 86.1016 22.8587 86.1016 22.1255C86.1016 21.3923 85.8428 20.8317 85.3684 20.4435C84.894 20.0985 84.247 19.9259 83.4707 19.9259H80.2791H80.3223ZM90.8458 16.9932H103.655V19.9691H98.911V32.4766H95.6332V19.9691H90.889V16.9932H90.8458ZM115.904 16.9932H119.225V32.4766H115.904V26.2228H108.96V32.4766H105.639V16.9932H108.96V23.2469H115.904V16.9932ZM122.546 16.9932H133.458V19.9259H127.161H125.867H122.546V16.9932ZM125.867 23.2038H127.161H132.811V26.0934H127.161H125.867H122.546V23.2038H125.867ZM125.867 29.5438H127.161H133.587V32.4766H122.546V29.5438H125.867ZM139.539 32.4766H136.218V16.9932H142.601C143.42 16.9932 144.154 17.0794 144.844 17.2519C145.534 17.4244 146.181 17.6832 146.785 18.0283C147.388 18.4164 147.863 18.934 148.208 19.5809C148.553 20.271 148.725 21.0904 148.725 21.9962C148.725 24.3251 147.604 25.8778 145.318 26.611L149.933 32.4766H146.094L141.911 27.0423H139.496V32.4766H139.539ZM139.539 19.8828V24.282H142.73C143.464 24.282 144.111 24.1095 144.585 23.7213C145.059 23.3763 145.318 22.8156 145.318 22.0824C145.318 21.3492 145.059 20.7885 144.585 20.4004C144.111 20.0553 143.464 19.8828 142.687 19.8828H139.496H139.539ZM155.152 32.4766H151.831V16.9932H154.936L162.139 27.1285C162.095 26.4816 162.052 25.7915 162.052 25.0152V17.0363H165.373V32.5197H162.268L155.065 22.3843C155.109 23.0313 155.152 23.7213 155.152 24.4977V32.4766Z" fill="white"/>
<path d="M138.159 35.6675H139.626L137.685 42.0075H136.218L134.968 37.6946L133.717 42.0075H132.25L130.31 35.6675H131.776L133.027 40.4548L134.407 35.6675H135.614L136.995 40.4548L138.245 35.6675H138.159ZM140.1 40.0667C139.971 39.6785 139.884 39.2472 139.884 38.8159C139.884 38.3846 139.971 37.9533 140.1 37.5652C140.229 37.177 140.445 36.832 140.704 36.5301C140.963 36.2282 141.351 35.9694 141.782 35.7969C142.213 35.6243 142.688 35.5381 143.248 35.5381C143.809 35.5381 144.283 35.6243 144.715 35.7969C145.146 35.9694 145.491 36.2282 145.793 36.5301C146.052 36.832 146.267 37.177 146.397 37.5652C146.526 37.9533 146.612 38.3846 146.612 38.8159C146.612 39.2472 146.526 39.6785 146.397 40.0667C146.267 40.4548 146.052 40.7999 145.793 41.1018C145.534 41.4037 145.146 41.6624 144.715 41.835C144.283 42.0075 143.809 42.0937 143.248 42.0937C142.688 42.0937 142.213 42.0075 141.782 41.835C141.351 41.6624 141.006 41.4037 140.704 41.1018C140.445 40.7999 140.229 40.4548 140.1 40.0667ZM144.715 40.2823C145.06 39.8941 145.232 39.4197 145.232 38.8159C145.232 38.2121 145.06 37.7377 144.715 37.3495C144.37 36.9614 143.895 36.7888 143.248 36.7888C142.601 36.7888 142.127 36.9614 141.782 37.3495C141.437 37.7377 141.264 38.2121 141.264 38.8159C141.264 39.4197 141.437 39.8941 141.782 40.2823C142.127 40.6705 142.601 40.843 143.248 40.843C143.895 40.843 144.37 40.6705 144.715 40.2823ZM148.985 42.0075H147.648V35.6675H150.235C150.58 35.6675 150.882 35.7106 151.141 35.7537C151.4 35.84 151.702 35.9263 151.917 36.0988C152.176 36.2282 152.349 36.4438 152.521 36.7457C152.651 37.0045 152.737 37.3495 152.737 37.7377C152.737 38.6865 152.262 39.3335 151.357 39.6354L153.254 42.0075H151.702L149.977 39.8079H148.985V42.0075ZM148.985 36.8751V38.6434H150.278C150.58 38.6434 150.839 38.5571 151.055 38.4278C151.27 38.2984 151.357 38.0396 151.357 37.7377C151.357 37.4358 151.27 37.2201 151.055 37.0476C150.839 36.9182 150.58 36.832 150.278 36.832H148.985V36.8751ZM153.988 35.6675H155.325V40.7567H158.43V41.9644H153.988V35.6243V35.6675ZM159.249 35.6675H161.621C162.7 35.6675 163.519 35.9694 164.08 36.5301C164.641 37.0907 164.942 37.8671 164.942 38.8159C164.942 39.7648 164.641 40.5411 164.08 41.1018C163.519 41.6624 162.7 41.9644 161.621 41.9644H159.249V35.6243V35.6675ZM163.045 40.2823C163.39 39.9373 163.519 39.4629 163.519 38.8159C163.519 38.169 163.347 37.6946 163.045 37.3495C162.7 37.0045 162.225 36.832 161.621 36.832H160.629V40.7567H161.621C162.268 40.7567 162.743 40.5842 163.045 40.2392V40.2823Z" fill="white"/>
</svg>
