<?xml version="1.0" encoding="UTF-8"?>
<!DOCTYPE svg PUBLIC "-//W3C//DTD SVG 1.1//EN" "http://www.w3.org/Graphics/SVG/1.1/DTD/svg11.dtd">
<!-- Creator: CorelDRAW -->
<svg xmlns="http://www.w3.org/2000/svg" xml:space="preserve" width="1.72326in" height="0.557087in" version="1.1" style="shape-rendering:geometricPrecision; text-rendering:geometricPrecision; image-rendering:optimizeQuality; fill-rule:evenodd; clip-rule:evenodd"
viewBox="0 0 38.35 12.4"
 xmlns:xlink="http://www.w3.org/1999/xlink"
 xmlns:xodm="http://www.corel.com/coreldraw/odm/2003">
 <defs>
  <style type="text/css">
   <![CDATA[
    .fil2 {fill:#373435;fill-rule:nonzero}
    .fil1 {fill:#041310;fill-rule:nonzero}
    .fil0 {fill:#19F7CE;fill-rule:nonzero}
   ]]>
  </style>
 </defs>
 <g id="Layer_x0020_1">
  <metadata id="CorelCorpID_0Corel-Layer"/>
  <g id="_2637840115552">
   <path class="fil0" d="M3.15 6.2c0,-0.8 0.3,-1.53 0.84,-2.09 0.52,-0.53 1.25,-0.92 2.17,-0.92 0.69,0 1.24,0.2 1.74,0.55 0.5,0.35 0.85,0.83 1.09,1.41 -0.1,-0.23 -0.23,-0.45 -0.39,-0.64 -0.16,-0.2 -0.51,-0.56 -0.93,-0.79 -0.84,-0.45 -1.92,-0.47 -2.83,0.14 -0.58,0.4 -0.96,1.02 -1.08,1.63 -0.12,0.63 0,1.23 0.27,1.72 0.56,0.96 1.56,1.27 2.33,1.17 0.72,-0.09 1.12,-0.4 1.38,-0.56 0.25,-0.14 0.38,-0.16 0.5,-0.11 0.08,0.06 0.15,0.13 0.26,0.11 0.09,-0.03 0.17,-0.09 0.22,-0.17 0.15,-0.24 0.28,-0.48 0.36,-0.76 -0.18,0.67 -0.53,1.23 -1.05,1.65 -0.53,0.4 -1.18,0.66 -1.87,0.66 -0.77,0 -1.5,-0.27 -2.09,-0.84 -0.28,-0.27 -0.53,-0.64 -0.68,-0.98 -0.17,-0.39 -0.24,-0.76 -0.24,-1.18l0 0z"/>
   <path class="fil0" d="M-0 6.2c0,-1.65 0.61,-3.14 1.73,-4.3 1.06,-1.1 2.57,-1.9 4.46,-1.9 1.41,0 2.55,0.41 3.58,1.13 1.03,0.72 1.76,1.72 2.24,2.9 -0.21,-0.49 -0.47,-0.92 -0.81,-1.33 -0.34,-0.4 -1.05,-1.16 -1.92,-1.62 -1.73,-0.92 -3.96,-0.97 -5.82,0.29 -1.19,0.83 -1.98,2.09 -2.22,3.37 -0.25,1.29 0.01,2.54 0.57,3.55 1.15,1.99 3.21,2.61 4.81,2.41 1.48,-0.18 2.3,-0.83 2.85,-1.15 0.52,-0.3 0.78,-0.34 1.04,-0.23 0.17,0.13 0.3,0.25 0.54,0.23 0.18,-0.01 0.34,-0.17 0.45,-0.34 0.32,-0.49 0.58,-0.99 0.74,-1.56 -0.37,1.37 -1.09,2.53 -2.16,3.4 -1.1,0.83 -2.44,1.35 -3.86,1.35 -1.58,0 -3.09,-0.56 -4.3,-1.73 -0.58,-0.56 -1.1,-1.32 -1.4,-2.02 -0.34,-0.81 -0.5,-1.57 -0.5,-2.44z"/>
   <path class="fil1" d="M4.26 6.2c0,-1.03 0.83,-1.86 1.86,-1.86 1.03,0 1.86,0.83 1.86,1.86 0,1.03 -0.83,1.86 -1.86,1.86 -1.03,0 -1.86,-0.83 -1.86,-1.86z"/>
   <path class="fil2" d="M10.51 7.54l-0.77 0 0 -3.59 0.72 0 1.67 2.35c-0.01,-0.15 -0.02,-0.31 -0.02,-0.49l0 -1.85 0.77 0 0 3.59 -0.72 0 -1.67 -2.35c0.01,0.15 0.02,0.31 0.02,0.49l0 1.85zm3.07 -1.09c-0.08,-0.22 -0.12,-0.46 -0.12,-0.7 0,-0.25 0.04,-0.48 0.12,-0.7 0.08,-0.22 0.2,-0.42 0.35,-0.6 0.16,-0.17 0.36,-0.31 0.6,-0.42 0.25,-0.1 0.52,-0.15 0.83,-0.15 0.31,0 0.59,0.05 0.83,0.15 0.25,0.1 0.45,0.24 0.6,0.42 0.16,0.17 0.27,0.37 0.35,0.6 0.08,0.22 0.12,0.46 0.12,0.7 0,0.25 -0.04,0.48 -0.12,0.7 -0.08,0.22 -0.2,0.42 -0.35,0.6 -0.16,0.17 -0.36,0.31 -0.6,0.42 -0.25,0.1 -0.52,0.15 -0.83,0.15 -0.31,0 -0.59,-0.05 -0.83,-0.15 -0.25,-0.1 -0.45,-0.24 -0.6,-0.42 -0.16,-0.17 -0.27,-0.37 -0.35,-0.6zm2.62 0.12c0.2,-0.22 0.29,-0.49 0.29,-0.83 0,-0.33 -0.1,-0.61 -0.29,-0.83 -0.2,-0.22 -0.47,-0.33 -0.83,-0.33 -0.36,0 -0.64,0.11 -0.83,0.33 -0.2,0.22 -0.29,0.49 -0.29,0.83 0,0.33 0.1,0.61 0.29,0.83 0.2,0.22 0.47,0.33 0.83,0.33 0.36,0 0.63,-0.11 0.83,-0.33zm2.42 0.97l-0.77 0 0 -3.59 1.48 0c0.19,0 0.36,0.02 0.52,0.06 0.16,0.04 0.31,0.1 0.45,0.18 0.14,0.09 0.25,0.21 0.33,0.36 0.08,0.16 0.12,0.35 0.12,0.56 0,0.54 -0.26,0.9 -0.79,1.07l1.07 1.36 -0.89 0 -0.97 -1.26 -0.56 0 0 1.26zm0 -2.92l0 1.02 0.74 0c0.17,0 0.32,-0.04 0.43,-0.13 0.11,-0.08 0.17,-0.21 0.17,-0.38 0,-0.17 -0.06,-0.3 -0.17,-0.39 -0.11,-0.08 -0.26,-0.12 -0.44,-0.12l-0.74 0zm2.44 -0.68l2.97 0 0 0.69 -1.1 0 0 2.9 -0.76 0 0 -2.9 -1.1 0 0 -0.69zm5.81 0l0.77 0 0 3.59 -0.77 0 0 -1.45 -1.61 0 0 1.45 -0.77 0 0 -3.59 0.77 0 0 1.45 1.61 0 0 -1.45zm1.54 0l2.53 0 0 0.68 -1.46 0 -0.3 0 -0.77 0 0 -0.68zm0.77 1.44l0.3 0 1.31 0 0 0.67 -1.31 0 -0.3 0 -0.77 0 0 -0.67 0.77 0zm0 1.47l0.3 0 1.49 0 0 0.68 -2.56 0 0 -0.68 0.77 0zm3.17 0.68l-0.77 0 0 -3.59 1.48 0c0.19,0 0.36,0.02 0.52,0.06 0.16,0.04 0.31,0.1 0.45,0.18 0.14,0.09 0.25,0.21 0.33,0.36 0.08,0.16 0.12,0.35 0.12,0.56 0,0.54 -0.26,0.9 -0.79,1.07l1.07 1.36 -0.89 0 -0.97 -1.26 -0.56 0 0 1.26zm0 -2.92l0 1.02 0.74 0c0.17,0 0.32,-0.04 0.43,-0.13 0.11,-0.08 0.17,-0.21 0.17,-0.38 0,-0.17 -0.06,-0.3 -0.17,-0.39 -0.11,-0.08 -0.26,-0.12 -0.44,-0.12l-0.74 0zm3.62 2.92l-0.77 0 0 -3.59 0.72 0 1.67 2.35c-0.01,-0.15 -0.02,-0.31 -0.02,-0.49l0 -1.85 0.77 0 0 3.59 -0.72 0 -1.67 -2.35c0.01,0.15 0.02,0.31 0.02,0.49l0 1.85z"/>
   <path class="fil2" d="M32.03 8.27l0.34 0 -0.45 1.47 -0.34 0 -0.29 -1 -0.29 1 -0.34 0 -0.45 -1.47 0.34 0 0.29 1.11 0.32 -1.11 0.28 0 0.32 1.11 0.29 -1.11zm0.45 1.02c-0.03,-0.09 -0.05,-0.19 -0.05,-0.29 0,-0.1 0.02,-0.2 0.05,-0.29 0.03,-0.09 0.08,-0.17 0.14,-0.24 0.06,-0.07 0.15,-0.13 0.25,-0.17 0.1,-0.04 0.21,-0.06 0.34,-0.06 0.13,0 0.24,0.02 0.34,0.06 0.1,0.04 0.18,0.1 0.25,0.17 0.06,0.07 0.11,0.15 0.14,0.24 0.03,0.09 0.05,0.19 0.05,0.29 0,0.1 -0.02,0.2 -0.05,0.29 -0.03,0.09 -0.08,0.17 -0.14,0.24 -0.06,0.07 -0.15,0.13 -0.25,0.17 -0.1,0.04 -0.21,0.06 -0.34,0.06 -0.13,0 -0.24,-0.02 -0.34,-0.06 -0.1,-0.04 -0.18,-0.1 -0.25,-0.17 -0.06,-0.07 -0.11,-0.15 -0.14,-0.24zm1.07 0.05c0.08,-0.09 0.12,-0.2 0.12,-0.34 0,-0.14 -0.04,-0.25 -0.12,-0.34 -0.08,-0.09 -0.19,-0.13 -0.34,-0.13 -0.15,0 -0.26,0.04 -0.34,0.13 -0.08,0.09 -0.12,0.2 -0.12,0.34 0,0.14 0.04,0.25 0.12,0.34 0.08,0.09 0.19,0.13 0.34,0.13 0.15,0 0.26,-0.04 0.34,-0.13zm0.99 0.4l-0.31 0 0 -1.47 0.6 0c0.08,0 0.15,0.01 0.21,0.02 0.06,0.02 0.13,0.04 0.18,0.08 0.06,0.03 0.1,0.08 0.14,0.15 0.03,0.06 0.05,0.14 0.05,0.23 0,0.22 -0.11,0.37 -0.32,0.44l0.44 0.55 -0.36 0 -0.4 -0.51 -0.23 0 0 0.51zm0 -1.19l0 0.41 0.3 0c0.07,0 0.13,-0.02 0.18,-0.05 0.05,-0.03 0.07,-0.09 0.07,-0.16 0,-0.07 -0.02,-0.12 -0.07,-0.16 -0.05,-0.03 -0.11,-0.05 -0.18,-0.05l-0.3 0zm1.16 -0.28l0.31 0 0 1.18 0.72 0 0 0.28 -1.03 0 0 -1.47zm1.22 0l0.55 0c0.25,0 0.44,0.07 0.57,0.2 0.13,0.13 0.2,0.31 0.2,0.53 0,0.22 -0.07,0.4 -0.2,0.53 -0.13,0.13 -0.32,0.2 -0.57,0.2l-0.55 0 0 -1.47zm0.88 1.07c0.08,-0.08 0.11,-0.19 0.11,-0.34 0,-0.15 -0.04,-0.26 -0.11,-0.34 -0.08,-0.08 -0.19,-0.12 -0.33,-0.12l-0.23 0 0 0.91 0.23 0c0.15,0 0.26,-0.04 0.33,-0.12z"/>
  </g>
 </g>
</svg>
