<svg width="159" height="55" viewBox="0 0 159 55" fill="none" xmlns="http://www.w3.org/2000/svg">
<path d="M13.645 27.4451C13.645 23.9843 14.9254 20.8657 17.2706 18.4444C19.5017 16.1372 22.6456 14.4639 26.6135 14.4639C29.5672 14.4639 31.9505 15.3259 34.1056 16.8345C36.2607 18.343 37.7819 20.422 38.7834 22.9067C38.365 21.9052 37.7946 20.9671 37.0847 20.1305C36.3748 19.2938 34.8915 17.7092 33.0661 16.733C29.4531 14.8061 24.7754 14.7047 20.8835 17.3415C18.3989 19.0783 16.7508 21.7151 16.2311 24.3899C15.6987 27.1028 16.2438 29.7015 17.4101 31.8186C19.806 35.9766 24.1415 37.2824 27.4755 36.8767C30.5687 36.4964 32.2928 35.14 33.4337 34.4808C34.5112 33.8596 35.069 33.7708 35.6015 33.9864C35.9564 34.2526 36.2607 34.5441 36.7424 34.4554C37.1227 34.3286 37.4523 34.0751 37.6932 33.7455C38.3524 32.7313 38.8975 31.6791 39.2398 30.4875C38.4665 33.3652 36.9579 35.7865 34.7141 37.5993C32.4196 39.336 29.6053 40.4262 26.6262 40.4262C23.3175 40.4262 20.1609 39.26 17.6256 36.8006C16.4086 35.6344 15.3184 34.0371 14.6972 32.5792C13.9746 30.8932 13.645 29.2832 13.645 27.4704V27.4451Z" fill="#19F7CE"/>
<path d="M0.0551758 27.4583C0.0551758 20.3212 2.70464 13.894 7.52187 8.89925C12.1109 4.14539 18.6015 0.697266 26.7781 0.697266C32.8758 0.697266 37.7691 2.47204 42.206 5.57789C46.6429 8.68374 49.7995 12.9812 51.8531 18.09C50.9531 15.973 49.8121 14.0968 48.367 12.3727C46.9091 10.636 43.854 7.37801 40.0889 5.37505C32.6349 1.40717 23.0004 1.20434 14.9632 6.63007C9.84175 10.2176 6.43168 15.6561 5.36682 21.1578C4.2766 26.7484 5.39216 32.1107 7.81346 36.4589C12.7701 45.0285 21.682 47.716 28.5656 46.8667C34.9548 46.0807 38.4916 43.2918 40.8496 41.9227C43.0807 40.6296 44.2343 40.4648 45.3245 40.9085C46.0598 41.4663 46.6176 41.9861 47.6698 41.8846C48.4557 41.8466 49.1403 41.1494 49.622 40.4141C50.9911 38.3097 52.1067 36.1547 52.8039 33.6953C51.2193 39.6155 48.0881 44.6102 43.4737 48.3372C38.7325 51.9121 32.9391 54.1686 26.8162 54.1686C20.0087 54.1686 13.5054 51.76 8.25716 46.7019C5.7598 44.2933 3.50329 40.9973 2.22292 37.9928C0.73972 34.5067 0.0551758 31.2107 0.0551758 27.4583Z" fill="#19F7CE"/>
<path d="M18.4238 27.4327C18.4238 23.0085 22.0114 19.4209 26.4357 19.4209C30.8599 19.4209 34.4475 23.0085 34.4475 27.4327C34.4475 31.857 30.8599 35.4445 26.4357 35.4445C22.0114 35.4445 18.4238 31.857 18.4238 27.4327Z" fill="white"/>
<path fill-rule="evenodd" clip-rule="evenodd" d="M143.304 36.0026H144.635V42.696H143.203V38.576L141.428 41.2635H140.592L138.817 38.5633V42.696H137.384V36.0026H138.715L141.01 39.4887L143.292 36.0026H143.304ZM151.937 42.696H150.505V39.2479C150.505 38.9056 150.518 38.6013 150.53 38.3351L147.412 42.7087H146.068V36.0152H147.5V39.4634C147.5 39.8056 147.488 40.1099 147.475 40.3761L150.594 36.0026H151.937V42.696ZM153.37 36.0026H155.893C157.819 36.0026 158.783 36.7505 158.783 38.2464C158.783 39.7423 157.819 40.4902 155.893 40.4902H154.802V42.696H153.37V36.0026ZM155.969 39.2352C156.869 39.2352 157.325 38.9056 157.325 38.2464C157.325 37.5872 156.869 37.2576 155.969 37.2576H154.815V39.2225H155.969V39.2352ZM42.041 25.899C42.041 24.6187 42.2692 23.4651 42.7256 22.4382C43.1819 21.4114 43.7777 20.6001 44.5257 19.9789C45.2736 19.3704 46.1103 18.9014 47.023 18.5844C47.9484 18.2675 48.8992 18.1154 49.9134 18.1154C51.4473 18.1154 52.8417 18.4323 54.0967 19.0535V22.0453C53.1079 21.2846 51.891 20.8916 50.4331 20.8916C49.0133 20.8916 47.7963 21.31 46.7822 22.1593C45.768 23.0087 45.261 24.251 45.261 25.899C45.261 26.685 45.413 27.3696 45.7046 27.9781C45.9962 28.5866 46.3892 29.0683 46.8836 29.4359C47.378 29.8035 47.9231 30.0698 48.5316 30.2599C49.1401 30.4501 49.7739 30.5388 50.4204 30.5388C52.0431 30.5388 53.2981 30.1331 54.1855 29.3218V32.4023C52.8924 33.0362 51.4726 33.3404 49.9387 33.3404C48.9372 33.3404 47.9738 33.1883 47.0484 32.884C46.123 32.5798 45.2863 32.1361 44.5257 31.5403C43.7651 30.9571 43.1566 30.1712 42.7002 29.195C42.2438 28.2189 42.0156 27.116 42.0156 25.8864L42.041 25.899ZM56.5307 18.407H66.8371V21.1705H63.0974V21.0184H56.518V18.407H56.5307ZM59.6619 24.2891H63.0974H66.2032V27.0273H63.0974H59.6619H56.5307V24.2891H59.6619ZM59.6619 30.2979H63.0974H66.9639V33.0615H56.5307V30.2979H59.6619ZM69.4232 18.4196H75.825C77.435 18.4196 78.6774 18.7239 79.5648 19.3451C80.4521 19.9662 80.8958 20.8917 80.8958 22.1213C80.8958 23.7566 80.1606 24.8215 78.6774 25.3159C79.4887 25.5568 80.1605 25.9624 80.6803 26.5582C81.2127 27.1541 81.4789 27.9527 81.4789 28.9542C81.4789 29.7528 81.3015 30.4247 80.9592 30.9952C80.6169 31.5656 80.1352 31.984 79.5521 32.2629C78.9562 32.5418 78.3478 32.7446 77.7266 32.8714C77.1054 32.9981 76.4462 33.0615 75.7236 33.0615H69.4232V18.4196ZM78.3351 28.6246C78.3351 27.3696 77.5111 26.7484 75.8504 26.7484H72.5417V30.5134H75.6729C76.4969 30.5134 77.1434 30.3867 77.6125 30.1205C78.0815 29.8542 78.3224 29.3598 78.3224 28.6373L78.3351 28.6246ZM77.7646 22.6664C77.7646 21.5508 77.0293 20.9931 75.5461 20.9931H72.5544V24.3398H75.711C76.3194 24.3398 76.8138 24.2003 77.1941 23.9088C77.5744 23.6172 77.7646 23.2115 77.7646 22.6664ZM83.7862 18.4196H94.0925V21.1832H94.0798H86.9174H83.7862V18.4196ZM86.9174 24.3017H93.4587V27.04H86.9174H83.7862V24.3017H86.9174ZM86.9174 30.3106H94.0798H94.2193V33.0742H83.7862V30.3106H86.9174ZM96.6786 18.4323H102.206C106.414 18.4323 108.519 20.0676 108.519 23.351C108.519 26.6216 106.414 28.2696 102.206 28.2696H99.8225V33.0742H96.6913V18.4323H96.6786ZM102.345 25.5061C104.323 25.5061 105.312 24.7835 105.312 23.351C105.312 21.9185 104.323 21.1959 102.345 21.1959H99.8098V25.5061H102.345ZM120.334 18.4323H123.465V33.0742H120.334V27.1794H113.767V33.0742H110.636V18.4323H113.767V24.3271H120.334V18.4323ZM132.136 33.0742H126.609V18.4323H129.74V23.2369H132.123C136.332 23.2622 138.436 24.8976 138.436 28.1555C138.436 31.4262 136.332 33.0742 132.123 33.0742H132.136ZM129.753 26.0005V30.3106H132.288C134.266 30.3106 135.255 29.588 135.255 28.1555C135.255 26.723 134.266 26.0005 132.288 26.0005H129.753ZM142.785 33.0742H139.653V18.4323H142.785V33.0742ZM155.626 33.0742H158.758V18.4323H155.804L148.984 27.9907C149.022 27.3822 149.047 26.7104 149.047 25.9878V18.4323H145.916V33.0742H148.87L155.69 23.5158C155.652 24.1116 155.626 24.7835 155.626 25.5187V33.0742ZM155.626 16.4674C154.739 17.0886 153.636 17.4055 152.343 17.4055C151.063 17.4055 149.972 17.0886 149.085 16.4674V14.1855C150.049 14.7814 151.139 15.0856 152.343 15.0856C153.573 15.0856 154.663 14.7814 155.626 14.1855V16.4674Z" fill="#FEFEFE"/>
</svg>
