<?xml version="1.0" encoding="utf-8"?><svg viewBox="0 0 64 108" xmlns="http://www.w3.org/2000/svg" xmlns:xlink="http://www.w3.org/1999/xlink"><style>:root>svg{display:none}:root>svg:target{display:block}</style><svg viewBox="0 0 24 24" id="load" xmlns="http://www.w3.org/2000/svg"><path d="M18.222 6.375h-.598C16.53 4.33 14.34 3 11.95 3 9.66 3 7.57 4.33 6.376 6.375h-.598C3.19 6.375 1 8.625 1 11.386c0 2.762 2.19 4.91 4.878 4.91h2.588c.597 0 .996-.41.996-1.023 0-.614-.399-1.023-.996-1.023H5.878c-1.593 0-2.887-1.33-2.887-2.864 0-1.534 1.294-2.966 2.887-2.966.298 0 .597 0 .796.103.498.204.996-.103 1.195-.614.697-1.739 2.29-2.864 4.18-2.864 1.892 0 3.485 1.125 4.182 2.864.199.511.697.716 1.194.614.299-.103.498-.103.797-.103 1.592 0 2.887 1.33 2.887 2.966 0 1.637-1.295 2.864-2.887 2.864h-5.177v-3.068l.996 1.022c.199.205.498.307.697.307.199 0 .497-.102.696-.306a1.007 1.007 0 000-1.432l-2.787-2.864c-.1-.102-.199-.204-.299-.204-.199-.103-.497-.103-.796 0-.1.102-.2.102-.299.204l-2.687 2.864c-.399.409-.399 1.125 0 1.431.398.307.995.41 1.393 0l.996-1.022v8.795c0 .614.398 1.023.995 1.023.598 0 .996-.41.996-1.023v-3.681h5.176c2.688 0 4.878-2.25 4.878-5.012 0-2.761-2.09-4.909-4.778-4.909z"/></svg><svg viewBox="0 0 64 108" id="main-title" xmlns="http://www.w3.org/2000/svg"><rect width="64" height="108" rx="32" fill-opacity=".12"/><path d="M32 30v28.133c-1.573-.906-3.387-1.466-5.333-1.466C20.773 56.667 16 61.44 16 67.333 16 73.227 20.773 78 26.667 78c5.893 0 10.666-4.773 10.666-10.667V40.667H48V30H32zm-5.333 42.667c-2.934 0-5.334-2.4-5.334-5.334 0-2.933 2.4-5.333 5.334-5.333C29.6 62 32 64.4 32 67.333c0 2.934-2.4 5.334-5.333 5.334z"/></svg></svg>