<?xml version="1.0" encoding="utf-8"?><!DOCTYPE svg  PUBLIC '-//W3C//DTD SVG 1.1//EN'  'http://www.w3.org/Graphics/SVG/1.1/DTD/svg11.dtd'><svg viewBox="0 0 800 800" xmlns="http://www.w3.org/2000/svg" xmlns:xlink="http://www.w3.org/1999/xlink"><style>:root>svg{display:none}:root>svg:target{display:block}</style><svg viewBox="0 0 25 24" id="check" xmlns="http://www.w3.org/2000/svg"><rect x=".5" width="24" height="24" rx="12" fill-opacity=".1"/><path fill-rule="evenodd" clip-rule="evenodd" d="M17.596 7.39l-7.16 6.91-1.9-2.03c-.35-.33-.9-.35-1.3-.07-.39.29-.5.8-.26 1.21l2.25 3.66c.22.34.6.55 1.03.55.41 0 .8-.21 1.02-.55.36-.47 7.23-8.66 7.23-8.66.9-.92-.19-1.73-.91-1.03v.01z"/></svg><svg viewBox="0 0 846.66 846.66" id="job" xmlns="http://www.w3.org/2000/svg"><defs><style>.bfil0{fill:#000;fill-rule:nonzero}</style></defs><path class="bfil0" d="M30.88 111.05h784.9c11.4 0 20.64 9.24 20.64 20.64v583.28c0 11.4-9.24 20.64-20.64 20.64H30.88c-11.4 0-20.64-9.24-20.64-20.64V131.69c0-11.4 9.24-20.64 20.64-20.64zm146.05 288.17c0 27.16-41.29 27.16-41.29 0 0-32.49 15.12-63.05 40.68-82.92a82.067 82.067 0 01-4.48-7.04 78.471 78.471 0 01-10.12-38.63c0-43.57 35.32-78.89 78.89-78.89 43.56 0 78.89 35.32 78.89 78.89 0 16.39-5.09 32.34-14.61 45.67 25.57 19.87 40.69 50.43 40.69 82.92 0 27.16-41.29 27.16-41.29 0 0-23.44-12.59-44.7-33.14-55.92-9.59 4.06-20.13 6.22-30.54 6.22s-20.96-2.16-30.55-6.22c-20.54 11.22-33.13 32.48-33.13 55.92zm-55.14 91.99h237.63c11.4 0 20.65 9.25 20.65 20.65v122.41c0 11.4-9.25 20.65-20.65 20.65H121.79c-11.4 0-20.64-9.25-20.64-20.65V511.86c0-11.4 9.24-20.65 20.64-20.65zm216.99 41.29H142.44v81.13h196.34V532.5zm-98.17-299.47c-20.77 0-37.6 16.83-37.6 37.6 0 21.09 16.9 37.6 37.6 37.6 20.72 0 37.6-16.69 37.6-37.6 0-20.77-16.84-37.6-37.6-37.6zm183.62 29.12c-27.15 0-27.15-41.29 0-41.29h300.64c27.15 0 27.15 41.29 0 41.29H424.23zm46.81 363.65c-27.16 0-27.16-41.3 0-41.3h253.83c27.15 0 27.15 41.3 0 41.3H471.04zm-46.81-272.74c-27.15 0-27.15-41.29 0-41.29h300.64c27.15 0 27.15 41.29 0 41.29H424.23zm46.81 90.91c-27.16 0-27.16-41.29 0-41.29h253.83c27.15 0 27.15 41.29 0 41.29H471.04zm0 90.92c-27.16 0-27.16-41.3 0-41.3h253.83c27.15 0 27.15 41.3 0 41.3H471.04zm324.09-382.55H51.53v541.98h743.6V152.34z" id="bLayer_x0020_1"/></svg><svg viewBox="0 0 24 24" id="load" xmlns="http://www.w3.org/2000/svg"><path d="M18.222 6.375h-.598C16.53 4.33 14.34 3 11.95 3 9.66 3 7.57 4.33 6.376 6.375h-.598C3.19 6.375 1 8.625 1 11.386c0 2.762 2.19 4.91 4.878 4.91h2.588c.597 0 .996-.41.996-1.023 0-.614-.399-1.023-.996-1.023H5.878c-1.593 0-2.887-1.33-2.887-2.864 0-1.534 1.294-2.966 2.887-2.966.298 0 .597 0 .796.103.498.204.996-.103 1.195-.614.697-1.739 2.29-2.864 4.18-2.864 1.892 0 3.485 1.125 4.182 2.864.199.511.697.716 1.194.614.299-.103.498-.103.797-.103 1.592 0 2.887 1.33 2.887 2.966 0 1.637-1.295 2.864-2.887 2.864h-5.177v-3.068l.996 1.022c.199.205.498.307.697.307.199 0 .497-.102.696-.306a1.007 1.007 0 000-1.432l-2.787-2.864c-.1-.102-.199-.204-.299-.204-.199-.103-.497-.103-.796 0-.1.102-.2.102-.299.204l-2.687 2.864c-.399.409-.399 1.125 0 1.431.398.307.995.41 1.393 0l.996-1.022v8.795c0 .614.398 1.023.995 1.023.598 0 .996-.41.996-1.023v-3.681h5.176c2.688 0 4.878-2.25 4.878-5.012 0-2.761-2.09-4.909-4.778-4.909z"/></svg><svg viewBox="0 0 64 108" id="main-title" xmlns="http://www.w3.org/2000/svg"><rect width="64" height="108" rx="32" fill-opacity=".12"/><path d="M32 30v28.133c-1.573-.906-3.387-1.466-5.333-1.466C20.773 56.667 16 61.44 16 67.333 16 73.227 20.773 78 26.667 78c5.893 0 10.666-4.773 10.666-10.667V40.667H48V30H32zm-5.333 42.667c-2.934 0-5.334-2.4-5.334-5.334 0-2.933 2.4-5.333 5.334-5.333C29.6 62 32 64.4 32 67.333c0 2.934-2.4 5.334-5.333 5.334z"/></svg><svg viewBox="0 0 20 26" id="pdf" xmlns="http://www.w3.org/2000/svg"><path d="M15.798.394H.25v25.212H20V4.596L15.798.393z"/><path d="M16.646 12.862c-.303-.54-1.35-.71-1.83-.786a7.272 7.272 0 00-1.148-.078c-.3-.002-.597.013-.889.03-.108.007-.214.016-.321.026a7.765 7.765 0 01-.317-.35c-.65-.77-1.175-1.643-1.603-2.55.113-.438.204-.896.259-1.37.1-.868.135-1.856-.19-2.683-.112-.285-.412-.632-.757-.46-.396.2-.508.763-.54 1.163-.026.323-.008.646.046.964.055.32.144.623.24.926.091.278.19.554.3.827-.07.215-.143.426-.22.632-.178.47-.372.915-.558 1.344l-.288.624c-.297.654-.62 1.295-.983 1.915-.845.298-1.603.643-2.233 1.05a4.881 4.881 0 00-.885.715c-.235.245-.473.564-.494.917-.012.199.067.392.23.51.225.168.522.156.782.102.852-.179 1.507-.912 2.064-1.53a16.837 16.837 0 001.281-1.622 19.333 19.333 0 012.543-.6c.414-.068.839-.124 1.272-.164.304.286.634.546.993.763.28.171.577.317.888.425.315.103.632.187.959.24.165.024.334.034.506.028.386-.015.938-.162.974-.63a.653.653 0 00-.081-.378zm-9.22.857c-.18.28-.354.531-.518.752-.401.546-.86 1.195-1.524 1.438a1.178 1.178 0 01-.467.083c-.155-.009-.309-.078-.302-.255a.748.748 0 01.118-.327c.076-.127.17-.244.273-.351.218-.23.495-.452.813-.659a9.632 9.632 0 011.719-.855l-.112.175zM9.69 6.713a3.174 3.174 0 01-.027-.874c.016-.142.045-.281.087-.412.035-.11.112-.38.235-.415.202-.057.264.377.287.5.13.698.015 1.474-.141 2.16a9.19 9.19 0 01-.081.322 10.071 10.071 0 01-.137-.4 6.566 6.566 0 01-.223-.881zm1.387 5.511c-.759.123-1.481.285-2.16.475.082-.023.455-.73.539-.878.392-.691.713-1.417.944-2.178.408.806.902 1.577 1.51 2.263.056.062.113.124.17.184-.34.037-.675.082-1.003.134zm5.135.973c-.028.15-.348.236-.498.26-.442.069-.91.013-1.333-.129-.29-.097-.57-.23-.836-.39a4.96 4.96 0 01-.743-.555c.285-.017.574-.028.864-.023a7.3 7.3 0 01.87.056c.542.06 1.149.246 1.575.597.084.07.11.13.1.184zM16.449 2.495H.249V.394H15.8l.65 2.1zM8.066 20.448c0 .445-.131.79-.394 1.032-.263.243-.636.365-1.12.365h-.303v1.323H5.17v-3.99h1.38c.505 0 .883.11 1.136.33.253.22.38.534.38.94zm-1.817.518h.196c.162 0 .291-.046.387-.137a.495.495 0 00.143-.376c0-.27-.15-.404-.448-.404H6.25v.917zM12.09 21.089c0 .666-.184 1.179-.55 1.539-.367.36-.883.54-1.547.54h-1.29v-3.99h1.38c.64 0 1.135.164 1.483.492.349.327.523.8.523 1.419zm-1.12.038c0-.366-.072-.637-.217-.813-.144-.177-.364-.265-.659-.265H9.78v2.235h.24c.328 0 .568-.095.721-.285.153-.19.23-.48.23-.872zM13.866 23.168h-1.062v-3.99h2.358v.866h-1.296v.761h1.195v.865h-1.195v1.498z"/><path d="M15.798 4.595H20L15.798.394v4.201z"/></svg></svg>