<svg width="64" height="108" viewBox="0 0 64 108" fill="none" xmlns="http://www.w3.org/2000/svg">
<rect width="64" height="108" rx="32" fill="#19F7CF" fill-opacity="0.12"/>
<path d="M32 30V58.1333C30.4267 57.2267 28.6133 56.6667 26.6667 56.6667C20.7733 56.6667 16 61.44 16 67.3333C16 73.2267 20.7733 78 26.6667 78C32.56 78 37.3333 73.2267 37.3333 67.3333V40.6667H48V30H32ZM26.6667 72.6667C23.7333 72.6667 21.3333 70.2667 21.3333 67.3333C21.3333 64.4 23.7333 62 26.6667 62C29.6 62 32 64.4 32 67.3333C32 70.2667 29.6 72.6667 26.6667 72.6667Z" fill="#19F7CF"/>
</svg>
