<svg width="20" height="26" viewBox="0 0 20 26" fill="none" xmlns="http://www.w3.org/2000/svg">
<path d="M15.7984 0.393799H0.249664V25.6063H20V4.59535L15.7984 0.393799Z" fill="#E8E8E8"/>
<path d="M16.646 12.8621C16.3431 12.3222 15.2963 12.1525 14.816 12.0762C14.4375 12.016 14.0511 11.998 13.6682 11.9984C13.3676 11.9964 13.0714 12.0112 12.779 12.0278C12.6712 12.035 12.5645 12.0444 12.4579 12.0536C12.3486 11.9405 12.243 11.8237 12.1408 11.7042C11.4905 10.9344 10.9655 10.0614 10.5376 9.1542C10.6512 8.71588 10.7421 8.25842 10.797 7.78334C10.8972 6.91626 10.9316 5.92809 10.6067 5.10142C10.4946 4.8161 10.1954 4.46875 9.85033 4.64172C9.45359 4.84063 9.34199 5.4042 9.30964 5.80369C9.28361 6.12659 9.30182 6.45032 9.35604 6.76782C9.41126 7.08748 9.50015 7.391 9.59695 7.69411C9.68726 7.97203 9.7868 8.24778 9.89532 8.52095C9.82647 8.736 9.75337 8.9473 9.67662 9.1532C9.49766 9.62246 9.30415 10.0683 9.11804 10.4971C9.01992 10.7098 8.92387 10.9179 8.8299 11.1214C8.53253 11.7746 8.20971 12.4158 7.84739 13.0357C7.00226 13.3338 6.24386 13.6794 5.61402 14.0855C5.27615 14.3038 4.9777 14.5409 4.72914 14.801C4.49447 15.0464 4.25597 15.365 4.2351 15.7177C4.22337 15.9168 4.3022 16.1099 4.46528 16.228C4.68955 16.3956 4.98676 16.3844 5.24696 16.3299C6.09933 16.1511 6.75387 15.4184 7.31127 14.8009C7.69521 14.3755 8.13221 13.8354 8.58933 13.1822C8.59032 13.1807 8.59132 13.1792 8.5924 13.1777C9.37642 12.9346 10.2297 12.7294 11.1353 12.5786C11.549 12.51 11.9737 12.4538 12.4069 12.4144C12.7115 12.6997 13.0406 12.9595 13.3997 13.1765C13.6793 13.3485 13.9768 13.4938 14.2881 13.6022C14.603 13.705 14.9197 13.789 15.2468 13.8421C15.4119 13.8658 15.5808 13.8765 15.7534 13.87C16.1385 13.8554 16.6912 13.7078 16.7275 13.2405C16.7386 13.0975 16.7078 12.9721 16.646 12.8621ZM7.42636 13.7195C7.24599 13.9989 7.07203 14.2502 6.90812 14.4713C6.50672 15.0175 6.04827 15.6662 5.3845 15.9088C5.25844 15.9549 5.09245 16.0024 4.91749 15.9921C4.76165 15.983 4.60798 15.9142 4.61504 15.7372C4.61854 15.6446 4.66386 15.5264 4.73338 15.4103C4.80947 15.283 4.90369 15.1663 5.00572 15.0589C5.22434 14.8292 5.50076 14.6066 5.81875 14.4005C6.30648 14.0841 6.88875 13.7992 7.5378 13.5451C7.50046 13.6041 7.4632 13.6629 7.42636 13.7195ZM9.69009 6.7126C9.64003 6.42038 9.63246 6.12409 9.66323 5.83919C9.67853 5.69674 9.70755 5.5577 9.74954 5.4274C9.78514 5.3168 9.86197 5.04687 9.98455 5.01219C10.1866 4.95498 10.2487 5.38881 10.2716 5.51155C10.4018 6.20975 10.2871 6.98619 10.1308 7.67108C10.106 7.78002 10.0783 7.88721 10.0499 7.99398C10.0015 7.86085 9.95536 7.72729 9.91287 7.59308C9.82139 7.29995 9.73774 7.0034 9.69009 6.7126ZM11.0774 12.2243C10.3182 12.3474 9.59595 12.5086 8.91705 12.699C8.9988 12.6761 9.37234 11.9682 9.45567 11.8212C9.84825 11.1298 10.1694 10.4041 10.4002 9.64275C10.8076 10.4486 11.3022 11.2196 11.9097 11.9058C11.9657 11.9681 12.0226 12.0296 12.0805 12.0904C11.74 12.1271 11.405 12.1718 11.0774 12.2243ZM16.2119 13.1968C16.1841 13.3469 15.8636 13.4327 15.714 13.4563C15.2719 13.5258 14.8042 13.4702 14.3811 13.3281C14.0908 13.2306 13.8108 13.0979 13.5448 12.9382C13.2803 12.7785 13.033 12.5905 12.8017 12.3833C13.0868 12.3662 13.3755 12.3549 13.6655 12.3604C13.9556 12.3633 14.2479 12.378 14.5366 12.4157C15.0781 12.476 15.6848 12.6619 16.111 13.0132C16.1949 13.0825 16.2216 13.1437 16.2119 13.1968Z" fill="#FB3449"/>
<path d="M16.4487 2.49462H0.249664V0.393799H15.7984L16.4487 2.49462Z" fill="#FB3449"/>
<path d="M8.06643 20.4475C8.06643 20.8933 7.93504 21.2375 7.67209 21.4804C7.40915 21.7233 7.03577 21.8447 6.55179 21.8447H6.24884V23.1683H5.17095V19.1785H6.55187C7.05581 19.1785 7.43426 19.2886 7.68714 19.5087C7.94003 19.7288 8.06643 20.0417 8.06643 20.4475ZM6.24893 20.9659H6.44543C6.60734 20.9659 6.73607 20.9205 6.83161 20.8295C6.92716 20.7385 6.9749 20.6129 6.9749 20.4529C6.9749 20.1836 6.82571 20.049 6.52734 20.049H6.24893V20.9659Z" fill="#A4A9AD"/>
<path d="M12.0891 21.0888C12.0891 21.7546 11.9057 22.2677 11.5392 22.6279C11.1726 22.9882 10.6572 23.1683 9.9932 23.1683H8.70234V19.1785H10.0833C10.7237 19.1785 11.218 19.3422 11.5665 19.6697C11.9148 19.9972 12.0891 20.4702 12.0891 21.0888ZM10.9702 21.127C10.9702 20.7613 10.8979 20.4903 10.7533 20.3137C10.6087 20.1373 10.3889 20.049 10.0942 20.049H9.7804V22.2841H10.0206C10.3481 22.2841 10.5882 22.189 10.741 21.9989C10.8938 21.8088 10.9702 21.5182 10.9702 21.127Z" fill="#A4A9AD"/>
<path d="M13.8657 23.1683H12.8041V19.1785H15.162V20.0436H13.8657V20.805H15.061V21.67H13.8657V23.1683Z" fill="#A4A9AD"/>
<path d="M15.7984 4.59535H20L15.7984 0.393799V4.59535Z" fill="#D1D3D3"/>
</svg>
